# Blender 4.1.1
# www.blender.org
mtllib 03.mtl
o Object_7
v -0.121553 0.163032 -0.000161
v -0.171067 0.233032 -0.000434
v -0.140941 0.186725 -0.040087
v 0.098933 0.000467 -0.089287
v 0.087417 0.012958 -0.080927
v 0.126492 0.000294 -0.064979
v -0.062112 0.014897 0.089211
v -0.037008 0.003527 0.064902
v -0.067551 0.030993 0.080850
v -0.146778 0.190548 0.039555
v 0.024949 0.122446 -0.039625
v 0.066391 0.133298 0.000525
v -0.046737 0.123438 -0.039875
v 0.033118 0.060773 -0.064449
v -0.026452 0.060794 -0.064461
v 0.059422 0.012958 -0.080927
v 0.087417 0.012958 -0.080927
v 0.035038 0.068357 -0.097398
v 0.035047 0.060738 -0.064454
v 0.045100 0.001108 -0.081164
v 0.087412 0.013305 -0.098215
v 0.125268 0.000640 -0.113596
v 0.126492 0.000294 -0.064979
v 0.045100 0.001108 -0.081164
v 0.098933 0.000467 -0.089287
v 0.126492 0.000294 -0.064979
v 0.067853 0.000624 -0.099659
v -0.021021 0.127836 0.040005
v -0.113984 0.152504 0.039758
v -0.095783 0.095151 0.064381
v -0.143880 0.111450 0.064371
v -0.093124 0.042382 0.080850
v -0.067551 0.030993 0.080850
v -0.095952 0.095946 0.064377
v -0.092861 0.102910 0.097321
v -0.111028 0.037384 0.081088
v -0.067414 0.031312 0.098138
v -0.037985 0.004341 0.113519
v -0.037008 0.003527 0.064902
v -0.062112 0.014897 0.089211
v -0.111028 0.037384 0.081088
v -0.037008 0.003527 0.064902
v -0.090440 0.027685 0.099583
v 0.125268 0.000640 -0.113596
v 0.067853 0.000624 -0.099659
v 0.087412 0.013305 -0.098215
v 0.125268 0.000640 -0.113596
v 0.067843 0.013289 -0.099422
v 0.045100 0.001108 -0.081164
v 0.059422 0.012958 -0.080927
v 0.035038 0.068357 -0.097398
v 0.059422 0.012958 -0.080927
v -0.003392 0.068337 -0.099699
v 0.067843 0.013289 -0.099422
v -0.003620 0.068339 -0.099699
v -0.024354 0.060779 -0.064459
v 0.032773 0.068396 -0.097393
v 0.026927 0.060885 -0.064434
v -0.010277 0.133596 -0.099100
v 0.031914 0.134508 -0.095028
v 0.036793 0.134365 -0.095061
v 0.080908 0.153839 -0.083574
v -0.010004 0.184707 -0.095714
v -0.087089 0.185448 -0.091588
v -0.100593 0.236373 -0.089034
v 0.015255 0.235414 -0.110823
v 0.113329 0.191128 -0.075575
v 0.137231 0.167190 0.000983
v 0.174687 0.238267 0.000877
v 0.136689 0.237531 -0.082246
v 0.135126 0.311295 -0.057581
v 0.161429 0.297427 -0.000331
v 0.176950 0.377969 -0.000585
v 0.158699 0.380459 -0.023812
v 0.077730 0.329749 -0.067304
v 0.009597 0.316300 -0.075515
v 0.137056 0.403396 -0.023693
v -0.090348 0.313806 -0.083354
v 0.060024 0.349897 0.000095
v -0.011656 0.340886 0.000036
v 0.110760 0.412508 -0.000198
v -0.127109 0.329129 -0.000318
v 0.153384 0.428220 -0.033890
v 0.140638 0.441969 -0.000411
v 0.173181 0.458460 -0.000624
v 0.184375 0.395377 -0.034060
v 0.176950 0.377969 -0.000585
v 0.209335 0.382005 -0.000796
v 0.185972 0.444716 -0.026832
v 0.190360 0.464093 -0.000734
v 0.217390 0.449140 -0.000891
v 0.217002 0.411877 -0.020690
v 0.244936 0.390806 -0.001022
v 0.231238 0.429557 -0.000964
v -0.152443 0.319092 -0.038312
v -0.210056 0.336511 -0.000674
v -0.152447 0.319189 -0.038327
v -0.191483 0.267267 -0.000555
v -0.210064 0.336615 -0.000701
v -0.153419 0.269393 -0.043968
v -0.037985 0.004341 0.113519
v -0.067414 0.031312 0.098138
v -0.090440 0.027685 0.099583
v -0.037985 0.004341 0.113519
v -0.085297 0.039258 0.099345
v -0.111028 0.037384 0.081088
v -0.093124 0.042382 0.080850
v -0.092861 0.102910 0.097321
v -0.126949 0.117178 0.099621
v -0.093124 0.042382 0.080850
v -0.085297 0.039258 0.099345
v -0.126947 0.117107 0.099621
v -0.144231 0.113049 0.064372
v -0.092791 0.102210 0.097325
v -0.094698 0.092514 0.064397
v -0.091835 0.161892 0.099045
v -0.025866 0.141114 0.095379
v -0.028341 0.141859 0.095347
v 0.052511 0.151498 0.084613
v -0.038680 0.190234 0.096008
v -0.112986 0.197731 0.091364
v -0.108536 0.240498 0.088724
v 0.006921 0.236156 0.111326
v 0.104798 0.189535 0.076862
v 0.136312 0.237666 0.083247
v 0.135531 0.311483 0.057019
v 0.158988 0.380490 0.022863
v 0.078203 0.330032 0.067207
v 0.009304 0.316422 0.075695
v 0.137345 0.403427 0.022982
v -0.090989 0.313938 0.083041
v -0.153802 0.269474 0.043187
v -0.191483 0.267267 -0.000555
v -0.152754 0.319154 0.037478
v -0.152780 0.319259 0.037462
v -0.210064 0.336615 -0.000701
v 0.153798 0.428265 0.032942
v 0.184789 0.395422 0.032773
v 0.186295 0.444751 0.025459
v 0.217390 0.449140 -0.000891
v 0.217247 0.411904 0.018977
v 0.244936 0.390806 -0.001022
v 0.231238 0.429557 -0.000964
vn -0.9403 -0.3089 -0.1432
vn -0.9554 -0.2941 -0.0264
vn -0.9516 -0.1025 -0.2897
vn 0.5728 0.8197 -0.0057
vn 0.6804 0.7260 -0.1004
vn 0.4447 0.7439 -0.4989
vn 0.8567 0.5157 0.0057
vn 0.7089 0.4986 0.4989
vn 0.9169 0.3864 0.1004
vn -0.9688 0.0395 0.2448
vn 0.1686 -0.9703 -0.1733
vn 0.6338 -0.7722 0.0444
vn 0.8740 -0.4840 -0.0433
vn -0.0033 -0.8637 0.5040
vn 0.0710 -0.5411 0.8380
vn 0.0044 -0.1797 0.9837
vn -0.1198 0.3323 0.9355
vn 0.6986 0.7019 0.1392
vn 0.6924 0.7030 0.1624
vn -0.0744 0.2462 0.9664
vn 0.6758 0.7222 0.1474
vn 0.4494 0.7455 0.4922
vn -0.1579 0.5475 0.8218
vn -0.0103 -0.9999 0.0107
vn -0.0070 -1.0000 -0.0000
vn -0.0111 -0.9999 0.0054
vn -0.0082 -0.9999 0.0093
vn 0.0620 -0.6022 -0.7959
vn -0.0208 -0.3768 0.9260
vn -0.4200 -0.7549 -0.5036
vn -0.1547 -0.6070 -0.7795
vn -0.0647 -0.1694 -0.9834
vn 0.0242 0.3483 -0.9371
vn 0.9185 0.3605 -0.1624
vn 0.9237 0.3570 -0.1392
vn 0.0322 0.2552 -0.9664
vn 0.9112 0.3848 -0.1474
vn 0.7138 0.4982 -0.4922
vn 0.0785 0.5644 -0.8218
vn -0.4132 -0.9106 -0.0000
vn -0.4162 -0.9092 -0.0107
vn -0.4169 -0.9089 -0.0054
vn -0.4143 -0.9101 -0.0093
vn -0.0020 -1.0000 -0.0093
vn -0.3534 0.1068 -0.9294
vn -0.1090 0.2892 -0.9510
vn -0.2132 0.4288 -0.8779
vn -0.1678 0.1265 -0.9777
vn -0.6873 0.5138 -0.5134
vn -0.6120 0.7450 -0.2653
vn -0.2923 0.4232 -0.8576
vn -0.6030 -0.7467 -0.2808
vn -0.6371 -0.6327 -0.4401
vn -0.6002 -0.7468 -0.2865
vn -0.1691 0.3405 -0.9249
vn -0.8729 -0.3042 -0.3813
vn 0.1167 0.8181 0.5632
vn 0.2167 0.6863 0.6943
vn -0.7316 0.5140 0.4479
vn 0.9817 0.0063 0.1905
vn -0.3470 0.9083 -0.2337
vn 0.7451 -0.2288 -0.6264
vn 0.1179 0.6784 -0.7251
vn -0.5696 0.3170 -0.7583
vn -0.5376 0.0824 -0.8392
vn -0.0887 -0.0377 -0.9953
vn 0.6843 -0.3314 -0.6495
vn 0.7610 -0.6485 0.0167
vn 0.8121 -0.5834 0.0138
vn 0.5517 -0.4096 -0.7266
vn 0.2046 -0.5154 -0.8322
vn 0.3130 -0.9486 0.0460
vn 0.1315 -0.9913 -0.0010
vn 0.3560 -0.3880 -0.8501
vn -0.7458 -0.6662 0.0014
vn -0.5127 0.1119 -0.8512
vn -0.3570 0.1681 -0.9189
vn -0.2921 0.6228 -0.7258
vn -0.5830 -0.7711 0.2560
vn -0.7505 0.6539 0.0954
vn -0.7876 0.6161 0.0047
vn -0.0864 0.9963 -0.0029
vn -0.3127 0.3473 -0.8841
vn -0.5889 0.8082 0.0030
vn -0.3597 0.9331 0.0015
vn 0.2169 -0.3842 -0.8974
vn 0.6071 -0.7946 -0.0032
vn 0.3596 -0.9331 -0.0018
vn 0.1353 0.5296 -0.8373
vn 0.1092 0.9940 -0.0015
vn 0.5073 0.4978 -0.7034
vn 0.5015 -0.0322 -0.8645
vn 0.4219 -0.2533 -0.8706
vn 0.5990 0.3312 -0.7291
vn -0.0105 0.9641 -0.2655
vn 0.0766 0.9971 -0.0031
vn -0.6143 0.0239 -0.7887
vn -0.6775 -0.2067 -0.7059
vn -0.5726 -0.1551 -0.8050
vn -0.7092 -0.0647 -0.7020
vn -0.4086 -0.9127 0.0093
vn 0.0181 0.3085 0.9510
vn -0.2794 0.2413 0.9294
vn -0.0203 0.4785 0.8779
vn -0.1026 0.1839 0.9776
vn -0.4188 0.7490 0.5134
vn -0.2560 0.9296 0.2653
vn 0.1411 0.5177 0.8439
vn -0.9513 -0.0351 0.3063
vn -0.8592 -0.4300 0.2772
vn -0.8549 -0.4311 0.2887
vn 0.1001 0.4041 0.9092
vn -0.9228 0.3394 0.1824
vn 0.8471 0.1531 -0.5088
vn 0.8195 -0.0038 -0.5730
vn -0.1216 0.8961 -0.4270
vn 0.8998 -0.4332 -0.0513
vn 0.2106 0.9435 0.2557
vn 0.6394 -0.3690 0.6745
vn 0.0412 0.7222 0.6905
vn -0.4418 0.6143 0.6538
vn -0.5267 0.2222 0.8205
vn -0.0444 -0.0032 0.9990
vn 0.6320 -0.3536 0.6896
vn 0.5666 -0.3934 0.7240
vn 0.0828 -0.3201 0.9438
vn 0.3418 -0.4014 0.8497
vn -0.8518 0.1692 -0.4957
vn -0.6865 0.6639 0.2964
vn -0.3494 0.1602 0.9232
vn -0.2848 0.6354 0.7177
vn -0.7316 -0.0304 0.6811
vn -0.6836 -0.2054 0.7003
vn -0.0132 0.9656 0.2598
vn -0.6177 0.0261 0.7860
vn -0.5797 -0.1536 0.8002
vn -0.3018 0.3485 0.8874
vn 0.2281 -0.3831 0.8951
vn 0.1457 0.5309 0.8348
vn 0.5161 0.4990 0.6962
vn 0.5124 -0.0311 0.8582
vn 0.4329 -0.2523 0.8654
vn 0.6082 0.3323 0.7209
vt 0.720701 0.653630
vt 0.799110 0.513958
vt 0.755933 0.599506
vt 0.451605 0.930846
vt 0.462961 0.909486
vt 0.424431 0.931143
vt 0.451605 0.930846
vt 0.441665 0.719581
vt 0.388270 0.687645
vt 0.557982 0.719581
vt 0.491715 0.796377
vt 0.560897 0.796377
vt 0.490565 0.909486
vt 0.491728 0.786597
vt 0.504688 0.929750
vt 0.462966 0.908893
vt 0.425638 0.930550
vt 0.482252 0.930577
vt 0.491715 0.796377
vt 0.560897 0.796377
vt 0.482262 0.908921
vt 0.540088 0.786636
vt 0.522995 0.703204
vt 0.441686 0.703138
vt 0.388312 0.654386
vt 0.549342 0.599506
vt 0.681405 0.596716
vt 0.685950 0.509722
vt 0.485432 0.513958
vt 0.315774 0.592335
vt 0.278079 0.618557
vt 0.183565 0.502934
vt 0.268280 0.513958
vt 0.269814 0.385793
vt 0.156462 0.409926
vt 0.156267 0.291363
vt 0.226607 0.267834
vt 0.368049 0.351622
vt 0.485432 0.375300
vt 0.262866 0.227584
vt 0.658185 0.377549
vt 0.398522 0.313389
vt 0.557836 0.345086
vt 0.344827 0.181365
vt 0.764795 0.306485
vt 0.255710 0.132463
vt 0.316292 0.117749
vt 0.291898 0.055006
vt 0.203792 0.190095
vt 0.185918 0.188314
vt 0.134479 0.127174
vt 0.192391 0.037306
vt 0.236993 0.021594
vt 0.132597 0.010777
vt 0.117627 0.093966
vt 0.077042 0.125425
vt 0.112945 0.020945
vt 0.764990 0.367065
vt 0.895622 0.289304
vt 0.833484 0.454897
vt 0.768009 0.452170
vt 0.540088 0.786636
vt 0.485432 0.513958
vt 0.368049 0.351622
vt 0.658185 0.377549
vt 0.189960 0.038278
s 1
usemtl Chicken1_Mat
f 1/1/1 2/2/2 3/3/3
f 4/4/4 5/5/5 6/6/6
f 7/7/7 8/6/8 9/5/9
f 10/3/10 2/2/2 1/1/1
f 1/1/1 11/8/11 12/9/12
f 11/8/11 1/1/1 13/10/13
f 13/10/13 14/11/14 11/8/11
f 14/11/14 13/10/13 15/12/15
f 15/12/15 16/13/16 14/11/14
f 14/11/14 16/13/16 17/5/17
f 5/5/5 18/14/18 19/11/19
f 17/5/17 16/13/16 20/15/20
f 18/14/18 5/5/5 21/16/21
f 5/5/5 4/4/4 21/16/21
f 21/16/21 4/4/4 22/17/22
f 20/15/20 23/6/23 17/5/17
f 24/15/24 25/4/25 26/6/26
f 25/4/25 24/15/24 27/18/27
f 28/8/28 1/1/1 12/9/12
f 1/1/1 28/8/28 29/10/29
f 30/19/30 29/10/29 28/8/28
f 29/10/29 30/19/30 31/20/31
f 32/13/32 31/20/31 30/19/30
f 30/19/30 33/5/33 32/13/32
f 9/5/9 34/19/34 35/14/35
f 33/5/33 36/15/36 32/13/32
f 35/14/35 37/16/37 9/5/9
f 9/5/9 37/16/37 7/7/7
f 37/16/37 38/17/38 7/7/7
f 39/6/39 36/15/36 33/5/33
f 40/7/40 41/15/41 42/6/42
f 41/15/41 40/7/40 43/18/43
f 27/18/27 44/17/44 25/4/25
f 45/18/45 46/16/46 47/17/47
f 46/16/46 45/18/45 48/21/48
f 49/15/49 48/21/48 45/18/45
f 48/21/48 49/15/49 50/13/50
f 48/21/48 51/14/51 46/16/46
f 52/13/52 53/22/53 54/21/54
f 51/14/51 48/21/48 55/22/55
f 53/22/53 52/13/52 56/12/56
f 13/10/13 53/22/53 56/12/56
f 57/14/57 11/8/11 58/11/58
f 59/23/59 53/22/53 13/10/13
f 59/23/59 51/14/51 55/22/55
f 3/3/3 13/10/13 1/1/1
f 3/3/3 59/23/59 13/10/13
f 11/8/11 57/14/57 60/24/60
f 61/24/61 51/14/51 59/23/59
f 62/25/62 11/8/11 60/24/60
f 62/25/62 12/9/12 11/8/11
f 59/23/59 63/26/63 61/24/61
f 63/26/63 62/25/62 61/24/61
f 59/23/59 3/3/3 64/27/64
f 64/27/64 63/26/63 59/23/59
f 3/3/3 65/28/65 64/27/64
f 65/28/65 63/26/63 64/27/64
f 65/28/65 3/3/3 2/2/2
f 62/25/62 63/26/63 66/29/66
f 63/26/63 65/28/65 66/29/66
f 67/30/67 12/9/12 62/25/62
f 66/29/66 67/30/67 62/25/62
f 12/9/12 67/30/67 68/31/68
f 67/30/67 69/32/69 68/31/68
f 69/32/69 67/30/67 70/33/70
f 67/30/67 66/29/66 70/33/70
f 71/34/71 69/32/69 70/33/70
f 66/29/66 71/34/71 70/33/70
f 69/32/69 71/34/71 72/35/72
f 73/36/73 72/35/72 74/37/74
f 72/35/72 71/34/71 74/37/74
f 71/34/71 66/29/66 75/38/75
f 75/38/75 74/37/74 71/34/71
f 75/38/75 66/29/66 76/39/76
f 74/37/74 75/38/75 77/40/77
f 66/29/66 78/41/78 76/39/76
f 78/41/78 66/29/66 65/28/65
f 76/39/76 79/42/79 75/38/75
f 79/42/79 77/40/77 75/38/75
f 79/42/79 76/39/76 80/43/80
f 78/41/78 80/43/80 76/39/76
f 77/40/77 79/42/79 81/44/81
f 80/43/80 78/41/78 82/45/82
f 81/44/81 83/46/83 77/40/77
f 83/46/83 81/44/81 84/47/84
f 83/46/83 84/47/84 85/48/85
f 77/40/77 86/49/86 74/37/74
f 86/49/86 77/40/77 83/46/83
f 86/49/86 87/50/87 74/37/74
f 86/49/86 88/51/88 87/50/87
f 85/48/85 89/52/89 83/46/83
f 90/53/90 89/52/89 85/48/85
f 91/54/91 89/52/89 90/53/90
f 83/46/83 92/55/92 86/49/86
f 92/55/92 83/46/83 89/52/89
f 92/55/92 88/51/88 86/49/86
f 92/55/92 89/52/89 91/54/91
f 88/51/88 92/55/92 93/56/93
f 91/54/91 94/57/94 92/55/92
f 94/57/94 93/56/93 92/55/92
f 95/58/95 82/45/82 78/41/78
f 82/45/82 95/58/95 96/59/96
f 97/58/97 98/60/98 99/59/99
f 97/58/97 78/41/78 100/61/100
f 98/60/98 97/58/97 100/61/100
f 78/41/78 65/28/65 100/61/100
f 100/61/100 2/2/2 98/60/98
f 2/2/2 100/61/100 65/28/65
f 101/17/101 43/18/43 40/7/40
f 102/16/102 103/18/103 104/17/104
f 103/18/103 102/16/102 105/21/105
f 105/21/105 106/15/106 103/18/103
f 106/15/106 105/21/105 107/13/107
f 108/14/108 105/21/105 102/16/102
f 109/62/109 110/13/110 111/21/111
f 105/21/105 108/14/108 112/62/112
f 110/13/110 109/62/109 113/20/113
f 29/10/29 113/20/113 109/62/109
f 28/8/28 114/14/114 115/19/115
f 116/23/116 29/10/29 109/62/109
f 116/23/116 112/62/112 108/14/108
f 1/1/1 29/10/29 10/3/10
f 116/23/116 10/3/10 29/10/29
f 114/14/114 28/8/28 117/24/117
f 108/14/108 118/24/118 116/23/116
f 117/24/117 28/8/28 119/25/119
f 12/9/12 119/25/119 28/8/28
f 116/23/116 118/24/118 120/26/120
f 119/25/119 120/26/120 118/24/118
f 10/3/10 116/23/116 121/27/121
f 121/27/121 116/23/116 120/26/120
f 122/28/122 10/3/10 121/27/121
f 122/28/122 121/27/121 120/26/120
f 10/3/10 122/28/122 2/2/2
f 120/26/120 119/25/119 123/63/123
f 123/63/123 122/28/122 120/26/120
f 12/9/12 124/30/124 119/25/119
f 124/30/124 123/63/123 119/25/119
f 124/30/124 12/9/12 68/31/68
f 69/32/69 124/30/124 68/31/68
f 69/32/69 125/33/125 124/30/124
f 123/63/123 124/30/124 125/33/125
f 69/32/69 126/34/126 125/33/125
f 126/34/126 123/63/123 125/33/125
f 126/34/126 69/32/69 72/35/72
f 127/37/127 72/35/72 73/36/73
f 72/35/72 127/37/127 126/34/126
f 123/63/123 126/34/126 128/64/128
f 127/37/127 128/64/128 126/34/126
f 129/39/129 123/63/123 128/64/128
f 128/64/128 127/37/127 130/40/130
f 79/42/79 129/39/129 128/64/128
f 130/40/130 79/42/79 128/64/128
f 129/39/129 79/42/79 80/43/80
f 79/42/79 130/40/130 81/44/81
f 80/43/80 131/65/131 129/39/129
f 131/65/131 123/63/123 129/39/129
f 123/63/123 131/65/131 122/28/122
f 131/65/131 80/43/80 82/45/82
f 122/28/122 131/65/131 132/61/132
f 132/61/132 2/2/2 122/28/122
f 2/2/2 132/61/132 133/60/133
f 134/58/134 131/65/131 82/45/82
f 135/58/135 132/61/132 131/65/131
f 133/60/133 132/61/132 135/58/135
f 82/45/82 96/59/96 134/58/134
f 135/58/135 136/59/136 133/60/133
f 137/46/137 81/44/81 130/40/130
f 137/46/137 84/47/84 81/44/81
f 137/46/137 85/48/85 84/47/84
f 130/40/130 138/49/138 137/46/137
f 127/37/127 138/49/138 130/40/130
f 87/50/87 138/49/138 127/37/127
f 138/49/138 87/50/87 88/51/88
f 85/48/85 137/46/137 139/66/139
f 139/66/139 90/53/90 85/48/85
f 140/54/140 90/53/90 139/66/139
f 141/55/141 137/46/137 138/49/138
f 137/46/137 141/55/141 139/66/139
f 138/49/138 88/51/88 141/55/141
f 139/66/139 141/55/141 140/54/140
f 141/55/141 88/51/88 142/56/142
f 141/55/141 143/57/143 140/54/140
f 142/56/142 143/57/143 141/55/141
