# Blender 4.1.1
# www.blender.org
mtllib 08.mtl
o Object_7
v -0.112026 0.164747 -0.000696
v -0.170330 0.223485 -0.002129
v -0.136228 0.181784 -0.041028
v 0.079696 -0.002044 -0.089364
v 0.068179 0.010448 -0.081004
v 0.107254 -0.002217 -0.065055
v -0.003189 0.049073 0.089094
v 0.021915 0.037703 0.064786
v -0.008628 0.065169 0.080734
v -0.139362 0.187829 0.038595
v 0.024032 0.126975 -0.038724
v 0.075763 0.147331 0.002781
v -0.054384 0.122811 -0.040024
v 0.014519 0.058383 -0.064507
v -0.042810 0.058231 -0.064549
v 0.040185 0.010448 -0.081004
v 0.068179 0.010448 -0.081004
v 0.015800 0.065846 -0.097474
v 0.015810 0.058228 -0.064530
v 0.025862 -0.001403 -0.081241
v 0.068174 0.010794 -0.098291
v 0.106031 -0.001871 -0.113672
v 0.107254 -0.002217 -0.065055
v 0.025862 -0.001403 -0.081241
v 0.079696 -0.002044 -0.089364
v 0.107254 -0.002217 -0.065055
v 0.048616 -0.001887 -0.099736
v 0.003106 0.144400 0.040858
v -0.077988 0.172359 0.039582
v -0.038272 0.128485 0.064283
v -0.091108 0.141297 0.064245
v -0.034201 0.076558 0.080734
v -0.008628 0.065169 0.080734
v -0.037029 0.130122 0.064260
v -0.033938 0.137086 0.097205
v -0.052106 0.071560 0.080971
v -0.008491 0.065488 0.098022
v 0.020938 0.038517 0.113403
v 0.021915 0.037703 0.064786
v -0.003189 0.049073 0.089094
v -0.052106 0.071560 0.080971
v 0.021915 0.037703 0.064786
v -0.031517 0.061861 0.099466
v 0.106031 -0.001871 -0.113672
v 0.048616 -0.001887 -0.099736
v 0.068174 0.010794 -0.098291
v 0.106031 -0.001871 -0.113672
v 0.048605 0.010778 -0.099498
v 0.025862 -0.001403 -0.081241
v 0.040185 0.010448 -0.081004
v 0.015800 0.065846 -0.097474
v 0.040185 0.010448 -0.081004
v -0.022253 0.065837 -0.099775
v 0.048605 0.010778 -0.099498
v -0.022404 0.065841 -0.099775
v -0.041488 0.058224 -0.064547
v 0.014284 0.066022 -0.097449
v 0.010518 0.058906 -0.064418
v -0.023292 0.131719 -0.099139
v 0.027037 0.137164 -0.094198
v 0.029726 0.136329 -0.094382
v 0.082439 0.164098 -0.081334
v -0.011617 0.187108 -0.095036
v -0.088214 0.182115 -0.091938
v -0.101136 0.232668 -0.089640
v 0.015052 0.241420 -0.109818
v 0.116653 0.207159 -0.072962
v 0.142805 0.187709 0.005055
v 0.173864 0.262049 0.004143
v 0.137913 0.256576 -0.080505
v 0.132972 0.322039 -0.059396
v 0.161173 0.314227 -0.002654
v 0.167225 0.392054 -0.003886
v 0.147983 0.391318 -0.026424
v 0.073305 0.331096 -0.067499
v 0.003244 0.320222 -0.075313
v 0.122839 0.410332 -0.025516
v -0.096228 0.310368 -0.084118
v 0.055756 0.346583 0.000742
v -0.021174 0.343067 -0.000010
v 0.096264 0.415093 -0.001070
v -0.135665 0.322631 -0.001783
v 0.134422 0.437460 -0.036320
v 0.120788 0.449115 -0.002398
v 0.150098 0.470792 -0.003819
v 0.170425 0.410235 -0.037620
v 0.167225 0.392054 -0.003886
v 0.198455 0.401424 -0.005294
v 0.164040 0.459197 -0.030476
v 0.166083 0.479205 -0.004566
v 0.195204 0.468960 -0.005715
v 0.200310 0.432024 -0.025470
v 0.232060 0.416027 -0.006838
v 0.212108 0.451957 -0.006290
v -0.159307 0.310163 -0.040138
v -0.218973 0.322096 -0.003558
v -0.159429 0.310849 -0.040264
v -0.193945 0.255589 -0.002830
v -0.219120 0.322819 -0.003756
v -0.155495 0.261165 -0.045591
v 0.020938 0.038517 0.113403
v -0.008491 0.065488 0.098022
v -0.031517 0.061861 0.099466
v 0.020938 0.038517 0.113403
v -0.026374 0.073434 0.099229
v -0.052106 0.071560 0.080971
v -0.034201 0.076558 0.080734
v -0.033938 0.137086 0.097205
v -0.069091 0.150665 0.099505
v -0.034201 0.076558 0.080734
v -0.026374 0.073434 0.099229
v -0.069175 0.150539 0.099505
v -0.089908 0.144000 0.064245
v -0.035172 0.135629 0.097224
v -0.041714 0.123112 0.064373
v -0.049890 0.186196 0.098963
v 0.001194 0.159755 0.096132
v 0.002070 0.162214 0.095959
v 0.066908 0.169222 0.086759
v -0.024389 0.201762 0.096608
v -0.098997 0.203194 0.090963
v -0.106109 0.240336 0.088068
v 0.009332 0.245529 0.112212
v 0.110690 0.208170 0.079294
v 0.136382 0.257462 0.084768
v 0.135846 0.323636 0.055138
v 0.149958 0.391703 0.020208
v 0.076597 0.333392 0.066772
v 0.002156 0.321068 0.075830
v 0.124814 0.410717 0.021116
v -0.099366 0.311148 0.082238
v -0.157440 0.261637 0.041542
v -0.193945 0.255589 -0.002830
v -0.160857 0.310526 0.035641
v -0.161120 0.311260 0.035506
v -0.219120 0.322819 -0.003756
v 0.137250 0.438012 0.030452
v 0.173253 0.410787 0.029152
v 0.166253 0.459629 0.021767
v 0.195204 0.468960 -0.005715
v 0.201989 0.432352 0.014161
v 0.232060 0.416027 -0.006838
v 0.212108 0.451957 -0.006290
vn -0.8902 -0.4357 0.1334
vn -0.9107 -0.4126 -0.0184
vn -0.9537 -0.1687 -0.2491
vn 0.5728 0.8197 -0.0057
vn 0.6804 0.7260 -0.1004
vn 0.4447 0.7439 -0.4989
vn 0.8567 0.5157 0.0057
vn 0.7089 0.4986 0.4989
vn 0.9169 0.3864 0.1004
vn -0.9125 -0.2281 0.3395
vn 0.0277 -0.9938 -0.1073
vn 0.6908 -0.7197 0.0696
vn 0.8264 -0.5422 -0.1522
vn -0.0394 -0.8608 0.5074
vn 0.0643 -0.5356 0.8420
vn 0.0044 -0.1791 0.9838
vn -0.1197 0.3311 0.9360
vn 0.6986 0.7019 0.1392
vn 0.6924 0.7030 0.1624
vn -0.0744 0.2462 0.9664
vn 0.6758 0.7222 0.1474
vn 0.4494 0.7455 0.4922
vn -0.1579 0.5475 0.8218
vn -0.0103 -0.9999 0.0107
vn -0.0070 -1.0000 -0.0000
vn -0.0111 -0.9999 0.0054
vn -0.0082 -0.9999 0.0093
vn -0.5395 -0.7839 0.3073
vn 0.0974 -0.1631 0.9818
vn -0.4013 -0.8076 -0.4321
vn -0.1132 -0.6999 -0.7052
vn -0.0631 -0.1753 -0.9825
vn 0.0246 0.3509 -0.9361
vn 0.9185 0.3605 -0.1624
vn 0.9237 0.3570 -0.1392
vn 0.0322 0.2552 -0.9664
vn 0.9112 0.3848 -0.1474
vn 0.7138 0.4982 -0.4922
vn 0.0785 0.5644 -0.8218
vn -0.4132 -0.9106 -0.0000
vn -0.4162 -0.9092 -0.0107
vn -0.4169 -0.9089 -0.0054
vn -0.4143 -0.9101 -0.0093
vn -0.0020 -1.0000 -0.0093
vn -0.3534 0.1068 -0.9294
vn -0.1090 0.2892 -0.9510
vn -0.2132 0.4288 -0.8779
vn -0.1678 0.1266 -0.9777
vn -0.6873 0.5138 -0.5134
vn -0.6120 0.7450 -0.2653
vn -0.2365 0.4634 -0.8540
vn -0.6063 -0.7452 -0.2775
vn -0.6872 -0.5962 -0.4150
vn -0.6020 -0.7450 -0.2873
vn -0.1436 0.3542 -0.9241
vn -0.9046 -0.2440 -0.3494
vn 0.3221 0.7673 0.5546
vn 0.4129 0.6384 0.6496
vn -0.6705 0.5793 0.4634
vn 0.9859 0.0194 0.1663
vn -0.3287 0.9114 -0.2477
vn 0.7454 -0.1985 -0.6364
vn 0.1829 0.6731 -0.7166
vn -0.5481 0.3581 -0.7558
vn -0.5311 0.0568 -0.8454
vn -0.0746 -0.0383 -0.9965
vn 0.7097 -0.2952 -0.6397
vn 0.8170 -0.5758 0.0315
vn 0.8492 -0.5271 0.0303
vn 0.5880 -0.3863 -0.7107
vn 0.2851 -0.5300 -0.7986
vn 0.3316 -0.9321 0.1458
vn 0.2431 -0.9700 -0.0035
vn 0.3920 -0.3427 -0.8537
vn -0.6690 -0.7401 -0.0682
vn -0.5409 0.1354 -0.8301
vn -0.4081 0.1105 -0.9062
vn -0.3309 0.5978 -0.7302
vn -0.6318 -0.7334 0.2508
vn -0.7669 0.6358 0.0872
vn -0.8728 0.4868 0.0354
vn -0.1719 0.9851 -0.0094
vn -0.3981 0.2845 -0.8721
vn -0.7148 0.6989 0.0244
vn -0.5098 0.8601 0.0144
vn 0.2452 -0.3486 -0.9046
vn 0.7305 -0.6825 -0.0253
vn 0.5097 -0.8602 -0.0146
vn 0.0147 0.5393 -0.8420
vn -0.0581 0.9983 -0.0059
vn 0.3913 0.5707 -0.7219
vn 0.4681 0.0461 -0.8825
vn 0.4263 -0.1852 -0.8854
vn 0.5085 0.4215 -0.7508
vn -0.0956 0.9580 -0.2702
vn -0.0183 0.9998 -0.0079
vn -0.5991 -0.0398 -0.7997
vn -0.6417 -0.2746 -0.7161
vn -0.5405 -0.2136 -0.8138
vn -0.6930 -0.1269 -0.7097
vn -0.4086 -0.9127 0.0093
vn 0.0181 0.3085 0.9510
vn -0.2794 0.2413 0.9294
vn -0.0203 0.4785 0.8779
vn -0.1024 0.1835 0.9777
vn -0.4188 0.7490 0.5134
vn -0.2560 0.9296 0.2653
vn 0.1125 0.5275 0.8421
vn -0.9177 -0.1234 0.3776
vn -0.8455 -0.4454 0.2944
vn -0.8498 -0.4439 0.2843
vn 0.0399 0.4135 0.9096
vn -0.9350 0.2551 0.2462
vn 0.8156 0.1756 -0.5513
vn 0.7353 -0.0496 -0.6760
vn -0.3070 0.8633 -0.4005
vn 0.9084 -0.4156 -0.0461
vn 0.1937 0.9575 0.2135
vn 0.6799 -0.3275 0.6560
vn -0.0054 0.7145 0.6996
vn -0.5650 0.3230 0.7592
vn -0.5467 0.1371 0.8260
vn -0.0542 -0.0008 0.9985
vn 0.6637 -0.2826 0.6926
vn 0.5902 -0.3232 0.7397
vn 0.0796 -0.2362 0.9684
vn 0.4344 -0.3515 0.8293
vn -0.8521 0.1558 -0.4996
vn -0.7269 0.6114 0.3127
vn -0.3338 0.1121 0.9360
vn -0.3497 0.6095 0.7115
vn -0.7236 -0.1206 0.6796
vn -0.6731 -0.2669 0.6897
vn -0.1069 0.9615 0.2531
vn -0.6298 -0.0301 0.7762
vn -0.5764 -0.2049 0.7911
vn -0.3232 0.2992 0.8978
vn 0.3211 -0.3339 0.8863
vn 0.0855 0.5532 0.8286
vn 0.4507 0.5825 0.6764
vn 0.5412 0.0603 0.8387
vn 0.5000 -0.1710 0.8490
vn 0.5701 0.4337 0.6978
vt 0.720701 0.653630
vt 0.799110 0.513958
vt 0.755933 0.599506
vt 0.451605 0.930846
vt 0.462961 0.909486
vt 0.424431 0.931143
vt 0.451605 0.930846
vt 0.441665 0.719581
vt 0.388270 0.687645
vt 0.557982 0.719581
vt 0.491715 0.796377
vt 0.560897 0.796377
vt 0.490565 0.909486
vt 0.491728 0.786597
vt 0.504688 0.929750
vt 0.462966 0.908893
vt 0.425638 0.930550
vt 0.482252 0.930577
vt 0.491715 0.796377
vt 0.560897 0.796377
vt 0.482262 0.908921
vt 0.540088 0.786636
vt 0.522995 0.703204
vt 0.441686 0.703138
vt 0.388312 0.654386
vt 0.549342 0.599506
vt 0.681405 0.596716
vt 0.685950 0.509722
vt 0.485432 0.513958
vt 0.315774 0.592335
vt 0.278079 0.618557
vt 0.183565 0.502934
vt 0.268280 0.513958
vt 0.269814 0.385793
vt 0.156462 0.409926
vt 0.156267 0.291363
vt 0.226607 0.267834
vt 0.368049 0.351622
vt 0.485432 0.375300
vt 0.262866 0.227584
vt 0.658185 0.377549
vt 0.398522 0.313389
vt 0.557836 0.345086
vt 0.344827 0.181365
vt 0.764795 0.306485
vt 0.255710 0.132463
vt 0.316292 0.117749
vt 0.291898 0.055006
vt 0.203792 0.190095
vt 0.185918 0.188314
vt 0.134479 0.127174
vt 0.192391 0.037306
vt 0.236993 0.021594
vt 0.132597 0.010777
vt 0.117627 0.093966
vt 0.077042 0.125425
vt 0.112945 0.020945
vt 0.764990 0.367065
vt 0.895622 0.289304
vt 0.833484 0.454897
vt 0.768009 0.452170
vt 0.540088 0.786636
vt 0.485432 0.513958
vt 0.368049 0.351622
vt 0.658185 0.377549
vt 0.189960 0.038278
s 1
usemtl Chicken1_Mat
f 1/1/1 2/2/2 3/3/3
f 4/4/4 5/5/5 6/6/6
f 7/7/7 8/6/8 9/5/9
f 10/3/10 2/2/2 1/1/1
f 1/1/1 11/8/11 12/9/12
f 11/8/11 1/1/1 13/10/13
f 13/10/13 14/11/14 11/8/11
f 14/11/14 13/10/13 15/12/15
f 15/12/15 16/13/16 14/11/14
f 14/11/14 16/13/16 17/5/17
f 5/5/5 18/14/18 19/11/19
f 17/5/17 16/13/16 20/15/20
f 18/14/18 5/5/5 21/16/21
f 5/5/5 4/4/4 21/16/21
f 21/16/21 4/4/4 22/17/22
f 20/15/20 23/6/23 17/5/17
f 24/15/24 25/4/25 26/6/26
f 25/4/25 24/15/24 27/18/27
f 28/8/28 1/1/1 12/9/12
f 1/1/1 28/8/28 29/10/29
f 30/19/30 29/10/29 28/8/28
f 29/10/29 30/19/30 31/20/31
f 32/13/32 31/20/31 30/19/30
f 30/19/30 33/5/33 32/13/32
f 9/5/9 34/19/34 35/14/35
f 33/5/33 36/15/36 32/13/32
f 35/14/35 37/16/37 9/5/9
f 9/5/9 37/16/37 7/7/7
f 37/16/37 38/17/38 7/7/7
f 39/6/39 36/15/36 33/5/33
f 40/7/40 41/15/41 42/6/42
f 41/15/41 40/7/40 43/18/43
f 27/18/27 44/17/44 25/4/25
f 45/18/45 46/16/46 47/17/47
f 46/16/46 45/18/45 48/21/48
f 49/15/49 48/21/48 45/18/45
f 48/21/48 49/15/49 50/13/50
f 48/21/48 51/14/51 46/16/46
f 52/13/52 53/22/53 54/21/54
f 51/14/51 48/21/48 55/22/55
f 53/22/53 52/13/52 56/12/56
f 13/10/13 53/22/53 56/12/56
f 57/14/57 11/8/11 58/11/58
f 59/23/59 53/22/53 13/10/13
f 59/23/59 51/14/51 55/22/55
f 3/3/3 13/10/13 1/1/1
f 3/3/3 59/23/59 13/10/13
f 11/8/11 57/14/57 60/24/60
f 61/24/61 51/14/51 59/23/59
f 62/25/62 11/8/11 60/24/60
f 62/25/62 12/9/12 11/8/11
f 59/23/59 63/26/63 61/24/61
f 63/26/63 62/25/62 61/24/61
f 59/23/59 3/3/3 64/27/64
f 64/27/64 63/26/63 59/23/59
f 3/3/3 65/28/65 64/27/64
f 65/28/65 63/26/63 64/27/64
f 65/28/65 3/3/3 2/2/2
f 62/25/62 63/26/63 66/29/66
f 63/26/63 65/28/65 66/29/66
f 67/30/67 12/9/12 62/25/62
f 66/29/66 67/30/67 62/25/62
f 12/9/12 67/30/67 68/31/68
f 67/30/67 69/32/69 68/31/68
f 69/32/69 67/30/67 70/33/70
f 67/30/67 66/29/66 70/33/70
f 71/34/71 69/32/69 70/33/70
f 66/29/66 71/34/71 70/33/70
f 69/32/69 71/34/71 72/35/72
f 73/36/73 72/35/72 74/37/74
f 72/35/72 71/34/71 74/37/74
f 71/34/71 66/29/66 75/38/75
f 75/38/75 74/37/74 71/34/71
f 75/38/75 66/29/66 76/39/76
f 74/37/74 75/38/75 77/40/77
f 66/29/66 78/41/78 76/39/76
f 78/41/78 66/29/66 65/28/65
f 76/39/76 79/42/79 75/38/75
f 79/42/79 77/40/77 75/38/75
f 79/42/79 76/39/76 80/43/80
f 78/41/78 80/43/80 76/39/76
f 77/40/77 79/42/79 81/44/81
f 80/43/80 78/41/78 82/45/82
f 81/44/81 83/46/83 77/40/77
f 83/46/83 81/44/81 84/47/84
f 83/46/83 84/47/84 85/48/85
f 77/40/77 86/49/86 74/37/74
f 86/49/86 77/40/77 83/46/83
f 86/49/86 87/50/87 74/37/74
f 86/49/86 88/51/88 87/50/87
f 85/48/85 89/52/89 83/46/83
f 90/53/90 89/52/89 85/48/85
f 91/54/91 89/52/89 90/53/90
f 83/46/83 92/55/92 86/49/86
f 92/55/92 83/46/83 89/52/89
f 92/55/92 88/51/88 86/49/86
f 92/55/92 89/52/89 91/54/91
f 88/51/88 92/55/92 93/56/93
f 91/54/91 94/57/94 92/55/92
f 94/57/94 93/56/93 92/55/92
f 95/58/95 82/45/82 78/41/78
f 82/45/82 95/58/95 96/59/96
f 97/58/97 98/60/98 99/59/99
f 97/58/97 78/41/78 100/61/100
f 98/60/98 97/58/97 100/61/100
f 78/41/78 65/28/65 100/61/100
f 100/61/100 2/2/2 98/60/98
f 2/2/2 100/61/100 65/28/65
f 101/17/101 43/18/43 40/7/40
f 102/16/102 103/18/103 104/17/104
f 103/18/103 102/16/102 105/21/105
f 105/21/105 106/15/106 103/18/103
f 106/15/106 105/21/105 107/13/107
f 108/14/108 105/21/105 102/16/102
f 109/62/109 110/13/110 111/21/111
f 105/21/105 108/14/108 112/62/112
f 110/13/110 109/62/109 113/20/113
f 29/10/29 113/20/113 109/62/109
f 28/8/28 114/14/114 115/19/115
f 116/23/116 29/10/29 109/62/109
f 116/23/116 112/62/112 108/14/108
f 1/1/1 29/10/29 10/3/10
f 116/23/116 10/3/10 29/10/29
f 114/14/114 28/8/28 117/24/117
f 108/14/108 118/24/118 116/23/116
f 117/24/117 28/8/28 119/25/119
f 12/9/12 119/25/119 28/8/28
f 116/23/116 118/24/118 120/26/120
f 119/25/119 120/26/120 118/24/118
f 10/3/10 116/23/116 121/27/121
f 121/27/121 116/23/116 120/26/120
f 122/28/122 10/3/10 121/27/121
f 122/28/122 121/27/121 120/26/120
f 10/3/10 122/28/122 2/2/2
f 120/26/120 119/25/119 123/63/123
f 123/63/123 122/28/122 120/26/120
f 12/9/12 124/30/124 119/25/119
f 124/30/124 123/63/123 119/25/119
f 124/30/124 12/9/12 68/31/68
f 69/32/69 124/30/124 68/31/68
f 69/32/69 125/33/125 124/30/124
f 123/63/123 124/30/124 125/33/125
f 69/32/69 126/34/126 125/33/125
f 126/34/126 123/63/123 125/33/125
f 126/34/126 69/32/69 72/35/72
f 127/37/127 72/35/72 73/36/73
f 72/35/72 127/37/127 126/34/126
f 123/63/123 126/34/126 128/64/128
f 127/37/127 128/64/128 126/34/126
f 129/39/129 123/63/123 128/64/128
f 128/64/128 127/37/127 130/40/130
f 79/42/79 129/39/129 128/64/128
f 130/40/130 79/42/79 128/64/128
f 129/39/129 79/42/79 80/43/80
f 79/42/79 130/40/130 81/44/81
f 80/43/80 131/65/131 129/39/129
f 131/65/131 123/63/123 129/39/129
f 123/63/123 131/65/131 122/28/122
f 131/65/131 80/43/80 82/45/82
f 122/28/122 131/65/131 132/61/132
f 132/61/132 2/2/2 122/28/122
f 2/2/2 132/61/132 133/60/133
f 134/58/134 131/65/131 82/45/82
f 135/58/135 132/61/132 131/65/131
f 133/60/133 132/61/132 135/58/135
f 82/45/82 96/59/96 134/58/134
f 135/58/135 136/59/136 133/60/133
f 137/46/137 81/44/81 130/40/130
f 137/46/137 84/47/84 81/44/81
f 137/46/137 85/48/85 84/47/84
f 130/40/130 138/49/138 137/46/137
f 127/37/127 138/49/138 130/40/130
f 87/50/87 138/49/138 127/37/127
f 138/49/138 87/50/87 88/51/88
f 85/48/85 137/46/137 139/66/139
f 139/66/139 90/53/90 85/48/85
f 140/54/140 90/53/90 139/66/139
f 141/55/141 137/46/137 138/49/138
f 137/46/137 141/55/141 139/66/139
f 138/49/138 88/51/88 141/55/141
f 139/66/139 141/55/141 140/54/140
f 141/55/141 88/51/88 142/56/142
f 141/55/141 143/57/143 140/54/140
f 142/56/142 143/57/143 141/55/141
