# Blender 4.1.1
# www.blender.org
mtllib 12.mtl
o Object_7
v -0.112651 0.164320 -0.000153
v -0.169723 0.219979 -0.000385
v -0.137349 0.181111 -0.040174
v 0.042797 0.003977 -0.089081
v 0.032406 0.017408 -0.080702
v 0.070299 0.001470 -0.064837
v 0.021592 0.040776 0.089701
v 0.047142 0.030446 0.065393
v 0.015497 0.056635 0.081341
v -0.136951 0.184905 0.039477
v 0.014023 0.130827 -0.039813
v 0.076631 0.150847 0.000082
v -0.071177 0.131089 -0.039663
v -0.016357 0.069325 -0.064151
v -0.071404 0.072011 -0.064110
v 0.004514 0.019791 -0.080636
v 0.032406 0.017408 -0.080702
v -0.015106 0.077056 -0.097088
v -0.015666 0.069480 -0.064138
v -0.010766 0.009203 -0.080831
v 0.032389 0.017745 -0.097990
v 0.068993 0.001896 -0.113451
v 0.070299 0.001470 -0.064837
v -0.010766 0.009203 -0.080831
v 0.042797 0.003977 -0.089081
v 0.070299 0.001470 -0.064837
v 0.011819 0.006774 -0.099379
v 0.011531 0.143029 0.039923
v -0.066823 0.165999 0.040016
v -0.017178 0.118971 0.064850
v -0.072072 0.130636 0.064758
v -0.010522 0.066964 0.081341
v 0.015497 0.056635 0.081341
v -0.015549 0.120366 0.064867
v -0.012746 0.127451 0.097812
v -0.028207 0.061234 0.081578
v 0.015620 0.056959 0.098629
v 0.046132 0.031220 0.114010
v 0.047142 0.030446 0.065393
v 0.021592 0.040776 0.089701
v -0.028207 0.061234 0.081578
v 0.047142 0.030446 0.065393
v -0.007237 0.052389 0.100073
v 0.068993 0.001896 -0.113451
v 0.011819 0.006774 -0.099379
v 0.032389 0.017745 -0.097990
v 0.068993 0.001896 -0.113451
v 0.012887 0.019394 -0.099151
v -0.010766 0.009203 -0.080831
v 0.004514 0.019791 -0.080636
v -0.015106 0.077056 -0.097088
v 0.004514 0.019791 -0.080636
v -0.052704 0.079972 -0.099311
v 0.012887 0.019394 -0.099151
v -0.052789 0.079927 -0.099313
v -0.070812 0.072516 -0.064083
v -0.015963 0.076880 -0.097101
v -0.018285 0.068878 -0.064199
v -0.043626 0.140845 -0.098885
v 0.013810 0.141992 -0.095164
v 0.014526 0.141388 -0.095126
v 0.076543 0.169018 -0.083979
v -0.018852 0.191000 -0.095809
v -0.094822 0.185199 -0.091607
v -0.104497 0.233387 -0.088928
v 0.011309 0.245073 -0.110950
v 0.114610 0.213327 -0.076278
v 0.144554 0.195192 0.000346
v 0.173254 0.269760 0.000107
v 0.136421 0.262899 -0.083463
v 0.132549 0.323086 -0.059747
v 0.160968 0.316042 -0.003410
v 0.166730 0.392647 -0.004027
v 0.147457 0.391763 -0.026533
v 0.072746 0.331415 -0.067551
v 0.000236 0.322058 -0.075386
v 0.122172 0.410587 -0.025586
v -0.100069 0.310112 -0.082747
v 0.055493 0.346420 0.000805
v -0.023776 0.343638 0.000475
v 0.095603 0.415152 -0.001097
v -0.138397 0.320183 0.000445
v 0.133533 0.437800 -0.036413
v 0.119868 0.449358 -0.002471
v 0.149011 0.471255 -0.003944
v 0.169737 0.410846 -0.037768
v 0.166730 0.392647 -0.004027
v 0.197887 0.402252 -0.005488
v 0.162996 0.459761 -0.030622
v 0.164931 0.479788 -0.004718
v 0.194126 0.469762 -0.005914
v 0.199478 0.432862 -0.025672
v 0.231378 0.417108 -0.007090
v 0.211157 0.452886 -0.006514
v -0.162372 0.307345 -0.037595
v -0.221714 0.316813 0.000242
v -0.162642 0.308089 -0.037694
v -0.194458 0.251235 -0.000254
v -0.221987 0.317541 0.000095
v -0.157075 0.258636 -0.043679
v 0.046132 0.031220 0.114010
v 0.015620 0.056959 0.098629
v -0.007237 0.052389 0.100073
v 0.046132 0.031220 0.114010
v -0.002574 0.064164 0.099836
v -0.028207 0.061234 0.081578
v -0.010522 0.066964 0.081341
v -0.012746 0.127451 0.097812
v -0.048749 0.139786 0.100097
v -0.010522 0.066964 0.081341
v -0.002574 0.064164 0.099836
v -0.048855 0.139674 0.100096
v -0.070465 0.133048 0.064788
v -0.014313 0.126199 0.097797
v -0.021882 0.114405 0.064785
v -0.035380 0.178962 0.099373
v 0.012337 0.157283 0.095383
v 0.014146 0.159141 0.095438
v 0.073965 0.171407 0.084312
v -0.017719 0.200153 0.095992
v -0.092634 0.199026 0.091378
v -0.103267 0.237351 0.088849
v 0.012372 0.246045 0.111207
v 0.114206 0.212548 0.076141
v 0.137624 0.262050 0.081913
v 0.135911 0.324638 0.054716
v 0.149507 0.392171 0.020096
v 0.076570 0.333612 0.066682
v 0.001489 0.321523 0.075786
v 0.124222 0.410995 0.021043
v -0.100078 0.309000 0.083646
v -0.157322 0.258076 0.043474
v -0.194458 0.251235 -0.000254
v -0.162470 0.306831 0.038199
v -0.162856 0.307602 0.038094
v -0.221987 0.317541 0.000095
v 0.136467 0.438384 0.030354
v 0.172672 0.411431 0.028998
v 0.165292 0.460218 0.021617
v 0.194126 0.469762 -0.005914
v 0.201220 0.433209 0.013956
v 0.231378 0.417108 -0.007090
v 0.211157 0.452886 -0.006514
vn -0.8840 -0.4480 0.1338
vn -0.9001 -0.4357 0.0003
vn -0.9593 -0.1606 -0.2322
vn 0.6405 0.7679 -0.0076
vn 0.7394 0.6654 -0.1025
vn 0.5052 0.7031 -0.5004
vn 0.8348 0.5505 0.0057
vn 0.6878 0.5273 0.4989
vn 0.9002 0.4237 0.1004
vn -0.9026 -0.2393 0.3579
vn -0.1603 -0.9822 -0.0978
vn 0.7114 -0.7025 0.0197
vn 0.3803 -0.5758 -0.7238
vn -0.1317 -0.8533 0.5046
vn 0.0273 -0.5562 0.8306
vn -0.0074 -0.1788 0.9839
vn -0.0888 0.3399 0.9363
vn 0.7561 0.6399 0.1370
vn 0.7502 0.6416 0.1603
vn -0.0508 0.2521 0.9664
vn 0.7352 0.6621 0.1453
vn 0.5124 0.7048 0.4906
vn -0.1088 0.5594 0.8217
vn -0.0953 -0.9954 0.0114
vn -0.0921 -0.9957 0.0007
vn -0.0962 -0.9953 0.0062
vn -0.0932 -0.9956 0.0100
vn -0.3978 -0.8542 0.3348
vn 0.4175 -0.3081 0.8549
vn -0.3389 -0.8279 -0.4470
vn -0.0790 -0.6951 -0.7146
vn -0.0563 -0.1779 -0.9824
vn 0.0103 0.3523 -0.9358
vn 0.9030 0.3979 -0.1624
vn 0.9083 0.3946 -0.1392
vn 0.0217 0.2563 -0.9664
vn 0.8946 0.4219 -0.1474
vn 0.6928 0.5271 -0.4922
vn 0.0552 0.5672 -0.8218
vn -0.3755 -0.9268 -0.0000
vn -0.3785 -0.9255 -0.0107
vn -0.3792 -0.9253 -0.0054
vn -0.3765 -0.9264 -0.0093
vn -0.0871 -0.9962 -0.0086
vn -0.3453 0.1360 -0.9286
vn -0.0862 0.2970 -0.9510
vn -0.1780 0.4450 -0.8777
vn -0.1588 0.1399 -0.9773
vn -0.6423 0.5702 -0.5121
vn -0.5470 0.7943 -0.2644
vn -0.1452 0.5022 -0.8525
vn -0.6676 -0.6913 -0.2765
vn -0.7776 -0.4898 -0.3942
vn -0.6639 -0.6913 -0.2853
vn -0.0911 0.3716 -0.9239
vn -0.9406 -0.1235 -0.3162
vn 0.5553 0.6441 0.5261
vn 0.6219 0.4975 0.6048
vn -0.5670 0.6869 0.4546
vn 0.9917 -0.0846 0.0968
vn -0.2165 0.9405 -0.2619
vn 0.7069 -0.2262 -0.6701
vn 0.2386 0.6508 -0.7208
vn -0.5432 0.4061 -0.7349
vn -0.5443 0.0726 -0.8358
vn -0.0893 -0.0250 -0.9957
vn 0.6906 -0.2923 -0.6615
vn 0.8368 -0.5475 -0.0073
vn 0.8625 -0.5061 -0.0001
vn 0.5867 -0.3656 -0.7226
vn 0.3225 -0.5170 -0.7929
vn 0.3491 -0.9323 0.0948
vn 0.2461 -0.9692 -0.0024
vn 0.3938 -0.3392 -0.8543
vn -0.6678 -0.7386 -0.0917
vn -0.5577 0.1515 -0.8161
vn -0.4099 0.1085 -0.9057
vn -0.3586 0.5999 -0.7153
vn -0.6417 -0.7254 0.2491
vn -0.7746 0.6247 0.0985
vn -0.8759 0.4811 0.0367
vn -0.2020 0.9794 0.0049
vn -0.4017 0.2814 -0.8715
vn -0.7200 0.6935 0.0255
vn -0.5163 0.8563 0.0151
vn 0.2463 -0.3469 -0.9050
vn 0.7356 -0.6769 -0.0264
vn 0.5161 -0.8564 -0.0154
vn 0.0092 0.5392 -0.8421
vn -0.0656 0.9978 -0.0060
vn 0.3858 0.5735 -0.7226
vn 0.4663 0.0495 -0.8832
vn 0.4262 -0.1822 -0.8861
vn 0.5041 0.4252 -0.7517
vn -0.1326 0.9572 -0.2574
vn -0.0525 0.9986 0.0039
vn -0.6122 -0.0520 -0.7890
vn -0.6456 -0.2891 -0.7068
vn -0.5486 -0.2235 -0.8056
vn -0.7054 -0.1387 -0.6951
vn -0.3708 -0.9287 0.0093
vn 0.0054 0.3090 0.9510
vn -0.2891 0.2296 0.9294
vn -0.0399 0.4772 0.8779
vn -0.1098 0.1790 0.9777
vn -0.4492 0.7312 0.5134
vn -0.2939 0.9183 0.2653
vn 0.0078 0.5411 0.8410
vn -0.8713 -0.2480 0.4235
vn -0.8251 -0.4814 0.2958
vn -0.8301 -0.4800 0.2837
vn -0.0203 0.4151 0.9095
vn -0.9462 0.1149 0.3026
vn 0.6803 0.4060 -0.6102
vn 0.6396 0.1340 -0.7569
vn -0.4542 0.8051 -0.3815
vn 0.9514 -0.2901 -0.1033
vn 0.0521 0.9795 0.1946
vn 0.7257 -0.2792 0.6288
vn -0.2407 0.6843 0.6883
vn -0.5257 0.2990 0.7964
vn -0.5309 0.1025 0.8412
vn -0.0344 -0.0118 0.9993
vn 0.6933 -0.2638 0.6706
vn 0.6153 -0.3155 0.7224
vn 0.0895 -0.2473 0.9648
vn 0.4386 -0.3509 0.8273
vn -0.8595 0.1437 -0.4906
vn -0.7358 0.5866 0.3383
vn -0.3327 0.1101 0.9366
vn -0.3549 0.5903 0.7249
vn -0.7031 -0.1551 0.6940
vn -0.6496 -0.2981 0.6994
vn -0.1342 0.9546 0.2660
vn -0.6127 -0.0609 0.7880
vn -0.5532 -0.2339 0.7996
vn -0.3239 0.2970 0.8983
vn 0.3250 -0.3313 0.8858
vn 0.0827 0.5540 0.8284
vn 0.4474 0.5860 0.6756
vn 0.5421 0.0645 0.8378
vn 0.5027 -0.1671 0.8482
vn 0.5680 0.4380 0.6968
vt 0.720701 0.653630
vt 0.799110 0.513958
vt 0.755933 0.599506
vt 0.451605 0.930846
vt 0.462961 0.909486
vt 0.424431 0.931143
vt 0.451605 0.930846
vt 0.441665 0.719581
vt 0.388270 0.687645
vt 0.557982 0.719581
vt 0.491715 0.796377
vt 0.560897 0.796377
vt 0.490565 0.909486
vt 0.491728 0.786597
vt 0.504688 0.929750
vt 0.462966 0.908893
vt 0.425638 0.930550
vt 0.482252 0.930577
vt 0.491715 0.796377
vt 0.560897 0.796377
vt 0.482262 0.908921
vt 0.540088 0.786636
vt 0.522995 0.703204
vt 0.441686 0.703138
vt 0.388312 0.654386
vt 0.549342 0.599506
vt 0.681405 0.596716
vt 0.685950 0.509722
vt 0.485432 0.513958
vt 0.315774 0.592335
vt 0.278079 0.618557
vt 0.183565 0.502934
vt 0.268280 0.513958
vt 0.269814 0.385793
vt 0.156462 0.409926
vt 0.156267 0.291363
vt 0.226607 0.267834
vt 0.368049 0.351622
vt 0.485432 0.375300
vt 0.262866 0.227584
vt 0.658185 0.377549
vt 0.398522 0.313389
vt 0.557836 0.345086
vt 0.344827 0.181365
vt 0.764795 0.306485
vt 0.255710 0.132463
vt 0.316292 0.117749
vt 0.291898 0.055006
vt 0.203792 0.190095
vt 0.185918 0.188314
vt 0.134479 0.127174
vt 0.192391 0.037306
vt 0.236993 0.021594
vt 0.132597 0.010777
vt 0.117627 0.093966
vt 0.077042 0.125425
vt 0.112945 0.020945
vt 0.764990 0.367065
vt 0.895622 0.289304
vt 0.833484 0.454897
vt 0.768009 0.452170
vt 0.540088 0.786636
vt 0.485432 0.513958
vt 0.368049 0.351622
vt 0.658185 0.377549
vt 0.189960 0.038278
s 1
usemtl Chicken1_Mat
f 1/1/1 2/2/2 3/3/3
f 4/4/4 5/5/5 6/6/6
f 7/7/7 8/6/8 9/5/9
f 10/3/10 2/2/2 1/1/1
f 1/1/1 11/8/11 12/9/12
f 11/8/11 1/1/1 13/10/13
f 13/10/13 14/11/14 11/8/11
f 14/11/14 13/10/13 15/12/15
f 15/12/15 16/13/16 14/11/14
f 14/11/14 16/13/16 17/5/17
f 5/5/5 18/14/18 19/11/19
f 17/5/17 16/13/16 20/15/20
f 18/14/18 5/5/5 21/16/21
f 5/5/5 4/4/4 21/16/21
f 21/16/21 4/4/4 22/17/22
f 20/15/20 23/6/23 17/5/17
f 24/15/24 25/4/25 26/6/26
f 25/4/25 24/15/24 27/18/27
f 28/8/28 1/1/1 12/9/12
f 1/1/1 28/8/28 29/10/29
f 30/19/30 29/10/29 28/8/28
f 29/10/29 30/19/30 31/20/31
f 32/13/32 31/20/31 30/19/30
f 30/19/30 33/5/33 32/13/32
f 9/5/9 34/19/34 35/14/35
f 33/5/33 36/15/36 32/13/32
f 35/14/35 37/16/37 9/5/9
f 9/5/9 37/16/37 7/7/7
f 37/16/37 38/17/38 7/7/7
f 39/6/39 36/15/36 33/5/33
f 40/7/40 41/15/41 42/6/42
f 41/15/41 40/7/40 43/18/43
f 27/18/27 44/17/44 25/4/25
f 45/18/45 46/16/46 47/17/47
f 46/16/46 45/18/45 48/21/48
f 49/15/49 48/21/48 45/18/45
f 48/21/48 49/15/49 50/13/50
f 48/21/48 51/14/51 46/16/46
f 52/13/52 53/22/53 54/21/54
f 51/14/51 48/21/48 55/22/55
f 53/22/53 52/13/52 56/12/56
f 13/10/13 53/22/53 56/12/56
f 57/14/57 11/8/11 58/11/58
f 59/23/59 53/22/53 13/10/13
f 59/23/59 51/14/51 55/22/55
f 3/3/3 13/10/13 1/1/1
f 3/3/3 59/23/59 13/10/13
f 11/8/11 57/14/57 60/24/60
f 61/24/61 51/14/51 59/23/59
f 62/25/62 11/8/11 60/24/60
f 62/25/62 12/9/12 11/8/11
f 59/23/59 63/26/63 61/24/61
f 63/26/63 62/25/62 61/24/61
f 59/23/59 3/3/3 64/27/64
f 64/27/64 63/26/63 59/23/59
f 3/3/3 65/28/65 64/27/64
f 65/28/65 63/26/63 64/27/64
f 65/28/65 3/3/3 2/2/2
f 62/25/62 63/26/63 66/29/66
f 63/26/63 65/28/65 66/29/66
f 67/30/67 12/9/12 62/25/62
f 66/29/66 67/30/67 62/25/62
f 12/9/12 67/30/67 68/31/68
f 67/30/67 69/32/69 68/31/68
f 69/32/69 67/30/67 70/33/70
f 67/30/67 66/29/66 70/33/70
f 71/34/71 69/32/69 70/33/70
f 66/29/66 71/34/71 70/33/70
f 69/32/69 71/34/71 72/35/72
f 73/36/73 72/35/72 74/37/74
f 72/35/72 71/34/71 74/37/74
f 71/34/71 66/29/66 75/38/75
f 75/38/75 74/37/74 71/34/71
f 75/38/75 66/29/66 76/39/76
f 74/37/74 75/38/75 77/40/77
f 66/29/66 78/41/78 76/39/76
f 78/41/78 66/29/66 65/28/65
f 76/39/76 79/42/79 75/38/75
f 79/42/79 77/40/77 75/38/75
f 79/42/79 76/39/76 80/43/80
f 78/41/78 80/43/80 76/39/76
f 77/40/77 79/42/79 81/44/81
f 80/43/80 78/41/78 82/45/82
f 81/44/81 83/46/83 77/40/77
f 83/46/83 81/44/81 84/47/84
f 83/46/83 84/47/84 85/48/85
f 77/40/77 86/49/86 74/37/74
f 86/49/86 77/40/77 83/46/83
f 86/49/86 87/50/87 74/37/74
f 86/49/86 88/51/88 87/50/87
f 85/48/85 89/52/89 83/46/83
f 90/53/90 89/52/89 85/48/85
f 91/54/91 89/52/89 90/53/90
f 83/46/83 92/55/92 86/49/86
f 92/55/92 83/46/83 89/52/89
f 92/55/92 88/51/88 86/49/86
f 92/55/92 89/52/89 91/54/91
f 88/51/88 92/55/92 93/56/93
f 91/54/91 94/57/94 92/55/92
f 94/57/94 93/56/93 92/55/92
f 95/58/95 82/45/82 78/41/78
f 82/45/82 95/58/95 96/59/96
f 97/58/97 98/60/98 99/59/99
f 97/58/97 78/41/78 100/61/100
f 98/60/98 97/58/97 100/61/100
f 78/41/78 65/28/65 100/61/100
f 100/61/100 2/2/2 98/60/98
f 2/2/2 100/61/100 65/28/65
f 101/17/101 43/18/43 40/7/40
f 102/16/102 103/18/103 104/17/104
f 103/18/103 102/16/102 105/21/105
f 105/21/105 106/15/106 103/18/103
f 106/15/106 105/21/105 107/13/107
f 108/14/108 105/21/105 102/16/102
f 109/62/109 110/13/110 111/21/111
f 105/21/105 108/14/108 112/62/112
f 110/13/110 109/62/109 113/20/113
f 29/10/29 113/20/113 109/62/109
f 28/8/28 114/14/114 115/19/115
f 116/23/116 29/10/29 109/62/109
f 116/23/116 112/62/112 108/14/108
f 1/1/1 29/10/29 10/3/10
f 116/23/116 10/3/10 29/10/29
f 114/14/114 28/8/28 117/24/117
f 108/14/108 118/24/118 116/23/116
f 117/24/117 28/8/28 119/25/119
f 12/9/12 119/25/119 28/8/28
f 116/23/116 118/24/118 120/26/120
f 119/25/119 120/26/120 118/24/118
f 10/3/10 116/23/116 121/27/121
f 121/27/121 116/23/116 120/26/120
f 122/28/122 10/3/10 121/27/121
f 122/28/122 121/27/121 120/26/120
f 10/3/10 122/28/122 2/2/2
f 120/26/120 119/25/119 123/63/123
f 123/63/123 122/28/122 120/26/120
f 12/9/12 124/30/124 119/25/119
f 124/30/124 123/63/123 119/25/119
f 124/30/124 12/9/12 68/31/68
f 69/32/69 124/30/124 68/31/68
f 69/32/69 125/33/125 124/30/124
f 123/63/123 124/30/124 125/33/125
f 69/32/69 126/34/126 125/33/125
f 126/34/126 123/63/123 125/33/125
f 126/34/126 69/32/69 72/35/72
f 127/37/127 72/35/72 73/36/73
f 72/35/72 127/37/127 126/34/126
f 123/63/123 126/34/126 128/64/128
f 127/37/127 128/64/128 126/34/126
f 129/39/129 123/63/123 128/64/128
f 128/64/128 127/37/127 130/40/130
f 79/42/79 129/39/129 128/64/128
f 130/40/130 79/42/79 128/64/128
f 129/39/129 79/42/79 80/43/80
f 79/42/79 130/40/130 81/44/81
f 80/43/80 131/65/131 129/39/129
f 131/65/131 123/63/123 129/39/129
f 123/63/123 131/65/131 122/28/122
f 131/65/131 80/43/80 82/45/82
f 122/28/122 131/65/131 132/61/132
f 132/61/132 2/2/2 122/28/122
f 2/2/2 132/61/132 133/60/133
f 134/58/134 131/65/131 82/45/82
f 135/58/135 132/61/132 131/65/131
f 133/60/133 132/61/132 135/58/135
f 82/45/82 96/59/96 134/58/134
f 135/58/135 136/59/136 133/60/133
f 137/46/137 81/44/81 130/40/130
f 137/46/137 84/47/84 81/44/81
f 137/46/137 85/48/85 84/47/84
f 130/40/130 138/49/138 137/46/137
f 127/37/127 138/49/138 130/40/130
f 87/50/87 138/49/138 127/37/127
f 138/49/138 87/50/87 88/51/88
f 85/48/85 137/46/137 139/66/139
f 139/66/139 90/53/90 85/48/85
f 140/54/140 90/53/90 139/66/139
f 141/55/141 137/46/137 138/49/138
f 137/46/137 141/55/141 139/66/139
f 138/49/138 88/51/88 141/55/141
f 139/66/139 141/55/141 140/54/140
f 141/55/141 88/51/88 142/56/142
f 141/55/141 143/57/143 140/54/140
f 142/56/142 143/57/143 141/55/141
