# Blender 4.1.1
# www.blender.org
mtllib 13.mtl
o Object_7
v -0.113235 0.164270 -0.000306
v -0.169629 0.219528 -0.000080
v -0.137950 0.181978 -0.040334
v 0.025671 0.003816 -0.088974
v 0.016596 0.018159 -0.080579
v 0.052884 -0.001226 -0.064799
v 0.031453 0.034306 0.089991
v 0.057436 0.025121 0.065682
v 0.024660 0.049879 0.081631
v -0.136582 0.183656 0.039318
v 0.009751 0.131094 -0.040465
v 0.076304 0.150321 -0.001202
v -0.076169 0.136011 -0.039584
v -0.027099 0.074196 -0.063970
v -0.081535 0.080795 -0.063892
v -0.010954 0.023127 -0.080444
v 0.016596 0.018159 -0.080579
v -0.025204 0.081961 -0.096889
v -0.026380 0.074487 -0.063932
v -0.027153 0.014006 -0.080591
v 0.016565 0.018488 -0.097867
v 0.051495 -0.000706 -0.113410
v 0.052884 -0.001226 -0.064799
v -0.027153 0.014006 -0.080591
v 0.025671 0.003816 -0.088974
v 0.052884 -0.001226 -0.064799
v -0.004940 0.009478 -0.099196
v 0.014066 0.140689 0.039357
v -0.064171 0.160437 0.040091
v -0.010831 0.110961 0.065111
v -0.066564 0.121290 0.064921
v -0.001792 0.059043 0.081630
v 0.024660 0.049879 0.081631
v -0.009184 0.112169 0.065157
v -0.006699 0.119371 0.098101
v -0.019205 0.052534 0.081868
v 0.024768 0.050208 0.098918
v 0.056393 0.025849 0.114299
v 0.057436 0.025121 0.065682
v 0.031453 0.034306 0.089991
v -0.019205 0.052534 0.081868
v 0.057436 0.025121 0.065682
v 0.002136 0.044628 0.100363
v 0.051495 -0.000706 -0.113410
v -0.004940 0.009478 -0.099196
v 0.016565 0.018488 -0.097867
v 0.051495 -0.000706 -0.113410
v -0.002702 0.021943 -0.098980
v -0.027153 0.014006 -0.080591
v -0.010954 0.023127 -0.080444
v -0.025204 0.081961 -0.096889
v -0.010954 0.023127 -0.080444
v -0.062394 0.088192 -0.099030
v -0.002702 0.021943 -0.098980
v -0.062486 0.088122 -0.099035
v -0.080955 0.081594 -0.063829
v -0.026119 0.081643 -0.096928
v -0.028999 0.073323 -0.064119
v -0.048940 0.145501 -0.098774
v 0.008794 0.142893 -0.095680
v 0.009120 0.142205 -0.095501
v 0.073847 0.169204 -0.085110
v -0.021166 0.192528 -0.096159
v -0.096800 0.187938 -0.091712
v -0.105276 0.234929 -0.088657
v 0.010341 0.246493 -0.111120
v 0.113658 0.214128 -0.077370
v 0.144739 0.195946 -0.001465
v 0.173215 0.270174 -0.000670
v 0.136088 0.263805 -0.084023
v 0.132860 0.322048 -0.059495
v 0.161089 0.314364 -0.003120
v 0.168188 0.390870 -0.003605
v 0.149011 0.390427 -0.026207
v 0.073228 0.331500 -0.067470
v 0.000062 0.322902 -0.074764
v 0.124150 0.409813 -0.025375
v -0.100673 0.311116 -0.081592
v 0.055976 0.346905 0.000751
v -0.023700 0.343654 0.001453
v 0.097569 0.414962 -0.001014
v -0.138619 0.319902 0.001954
v 0.136171 0.436769 -0.036131
v 0.122601 0.448616 -0.002251
v 0.152235 0.469855 -0.003568
v 0.171769 0.409012 -0.037322
v 0.168188 0.390870 -0.003605
v 0.199559 0.399775 -0.004908
v 0.166090 0.458062 -0.030183
v 0.168346 0.478029 -0.004260
v 0.197314 0.467353 -0.005317
v 0.201935 0.430350 -0.025068
v 0.233383 0.413878 -0.006338
v 0.213966 0.450099 -0.005843
v -0.162774 0.307508 -0.036115
v -0.221947 0.316238 0.002177
v -0.163091 0.308197 -0.036144
v -0.194481 0.250684 0.000643
v -0.222257 0.316871 0.002108
v -0.157371 0.258858 -0.042879
v 0.056393 0.025849 0.114299
v 0.024768 0.050208 0.098918
v 0.002136 0.044628 0.100363
v 0.056393 0.025849 0.114299
v 0.006272 0.056599 0.100125
v -0.019205 0.052534 0.081868
v -0.001792 0.059043 0.081630
v -0.006699 0.119371 0.098101
v -0.043269 0.130307 0.100371
v -0.001792 0.059043 0.081630
v 0.006272 0.056599 0.100125
v -0.043374 0.130207 0.100368
v -0.064936 0.123427 0.064989
v -0.008270 0.118273 0.098064
v -0.015640 0.107010 0.064934
v -0.032008 0.172753 0.099534
v 0.015725 0.154222 0.094975
v 0.017757 0.155790 0.095179
v 0.076145 0.170301 0.083273
v -0.015947 0.197746 0.095696
v -0.091176 0.195789 0.091275
v -0.102569 0.235300 0.089113
v 0.013204 0.244437 0.111044
v 0.115103 0.211813 0.075093
v 0.137913 0.260880 0.081348
v 0.135948 0.323159 0.054988
v 0.150840 0.390770 0.020432
v 0.076729 0.333102 0.066828
v 0.001813 0.320628 0.076386
v 0.125978 0.410156 0.021264
v -0.099816 0.307705 0.084758
v -0.157124 0.257032 0.044258
v -0.194481 0.250684 0.000643
v -0.162461 0.305925 0.039659
v -0.162876 0.306609 0.039628
v -0.222257 0.316871 0.002108
v 0.138789 0.437260 0.030650
v 0.174387 0.409502 0.029458
v 0.168138 0.458446 0.022067
v 0.197314 0.467353 -0.005317
v 0.203489 0.430642 0.014569
v 0.233383 0.413878 -0.006338
v 0.213966 0.450099 -0.005843
vn -0.8880 -0.4492 0.0981
vn -0.8997 -0.4365 -0.0010
vn -0.9597 -0.1572 -0.2332
vn 0.7091 0.7050 -0.0099
vn 0.7979 0.5936 -0.1049
vn 0.5671 0.6528 -0.5023
vn 0.8096 0.5870 0.0057
vn 0.6637 0.5573 0.4989
vn 0.8805 0.4633 0.1004
vn -0.9066 -0.2307 0.3533
vn -0.2271 -0.9693 -0.0947
vn 0.7148 -0.6994 -0.0019
vn 0.3131 -0.5633 -0.7646
vn -0.2041 -0.8397 0.5032
vn -0.0162 -0.5679 0.8230
vn -0.0209 -0.1773 0.9839
vn -0.0544 0.3473 0.9362
vn 0.8127 0.5669 0.1346
vn 0.8070 0.5691 0.1578
vn -0.0246 0.2563 0.9663
vn 0.7940 0.5909 0.1429
vn 0.5770 0.6544 0.4887
vn -0.0541 0.5675 0.8216
vn -0.1875 -0.9822 0.0124
vn -0.1844 -0.9829 0.0017
vn -0.1883 -0.9821 0.0072
vn -0.1854 -0.9826 0.0110
vn -0.3262 -0.8877 0.3250
vn 0.4911 -0.3594 0.7935
vn -0.2940 -0.8365 -0.4624
vn -0.0520 -0.6799 -0.7315
vn -0.0488 -0.1797 -0.9825
vn -0.0053 0.3524 -0.9358
vn 0.8844 0.4376 -0.1624
vn 0.8898 0.4345 -0.1392
vn 0.0103 0.2570 -0.9664
vn 0.8750 0.4612 -0.1474
vn 0.6687 0.5574 -0.4922
vn 0.0300 0.5691 -0.8218
vn -0.3340 -0.9426 -0.0000
vn -0.3370 -0.9414 -0.0107
vn -0.3378 -0.9412 -0.0054
vn -0.3350 -0.9422 -0.0093
vn -0.1794 -0.9837 -0.0076
vn -0.3336 0.1670 -0.9278
vn -0.0607 0.3032 -0.9510
vn -0.1382 0.4592 -0.8775
vn -0.1476 0.1536 -0.9771
vn -0.5878 0.6272 -0.5109
vn -0.4714 0.8416 -0.2636
vn -0.1037 0.5111 -0.8532
vn -0.7277 -0.6276 -0.2768
vn -0.8234 -0.4114 -0.3908
vn -0.7252 -0.6278 -0.2826
vn -0.0618 0.3763 -0.9244
vn -0.9490 -0.0362 -0.3132
vn 0.6236 0.5850 0.5186
vn 0.6809 0.4277 0.5946
vn -0.5154 0.7360 0.4390
vn 0.9892 -0.1265 0.0741
vn -0.1747 0.9474 -0.2680
vn 0.6920 -0.2342 -0.6828
vn 0.2705 0.6389 -0.7202
vn -0.5395 0.4237 -0.7276
vn -0.5463 0.0867 -0.8331
vn -0.0957 -0.0130 -0.9953
vn 0.6826 -0.2896 -0.6709
vn 0.8399 -0.5421 -0.0252
vn 0.8644 -0.5027 -0.0125
vn 0.5842 -0.3586 -0.7281
vn 0.3322 -0.5152 -0.7901
vn 0.3542 -0.9321 0.0760
vn 0.2290 -0.9734 -0.0018
vn 0.3894 -0.3463 -0.8535
vn -0.6792 -0.7285 -0.0899
vn -0.5666 0.1628 -0.8077
vn -0.4034 0.1168 -0.9075
vn -0.3632 0.6092 -0.7049
vn -0.6401 -0.7276 0.2466
vn -0.7749 0.6213 0.1161
vn -0.8657 0.4996 0.0322
vn -0.2048 0.9786 0.0198
vn -0.3910 0.2907 -0.8733
vn -0.7044 0.7095 0.0223
vn -0.4970 0.8676 0.0130
vn 0.2429 -0.3520 -0.9039
vn 0.7203 -0.6932 -0.0232
vn 0.4969 -0.8677 -0.0133
vn 0.0255 0.5392 -0.8418
vn -0.0432 0.9990 -0.0058
vn 0.4022 0.5651 -0.7204
vn 0.4716 0.0394 -0.8809
vn 0.4264 -0.1913 -0.8841
vn 0.5172 0.4141 -0.7490
vn -0.1373 0.9602 -0.2434
vn -0.0559 0.9983 0.0184
vn -0.6164 -0.0429 -0.7863
vn -0.6485 -0.2813 -0.7073
vn -0.5523 -0.2139 -0.8057
vn -0.7089 -0.1315 -0.6929
vn -0.3292 -0.9442 0.0093
vn -0.0083 0.3090 0.9510
vn -0.2990 0.2166 0.9294
vn -0.0611 0.4750 0.8779
vn -0.1177 0.1740 0.9777
vn -0.4813 0.7105 0.5134
vn -0.3344 0.9043 0.2653
vn -0.0421 0.5392 0.8411
vn -0.8470 -0.3082 0.4331
vn -0.8041 -0.5166 0.2943
vn -0.8084 -0.5157 0.2840
vn -0.0473 0.4135 0.9093
vn -0.9473 0.0463 0.3169
vn 0.6017 0.4967 -0.6255
vn 0.5903 0.2287 -0.7741
vn -0.5077 0.7720 -0.3825
vn 0.9639 -0.2333 -0.1284
vn -0.0104 0.9814 0.1919
vn 0.7401 -0.2635 0.6188
vn -0.3266 0.6499 0.6863
vn -0.5090 0.3011 0.8064
vn -0.5266 0.0900 0.8453
vn -0.0272 -0.0210 0.9994
vn 0.7016 -0.2654 0.6613
vn 0.6211 -0.3207 0.7151
vn 0.0909 -0.2583 0.9618
vn 0.4268 -0.3591 0.8300
vn -0.8636 0.1399 -0.4844
vn -0.7351 0.5803 0.3505
vn -0.3352 0.1165 0.9349
vn -0.3524 0.5798 0.7347
vn -0.6987 -0.1665 0.6958
vn -0.6445 -0.3108 0.6986
vn -0.1361 0.9503 0.2802
vn -0.6076 -0.0745 0.7907
vn -0.5477 -0.2476 0.7992
vn -0.3216 0.3038 0.8968
vn 0.3132 -0.3389 0.8872
vn 0.0910 0.5517 0.8291
vn 0.4571 0.5755 0.6781
vn 0.5393 0.0520 0.8405
vn 0.4946 -0.1786 0.8505
vn 0.5742 0.4249 0.6998
vt 0.720701 0.653630
vt 0.799110 0.513958
vt 0.755933 0.599506
vt 0.451605 0.930846
vt 0.462961 0.909486
vt 0.424431 0.931143
vt 0.451605 0.930846
vt 0.441665 0.719581
vt 0.388270 0.687645
vt 0.557982 0.719581
vt 0.491715 0.796377
vt 0.560897 0.796377
vt 0.490565 0.909486
vt 0.491728 0.786597
vt 0.504688 0.929750
vt 0.462966 0.908893
vt 0.425638 0.930550
vt 0.482252 0.930577
vt 0.491715 0.796377
vt 0.560897 0.796377
vt 0.482262 0.908921
vt 0.540088 0.786636
vt 0.522995 0.703204
vt 0.441686 0.703138
vt 0.388312 0.654386
vt 0.549342 0.599506
vt 0.681405 0.596716
vt 0.685950 0.509722
vt 0.485432 0.513958
vt 0.315774 0.592335
vt 0.278079 0.618557
vt 0.183565 0.502934
vt 0.268280 0.513958
vt 0.269814 0.385793
vt 0.156462 0.409926
vt 0.156267 0.291363
vt 0.226607 0.267834
vt 0.368049 0.351622
vt 0.485432 0.375300
vt 0.262866 0.227584
vt 0.658185 0.377549
vt 0.398522 0.313389
vt 0.557836 0.345086
vt 0.344827 0.181365
vt 0.764795 0.306485
vt 0.255710 0.132463
vt 0.316292 0.117749
vt 0.291898 0.055006
vt 0.203792 0.190095
vt 0.185918 0.188314
vt 0.134479 0.127174
vt 0.192391 0.037306
vt 0.236993 0.021594
vt 0.132597 0.010777
vt 0.117627 0.093966
vt 0.077042 0.125425
vt 0.112945 0.020945
vt 0.764990 0.367065
vt 0.895622 0.289304
vt 0.833484 0.454897
vt 0.768009 0.452170
vt 0.540088 0.786636
vt 0.485432 0.513958
vt 0.368049 0.351622
vt 0.658185 0.377549
vt 0.189960 0.038278
s 1
usemtl Chicken1_Mat
f 1/1/1 2/2/2 3/3/3
f 4/4/4 5/5/5 6/6/6
f 7/7/7 8/6/8 9/5/9
f 10/3/10 2/2/2 1/1/1
f 1/1/1 11/8/11 12/9/12
f 11/8/11 1/1/1 13/10/13
f 13/10/13 14/11/14 11/8/11
f 14/11/14 13/10/13 15/12/15
f 15/12/15 16/13/16 14/11/14
f 14/11/14 16/13/16 17/5/17
f 5/5/5 18/14/18 19/11/19
f 17/5/17 16/13/16 20/15/20
f 18/14/18 5/5/5 21/16/21
f 5/5/5 4/4/4 21/16/21
f 21/16/21 4/4/4 22/17/22
f 20/15/20 23/6/23 17/5/17
f 24/15/24 25/4/25 26/6/26
f 25/4/25 24/15/24 27/18/27
f 28/8/28 1/1/1 12/9/12
f 1/1/1 28/8/28 29/10/29
f 30/19/30 29/10/29 28/8/28
f 29/10/29 30/19/30 31/20/31
f 32/13/32 31/20/31 30/19/30
f 30/19/30 33/5/33 32/13/32
f 9/5/9 34/19/34 35/14/35
f 33/5/33 36/15/36 32/13/32
f 35/14/35 37/16/37 9/5/9
f 9/5/9 37/16/37 7/7/7
f 37/16/37 38/17/38 7/7/7
f 39/6/39 36/15/36 33/5/33
f 40/7/40 41/15/41 42/6/42
f 41/15/41 40/7/40 43/18/43
f 27/18/27 44/17/44 25/4/25
f 45/18/45 46/16/46 47/17/47
f 46/16/46 45/18/45 48/21/48
f 49/15/49 48/21/48 45/18/45
f 48/21/48 49/15/49 50/13/50
f 48/21/48 51/14/51 46/16/46
f 52/13/52 53/22/53 54/21/54
f 51/14/51 48/21/48 55/22/55
f 53/22/53 52/13/52 56/12/56
f 13/10/13 53/22/53 56/12/56
f 57/14/57 11/8/11 58/11/58
f 59/23/59 53/22/53 13/10/13
f 59/23/59 51/14/51 55/22/55
f 3/3/3 13/10/13 1/1/1
f 3/3/3 59/23/59 13/10/13
f 11/8/11 57/14/57 60/24/60
f 61/24/61 51/14/51 59/23/59
f 62/25/62 11/8/11 60/24/60
f 62/25/62 12/9/12 11/8/11
f 59/23/59 63/26/63 61/24/61
f 63/26/63 62/25/62 61/24/61
f 59/23/59 3/3/3 64/27/64
f 64/27/64 63/26/63 59/23/59
f 3/3/3 65/28/65 64/27/64
f 65/28/65 63/26/63 64/27/64
f 65/28/65 3/3/3 2/2/2
f 62/25/62 63/26/63 66/29/66
f 63/26/63 65/28/65 66/29/66
f 67/30/67 12/9/12 62/25/62
f 66/29/66 67/30/67 62/25/62
f 12/9/12 67/30/67 68/31/68
f 67/30/67 69/32/69 68/31/68
f 69/32/69 67/30/67 70/33/70
f 67/30/67 66/29/66 70/33/70
f 71/34/71 69/32/69 70/33/70
f 66/29/66 71/34/71 70/33/70
f 69/32/69 71/34/71 72/35/72
f 73/36/73 72/35/72 74/37/74
f 72/35/72 71/34/71 74/37/74
f 71/34/71 66/29/66 75/38/75
f 75/38/75 74/37/74 71/34/71
f 75/38/75 66/29/66 76/39/76
f 74/37/74 75/38/75 77/40/77
f 66/29/66 78/41/78 76/39/76
f 78/41/78 66/29/66 65/28/65
f 76/39/76 79/42/79 75/38/75
f 79/42/79 77/40/77 75/38/75
f 79/42/79 76/39/76 80/43/80
f 78/41/78 80/43/80 76/39/76
f 77/40/77 79/42/79 81/44/81
f 80/43/80 78/41/78 82/45/82
f 81/44/81 83/46/83 77/40/77
f 83/46/83 81/44/81 84/47/84
f 83/46/83 84/47/84 85/48/85
f 77/40/77 86/49/86 74/37/74
f 86/49/86 77/40/77 83/46/83
f 86/49/86 87/50/87 74/37/74
f 86/49/86 88/51/88 87/50/87
f 85/48/85 89/52/89 83/46/83
f 90/53/90 89/52/89 85/48/85
f 91/54/91 89/52/89 90/53/90
f 83/46/83 92/55/92 86/49/86
f 92/55/92 83/46/83 89/52/89
f 92/55/92 88/51/88 86/49/86
f 92/55/92 89/52/89 91/54/91
f 88/51/88 92/55/92 93/56/93
f 91/54/91 94/57/94 92/55/92
f 94/57/94 93/56/93 92/55/92
f 95/58/95 82/45/82 78/41/78
f 82/45/82 95/58/95 96/59/96
f 97/58/97 98/60/98 99/59/99
f 97/58/97 78/41/78 100/61/100
f 98/60/98 97/58/97 100/61/100
f 78/41/78 65/28/65 100/61/100
f 100/61/100 2/2/2 98/60/98
f 2/2/2 100/61/100 65/28/65
f 101/17/101 43/18/43 40/7/40
f 102/16/102 103/18/103 104/17/104
f 103/18/103 102/16/102 105/21/105
f 105/21/105 106/15/106 103/18/103
f 106/15/106 105/21/105 107/13/107
f 108/14/108 105/21/105 102/16/102
f 109/62/109 110/13/110 111/21/111
f 105/21/105 108/14/108 112/62/112
f 110/13/110 109/62/109 113/20/113
f 29/10/29 113/20/113 109/62/109
f 28/8/28 114/14/114 115/19/115
f 116/23/116 29/10/29 109/62/109
f 116/23/116 112/62/112 108/14/108
f 1/1/1 29/10/29 10/3/10
f 116/23/116 10/3/10 29/10/29
f 114/14/114 28/8/28 117/24/117
f 108/14/108 118/24/118 116/23/116
f 117/24/117 28/8/28 119/25/119
f 12/9/12 119/25/119 28/8/28
f 116/23/116 118/24/118 120/26/120
f 119/25/119 120/26/120 118/24/118
f 10/3/10 116/23/116 121/27/121
f 121/27/121 116/23/116 120/26/120
f 122/28/122 10/3/10 121/27/121
f 122/28/122 121/27/121 120/26/120
f 10/3/10 122/28/122 2/2/2
f 120/26/120 119/25/119 123/63/123
f 123/63/123 122/28/122 120/26/120
f 12/9/12 124/30/124 119/25/119
f 124/30/124 123/63/123 119/25/119
f 124/30/124 12/9/12 68/31/68
f 69/32/69 124/30/124 68/31/68
f 69/32/69 125/33/125 124/30/124
f 123/63/123 124/30/124 125/33/125
f 69/32/69 126/34/126 125/33/125
f 126/34/126 123/63/123 125/33/125
f 126/34/126 69/32/69 72/35/72
f 127/37/127 72/35/72 73/36/73
f 72/35/72 127/37/127 126/34/126
f 123/63/123 126/34/126 128/64/128
f 127/37/127 128/64/128 126/34/126
f 129/39/129 123/63/123 128/64/128
f 128/64/128 127/37/127 130/40/130
f 79/42/79 129/39/129 128/64/128
f 130/40/130 79/42/79 128/64/128
f 129/39/129 79/42/79 80/43/80
f 79/42/79 130/40/130 81/44/81
f 80/43/80 131/65/131 129/39/129
f 131/65/131 123/63/123 129/39/129
f 123/63/123 131/65/131 122/28/122
f 131/65/131 80/43/80 82/45/82
f 122/28/122 131/65/131 132/61/132
f 132/61/132 2/2/2 122/28/122
f 2/2/2 132/61/132 133/60/133
f 134/58/134 131/65/131 82/45/82
f 135/58/135 132/61/132 131/65/131
f 133/60/133 132/61/132 135/58/135
f 82/45/82 96/59/96 134/58/134
f 135/58/135 136/59/136 133/60/133
f 137/46/137 81/44/81 130/40/130
f 137/46/137 84/47/84 81/44/81
f 137/46/137 85/48/85 84/47/84
f 130/40/130 138/49/138 137/46/137
f 127/37/127 138/49/138 130/40/130
f 87/50/87 138/49/138 127/37/127
f 138/49/138 87/50/87 88/51/88
f 85/48/85 137/46/137 139/66/139
f 139/66/139 90/53/90 85/48/85
f 140/54/140 90/53/90 139/66/139
f 141/55/141 137/46/137 138/49/138
f 137/46/137 141/55/141 139/66/139
f 138/49/138 88/51/88 141/55/141
f 139/66/139 141/55/141 140/54/140
f 141/55/141 88/51/88 142/56/142
f 141/55/141 143/57/143 140/54/140
f 142/56/142 143/57/143 141/55/141
