# Blender 4.1.1
# www.blender.org
mtllib 14.mtl
o Object_7
v -0.113644 0.164278 -0.000578
v -0.169550 0.219143 0.000108
v -0.138452 0.183105 -0.040643
v 0.005977 0.003840 -0.088835
v -0.001372 0.019132 -0.080425
v 0.032514 -0.004263 -0.064741
v 0.042573 0.027445 0.090267
v 0.069015 0.019677 0.065959
v 0.034948 0.042628 0.081907
v -0.136170 0.182273 0.038989
v 0.004932 0.131284 -0.041184
v 0.075755 0.149601 -0.002565
v -0.080863 0.141565 -0.039524
v -0.038385 0.079611 -0.063764
v -0.091693 0.091096 -0.063649
v -0.028173 0.027215 -0.080208
v -0.001372 0.019132 -0.080425
v -0.035661 0.087282 -0.096666
v -0.037576 0.080012 -0.063698
v -0.045309 0.020005 -0.080296
v -0.001421 0.019451 -0.097714
v 0.031036 -0.003618 -0.113347
v 0.032514 -0.004263 -0.064741
v -0.045309 0.020005 -0.080296
v 0.005977 0.003840 -0.088835
v 0.032514 -0.004263 -0.064741
v -0.023820 0.012956 -0.098965
v 0.016802 0.138095 0.038713
v -0.061255 0.154087 0.040118
v -0.003861 0.102004 0.065356
v -0.060432 0.110628 0.065046
v 0.008040 0.050349 0.081907
v 0.034948 0.042628 0.081907
v -0.002212 0.102999 0.065433
v -0.000120 0.110325 0.098378
v -0.008996 0.042909 0.082144
v 0.035039 0.042963 0.099195
v 0.067934 0.020348 0.114576
v 0.069015 0.019677 0.065959
v 0.042573 0.027445 0.090267
v -0.008996 0.042909 0.082144
v 0.069015 0.019677 0.065959
v 0.012742 0.036168 0.100639
v 0.031036 -0.003618 -0.113347
v -0.023820 0.012956 -0.098965
v -0.001421 0.019451 -0.097714
v 0.031036 -0.003618 -0.113347
v -0.020171 0.025085 -0.098769
v -0.045309 0.020005 -0.080296
v -0.028173 0.027215 -0.080208
v -0.035661 0.087282 -0.096666
v -0.028173 0.027215 -0.080208
v -0.071950 0.097544 -0.098712
v -0.020171 0.025085 -0.098769
v -0.072058 0.097450 -0.098719
v -0.091051 0.092194 -0.063542
v -0.036708 0.086860 -0.096733
v -0.040424 0.078383 -0.064027
v -0.053959 0.150479 -0.098657
v 0.003237 0.143740 -0.096226
v 0.003180 0.142871 -0.095891
v 0.070680 0.169209 -0.086259
v -0.023568 0.194170 -0.096510
v -0.098634 0.191139 -0.091877
v -0.105930 0.236783 -0.088368
v 0.009401 0.248059 -0.111184
v 0.112561 0.214836 -0.078394
v 0.144873 0.196524 -0.003278
v 0.173186 0.270311 -0.001214
v 0.135788 0.264653 -0.084401
v 0.133222 0.320739 -0.059154
v 0.161187 0.312248 -0.002700
v 0.169914 0.388653 -0.003081
v 0.150869 0.388747 -0.025798
v 0.073842 0.331576 -0.067355
v 0.000038 0.323853 -0.073923
v 0.126544 0.408806 -0.025103
v -0.101156 0.312377 -0.080216
v 0.056587 0.347480 0.000689
v -0.023481 0.343614 0.002682
v 0.099968 0.414670 -0.000900
v -0.138753 0.319647 0.003671
v 0.139363 0.435428 -0.035769
v 0.125919 0.447626 -0.001963
v 0.156132 0.468045 -0.003089
v 0.174194 0.406706 -0.036765
v 0.169914 0.388653 -0.003081
v 0.201525 0.396695 -0.004190
v 0.169818 0.455889 -0.029628
v 0.172464 0.475775 -0.003678
v 0.201135 0.464309 -0.004568
v 0.204859 0.427204 -0.024315
v 0.235730 0.409866 -0.005406
v 0.217310 0.446606 -0.005005
v -0.163083 0.307838 -0.034465
v -0.222094 0.315759 0.004263
v -0.163451 0.308458 -0.034408
v -0.194488 0.250208 0.001509
v -0.222447 0.316276 0.004290
v -0.157624 0.259263 -0.042047
v 0.067934 0.020348 0.114576
v 0.035039 0.042963 0.099195
v 0.012742 0.036168 0.100639
v 0.067934 0.020348 0.114576
v 0.016225 0.048344 0.100402
v -0.008996 0.042909 0.082144
v 0.008040 0.050349 0.081907
v -0.000120 0.110325 0.098378
v -0.037274 0.119517 0.100628
v 0.008040 0.050349 0.081907
v 0.016225 0.048344 0.100402
v -0.037378 0.119431 0.100624
v -0.058796 0.112442 0.065159
v -0.001680 0.109403 0.098315
v -0.008735 0.098756 0.065053
v -0.028475 0.165696 0.099670
v 0.019355 0.150801 0.094505
v 0.021621 0.152070 0.094878
v 0.078424 0.168960 0.082181
v -0.014127 0.194945 0.095359
v -0.089695 0.192051 0.091065
v -0.101907 0.232899 0.089341
v 0.013996 0.242425 0.110923
v 0.115962 0.210727 0.074071
v 0.138128 0.259205 0.080912
v 0.135937 0.321317 0.055352
v 0.152424 0.389016 0.020851
v 0.076902 0.332458 0.067018
v 0.002189 0.319460 0.077164
v 0.128099 0.409076 0.021546
v -0.099523 0.306157 0.086029
v -0.156929 0.255892 0.045041
v -0.194488 0.250208 0.001509
v -0.162398 0.304949 0.041262
v -0.162847 0.305526 0.041322
v -0.222447 0.316276 0.004290
v 0.141591 0.435814 0.031026
v 0.176421 0.407092 0.030031
v 0.171561 0.456192 0.022634
v 0.201135 0.464309 -0.004568
v 0.206181 0.427433 0.015331
v 0.235730 0.409866 -0.005406
v 0.217310 0.446606 -0.005005
vn -0.8915 -0.4497 0.0542
vn -0.8992 -0.4376 -0.0047
vn -0.9594 -0.1561 -0.2351
vn 0.7850 0.6194 -0.0128
vn 0.8601 0.4985 -0.1080
vn 0.6364 0.5834 -0.5047
vn 0.7767 0.6299 0.0057
vn 0.6326 0.5924 0.4989
vn 0.8542 0.5102 0.1004
vn -0.9111 -0.2227 0.3467
vn 0.1503 -0.5243 0.8382
vn 0.7171 -0.6965 -0.0252
vn 0.2248 -0.5355 -0.8140
vn -0.2892 -0.8150 0.5021
vn -0.0731 -0.5763 0.8140
vn -0.0374 -0.1737 0.9841
vn -0.0113 0.3521 0.9359
vn 0.8726 0.4704 0.1315
vn 0.8672 0.4732 0.1547
vn 0.0080 0.2580 0.9661
vn 0.8568 0.4964 0.1398
vn 0.6496 0.5844 0.4863
vn 0.0138 0.5705 0.8212
vn -0.2985 -0.9543 0.0140
vn -0.2955 -0.9554 0.0032
vn -0.2993 -0.9541 0.0087
vn -0.2964 -0.9550 0.0125
vn -0.2441 -0.9188 0.3102
vn 0.5365 -0.3945 0.7460
vn -0.2422 -0.8447 -0.4772
vn -0.0212 -0.6615 -0.7496
vn -0.0395 -0.1813 -0.9826
vn -0.0243 0.3516 -0.9358
vn 0.8595 0.4847 -0.1624
vn 0.8651 0.4820 -0.1392
vn -0.0036 0.2572 -0.9664
vn 0.8488 0.5078 -0.1474
vn 0.6376 0.5927 -0.4922
vn -0.0008 0.5698 -0.8218
vn -0.2826 -0.9592 -0.0000
vn -0.2857 -0.9583 -0.0107
vn -0.2864 -0.9581 -0.0054
vn -0.2836 -0.9589 -0.0093
vn -0.2907 -0.9568 -0.0060
vn -0.3153 0.2035 -0.9269
vn -0.0288 0.3076 -0.9511
vn -0.0876 0.4714 -0.8776
vn -0.1321 0.1688 -0.9768
vn -0.5140 0.6900 -0.5097
vn -0.3730 0.8898 -0.2629
vn -0.0572 0.5163 -0.8545
vn -0.7935 -0.5421 -0.2765
vn -0.8687 -0.3120 -0.3847
vn -0.7924 -0.5424 -0.2792
vn -0.0270 0.3785 -0.9252
vn -0.9482 0.0722 -0.3092
vn 0.6880 0.5154 0.5109
vn 0.7343 0.3469 0.5836
vn -0.4496 0.7884 0.4198
vn 0.9841 -0.1698 0.0513
vn -0.1312 0.9527 -0.2742
vn 0.6758 -0.2418 -0.6963
vn 0.3090 0.6228 -0.7188
vn -0.5337 0.4434 -0.7201
vn -0.5477 0.1030 -0.8303
vn -0.1021 0.0014 -0.9948
vn 0.6740 -0.2866 -0.6809
vn 0.8423 -0.5372 -0.0448
vn 0.8662 -0.4991 -0.0255
vn 0.5815 -0.3513 -0.7338
vn 0.3427 -0.5142 -0.7862
vn 0.3611 -0.9307 0.0577
vn 0.2082 -0.9781 -0.0013
vn 0.3838 -0.3550 -0.8524
vn -0.6926 -0.7162 -0.0860
vn -0.5768 0.1763 -0.7976
vn -0.3953 0.1267 -0.9098
vn -0.3670 0.6207 -0.6929
vn -0.6380 -0.7305 0.2436
vn -0.7745 0.6174 0.1378
vn -0.8527 0.5217 0.0268
vn -0.2067 0.9777 0.0376
vn -0.3776 0.3017 -0.8754
vn -0.6848 0.7285 0.0185
vn -0.4731 0.8809 0.0106
vn 0.2386 -0.3581 -0.9027
vn 0.7012 -0.7127 -0.0193
vn 0.4730 -0.8810 -0.0108
vn 0.0453 0.5388 -0.8412
vn -0.0158 0.9999 -0.0054
vn 0.4218 0.5542 -0.7176
vn 0.4779 0.0269 -0.8780
vn 0.4263 -0.2025 -0.8816
vn 0.5328 0.4001 -0.7456
vn -0.1409 0.9638 -0.2264
vn -0.0584 0.9976 0.0359
vn -0.6203 -0.0308 -0.7837
vn -0.6513 -0.2706 -0.7090
vn -0.5558 -0.2012 -0.8066
vn -0.7120 -0.1219 -0.6915
vn -0.2777 -0.9606 0.0093
vn -0.0250 0.3081 0.9510
vn -0.3102 0.2001 0.9294
vn -0.0867 0.4710 0.8779
vn -0.1270 0.1674 0.9777
vn -0.5189 0.6835 0.5134
vn -0.3828 0.8849 0.2653
vn -0.0926 0.5321 0.8416
vn -0.8185 -0.3705 0.4390
vn -0.7767 -0.5580 0.2922
vn -0.7800 -0.5575 0.2844
vn -0.0754 0.4099 0.9090
vn -0.9448 -0.0237 0.3268
vn 0.5131 0.5768 -0.6356
vn 0.5296 0.3233 -0.7842
vn -0.5581 0.7335 -0.3879
vn 0.9726 -0.1734 -0.1548
vn -0.0750 0.9789 0.1903
vn 0.7549 -0.2468 0.6077
vn -0.4024 0.6073 0.6850
vn -0.4915 0.3016 0.8170
vn -0.5231 0.0759 0.8489
vn -0.0200 -0.0318 0.9993
vn 0.7097 -0.2687 0.6512
vn 0.6263 -0.3269 0.7077
vn 0.0916 -0.2699 0.9585
vn 0.4121 -0.3687 0.8332
vn -0.8681 0.1358 -0.4775
vn -0.7337 0.5739 0.3638
vn -0.3380 0.1243 0.9329
vn -0.3494 0.5674 0.7457
vn -0.6948 -0.1793 0.6965
vn -0.6400 -0.3250 0.6962
vn -0.1372 0.9449 0.2972
vn -0.6028 -0.0902 0.7928
vn -0.5430 -0.2633 0.7974
vn -0.3186 0.3120 0.8951
vn 0.2984 -0.3477 0.8888
vn 0.1011 0.5486 0.8300
vn 0.4686 0.5625 0.6812
vn 0.5355 0.0368 0.8438
vn 0.4844 -0.1926 0.8534
vn 0.5814 0.4087 0.7035
vt 0.720701 0.653630
vt 0.799110 0.513958
vt 0.755933 0.599506
vt 0.451605 0.930846
vt 0.462961 0.909486
vt 0.424431 0.931143
vt 0.451605 0.930846
vt 0.441665 0.719581
vt 0.388270 0.687645
vt 0.557982 0.719581
vt 0.491715 0.796377
vt 0.560897 0.796377
vt 0.490565 0.909486
vt 0.491728 0.786597
vt 0.504688 0.929750
vt 0.462966 0.908893
vt 0.425638 0.930550
vt 0.482252 0.930577
vt 0.491715 0.796377
vt 0.560897 0.796377
vt 0.482262 0.908921
vt 0.540088 0.786636
vt 0.522995 0.703204
vt 0.441686 0.703138
vt 0.388312 0.654386
vt 0.549342 0.599506
vt 0.681405 0.596716
vt 0.685950 0.509722
vt 0.485432 0.513958
vt 0.315774 0.592335
vt 0.278079 0.618557
vt 0.183565 0.502934
vt 0.268280 0.513958
vt 0.269814 0.385793
vt 0.156462 0.409926
vt 0.156267 0.291363
vt 0.226607 0.267834
vt 0.368049 0.351622
vt 0.485432 0.375300
vt 0.262866 0.227584
vt 0.658185 0.377549
vt 0.398522 0.313389
vt 0.557836 0.345086
vt 0.344827 0.181365
vt 0.764795 0.306485
vt 0.255710 0.132463
vt 0.316292 0.117749
vt 0.291898 0.055006
vt 0.203792 0.190095
vt 0.185918 0.188314
vt 0.134479 0.127174
vt 0.192391 0.037306
vt 0.236993 0.021594
vt 0.132597 0.010777
vt 0.117627 0.093966
vt 0.077042 0.125425
vt 0.112945 0.020945
vt 0.764990 0.367065
vt 0.895622 0.289304
vt 0.833484 0.454897
vt 0.768009 0.452170
vt 0.540088 0.786636
vt 0.485432 0.513958
vt 0.368049 0.351622
vt 0.658185 0.377549
vt 0.189960 0.038278
s 1
usemtl Chicken1_Mat
f 1/1/1 2/2/2 3/3/3
f 4/4/4 5/5/5 6/6/6
f 7/7/7 8/6/8 9/5/9
f 10/3/10 2/2/2 1/1/1
f 1/1/1 11/8/11 12/9/12
f 11/8/11 1/1/1 13/10/13
f 13/10/13 14/11/14 11/8/11
f 14/11/14 13/10/13 15/12/15
f 15/12/15 16/13/16 14/11/14
f 14/11/14 16/13/16 17/5/17
f 5/5/5 18/14/18 19/11/19
f 17/5/17 16/13/16 20/15/20
f 18/14/18 5/5/5 21/16/21
f 5/5/5 4/4/4 21/16/21
f 21/16/21 4/4/4 22/17/22
f 20/15/20 23/6/23 17/5/17
f 24/15/24 25/4/25 26/6/26
f 25/4/25 24/15/24 27/18/27
f 28/8/28 1/1/1 12/9/12
f 1/1/1 28/8/28 29/10/29
f 30/19/30 29/10/29 28/8/28
f 29/10/29 30/19/30 31/20/31
f 32/13/32 31/20/31 30/19/30
f 30/19/30 33/5/33 32/13/32
f 9/5/9 34/19/34 35/14/35
f 33/5/33 36/15/36 32/13/32
f 35/14/35 37/16/37 9/5/9
f 9/5/9 37/16/37 7/7/7
f 37/16/37 38/17/38 7/7/7
f 39/6/39 36/15/36 33/5/33
f 40/7/40 41/15/41 42/6/42
f 41/15/41 40/7/40 43/18/43
f 27/18/27 44/17/44 25/4/25
f 45/18/45 46/16/46 47/17/47
f 46/16/46 45/18/45 48/21/48
f 49/15/49 48/21/48 45/18/45
f 48/21/48 49/15/49 50/13/50
f 48/21/48 51/14/51 46/16/46
f 52/13/52 53/22/53 54/21/54
f 51/14/51 48/21/48 55/22/55
f 53/22/53 52/13/52 56/12/56
f 13/10/13 53/22/53 56/12/56
f 57/14/57 11/8/11 58/11/58
f 59/23/59 53/22/53 13/10/13
f 59/23/59 51/14/51 55/22/55
f 3/3/3 13/10/13 1/1/1
f 3/3/3 59/23/59 13/10/13
f 11/8/11 57/14/57 60/24/60
f 61/24/61 51/14/51 59/23/59
f 62/25/62 11/8/11 60/24/60
f 62/25/62 12/9/12 11/8/11
f 59/23/59 63/26/63 61/24/61
f 63/26/63 62/25/62 61/24/61
f 59/23/59 3/3/3 64/27/64
f 64/27/64 63/26/63 59/23/59
f 3/3/3 65/28/65 64/27/64
f 65/28/65 63/26/63 64/27/64
f 65/28/65 3/3/3 2/2/2
f 62/25/62 63/26/63 66/29/66
f 63/26/63 65/28/65 66/29/66
f 67/30/67 12/9/12 62/25/62
f 66/29/66 67/30/67 62/25/62
f 12/9/12 67/30/67 68/31/68
f 67/30/67 69/32/69 68/31/68
f 69/32/69 67/30/67 70/33/70
f 67/30/67 66/29/66 70/33/70
f 71/34/71 69/32/69 70/33/70
f 66/29/66 71/34/71 70/33/70
f 69/32/69 71/34/71 72/35/72
f 73/36/73 72/35/72 74/37/74
f 72/35/72 71/34/71 74/37/74
f 71/34/71 66/29/66 75/38/75
f 75/38/75 74/37/74 71/34/71
f 75/38/75 66/29/66 76/39/76
f 74/37/74 75/38/75 77/40/77
f 66/29/66 78/41/78 76/39/76
f 78/41/78 66/29/66 65/28/65
f 76/39/76 79/42/79 75/38/75
f 79/42/79 77/40/77 75/38/75
f 79/42/79 76/39/76 80/43/80
f 78/41/78 80/43/80 76/39/76
f 77/40/77 79/42/79 81/44/81
f 80/43/80 78/41/78 82/45/82
f 81/44/81 83/46/83 77/40/77
f 83/46/83 81/44/81 84/47/84
f 83/46/83 84/47/84 85/48/85
f 77/40/77 86/49/86 74/37/74
f 86/49/86 77/40/77 83/46/83
f 86/49/86 87/50/87 74/37/74
f 86/49/86 88/51/88 87/50/87
f 85/48/85 89/52/89 83/46/83
f 90/53/90 89/52/89 85/48/85
f 91/54/91 89/52/89 90/53/90
f 83/46/83 92/55/92 86/49/86
f 92/55/92 83/46/83 89/52/89
f 92/55/92 88/51/88 86/49/86
f 92/55/92 89/52/89 91/54/91
f 88/51/88 92/55/92 93/56/93
f 91/54/91 94/57/94 92/55/92
f 94/57/94 93/56/93 92/55/92
f 95/58/95 82/45/82 78/41/78
f 82/45/82 95/58/95 96/59/96
f 97/58/97 98/60/98 99/59/99
f 97/58/97 78/41/78 100/61/100
f 98/60/98 97/58/97 100/61/100
f 78/41/78 65/28/65 100/61/100
f 100/61/100 2/2/2 98/60/98
f 2/2/2 100/61/100 65/28/65
f 101/17/101 43/18/43 40/7/40
f 102/16/102 103/18/103 104/17/104
f 103/18/103 102/16/102 105/21/105
f 105/21/105 106/15/106 103/18/103
f 106/15/106 105/21/105 107/13/107
f 108/14/108 105/21/105 102/16/102
f 109/62/109 110/13/110 111/21/111
f 105/21/105 108/14/108 112/62/112
f 110/13/110 109/62/109 113/20/113
f 29/10/29 113/20/113 109/62/109
f 28/8/28 114/14/114 115/19/115
f 116/23/116 29/10/29 109/62/109
f 116/23/116 112/62/112 108/14/108
f 1/1/1 29/10/29 10/3/10
f 116/23/116 10/3/10 29/10/29
f 114/14/114 28/8/28 117/24/117
f 108/14/108 118/24/118 116/23/116
f 117/24/117 28/8/28 119/25/119
f 12/9/12 119/25/119 28/8/28
f 116/23/116 118/24/118 120/26/120
f 119/25/119 120/26/120 118/24/118
f 10/3/10 116/23/116 121/27/121
f 121/27/121 116/23/116 120/26/120
f 122/28/122 10/3/10 121/27/121
f 122/28/122 121/27/121 120/26/120
f 10/3/10 122/28/122 2/2/2
f 120/26/120 119/25/119 123/63/123
f 123/63/123 122/28/122 120/26/120
f 12/9/12 124/30/124 119/25/119
f 124/30/124 123/63/123 119/25/119
f 124/30/124 12/9/12 68/31/68
f 69/32/69 124/30/124 68/31/68
f 69/32/69 125/33/125 124/30/124
f 123/63/123 124/30/124 125/33/125
f 69/32/69 126/34/126 125/33/125
f 126/34/126 123/63/123 125/33/125
f 126/34/126 69/32/69 72/35/72
f 127/37/127 72/35/72 73/36/73
f 72/35/72 127/37/127 126/34/126
f 123/63/123 126/34/126 128/64/128
f 127/37/127 128/64/128 126/34/126
f 129/39/129 123/63/123 128/64/128
f 128/64/128 127/37/127 130/40/130
f 79/42/79 129/39/129 128/64/128
f 130/40/130 79/42/79 128/64/128
f 129/39/129 79/42/79 80/43/80
f 79/42/79 130/40/130 81/44/81
f 80/43/80 131/65/131 129/39/129
f 131/65/131 123/63/123 129/39/129
f 123/63/123 131/65/131 122/28/122
f 131/65/131 80/43/80 82/45/82
f 122/28/122 131/65/131 132/61/132
f 132/61/132 2/2/2 122/28/122
f 2/2/2 132/61/132 133/60/133
f 134/58/134 131/65/131 82/45/82
f 135/58/135 132/61/132 131/65/131
f 133/60/133 132/61/132 135/58/135
f 82/45/82 96/59/96 134/58/134
f 135/58/135 136/59/136 133/60/133
f 137/46/137 81/44/81 130/40/130
f 137/46/137 84/47/84 81/44/81
f 137/46/137 85/48/85 84/47/84
f 130/40/130 138/49/138 137/46/137
f 127/37/127 138/49/138 130/40/130
f 87/50/87 138/49/138 127/37/127
f 138/49/138 87/50/87 88/51/88
f 85/48/85 137/46/137 139/66/139
f 139/66/139 90/53/90 85/48/85
f 140/54/140 90/53/90 139/66/139
f 141/55/141 137/46/137 138/49/138
f 137/46/137 141/55/141 139/66/139
f 138/49/138 88/51/88 141/55/141
f 139/66/139 141/55/141 140/54/140
f 141/55/141 88/51/88 142/56/142
f 141/55/141 143/57/143 140/54/140
f 142/56/142 143/57/143 141/55/141
