# Blender 4.1.1
# www.blender.org
mtllib 15.mtl
o Object_7
v -0.113830 0.164299 -0.000932
v -0.169488 0.218832 0.000206
v -0.138811 0.184362 -0.041041
v -0.015127 0.004805 -0.088652
v -0.020474 0.020902 -0.080234
v 0.010272 -0.006542 -0.064640
v 0.053921 0.020639 0.090489
v 0.080774 0.014442 0.066180
v 0.045415 0.035347 0.082128
v -0.135714 0.180834 0.038542
v -0.000232 0.131572 -0.041919
v 0.074945 0.148850 -0.003938
v -0.085005 0.147294 -0.039485
v -0.049641 0.085383 -0.063543
v -0.101116 0.102189 -0.063396
v -0.046051 0.032277 -0.079933
v -0.020474 0.020902 -0.080234
v -0.046017 0.092798 -0.096431
v -0.048711 0.085847 -0.063449
v -0.063955 0.027270 -0.079954
v -0.020544 0.021213 -0.097522
v 0.008713 -0.005748 -0.113242
v 0.010272 -0.006542 -0.064640
v -0.063955 0.027270 -0.079954
v -0.015127 0.004805 -0.088652
v 0.010272 -0.006542 -0.064640
v -0.043584 0.017574 -0.098690
v 0.019468 0.135436 0.038021
v -0.058306 0.147347 0.040088
v 0.003129 0.092663 0.065546
v -0.054152 0.099387 0.065107
v 0.018099 0.041470 0.082128
v 0.045415 0.035347 0.082128
v 0.004764 0.093424 0.065655
v 0.006421 0.100861 0.098599
v 0.001531 0.033039 0.082366
v 0.045486 0.035686 0.099416
v 0.079655 0.015048 0.114797
v 0.080774 0.014442 0.066180
v 0.053921 0.020639 0.090489
v 0.001531 0.033039 0.082366
v 0.080774 0.014442 0.066180
v 0.023627 0.027590 0.100860
v 0.008713 -0.005748 -0.113242
v -0.043584 0.017574 -0.098690
v -0.020544 0.021213 -0.097522
v 0.008713 -0.005748 -0.113242
v -0.038444 0.029150 -0.098519
v -0.063955 0.027270 -0.079954
v -0.046051 0.032277 -0.079933
v -0.046017 0.092798 -0.096431
v -0.046051 0.032277 -0.079933
v -0.080803 0.107357 -0.098380
v -0.038444 0.029150 -0.098519
v -0.080933 0.107244 -0.098390
v -0.100353 0.103555 -0.063242
v -0.047235 0.092332 -0.096525
v -0.051914 0.083931 -0.063923
v -0.058561 0.155387 -0.098540
v -0.002658 0.144656 -0.096762
v -0.003112 0.143532 -0.096267
v 0.067132 0.169200 -0.087365
v -0.026006 0.195846 -0.096835
v -0.100233 0.194522 -0.092066
v -0.106458 0.238764 -0.088063
v 0.008478 0.249661 -0.111155
v 0.111332 0.215474 -0.079321
v 0.144962 0.196945 -0.005030
v 0.173161 0.270222 -0.001579
v 0.135510 0.265408 -0.084627
v 0.133584 0.319270 -0.058758
v 0.161227 0.309881 -0.002203
v 0.171735 0.386163 -0.002496
v 0.152853 0.386843 -0.025338
v 0.074530 0.331629 -0.067215
v 0.000129 0.324824 -0.072945
v 0.129138 0.407625 -0.024789
v -0.101527 0.313760 -0.078721
v 0.057280 0.348092 0.000626
v -0.023157 0.343513 0.004044
v 0.102591 0.414273 -0.000757
v -0.138807 0.319411 0.005472
v 0.142824 0.433855 -0.035351
v 0.129529 0.446434 -0.001625
v 0.160349 0.465935 -0.002536
v 0.176780 0.404097 -0.036137
v 0.171735 0.386163 -0.002496
v 0.203580 0.393251 -0.003389
v 0.173839 0.453386 -0.028993
v 0.176911 0.473170 -0.003012
v 0.205229 0.460846 -0.003720
v 0.207965 0.423656 -0.023470
v 0.238174 0.405386 -0.004370
v 0.220866 0.442664 -0.004063
v -0.163305 0.308268 -0.032749
v -0.222163 0.315363 0.006381
v -0.163726 0.308811 -0.032597
v -0.194482 0.249810 0.002322
v -0.222562 0.315753 0.006510
v -0.157834 0.259787 -0.041215
v 0.079655 0.015048 0.114797
v 0.045486 0.035686 0.099416
v 0.023627 0.027590 0.100860
v 0.079655 0.015048 0.114797
v 0.026387 0.039951 0.100623
v 0.001531 0.033039 0.082366
v 0.018099 0.041470 0.082128
v 0.006421 0.100861 0.098599
v -0.031242 0.108119 0.100830
v 0.018099 0.041470 0.082128
v 0.026387 0.039951 0.100623
v -0.031343 0.108049 0.100824
v -0.052518 0.100848 0.065268
v 0.004888 0.100131 0.098511
v -0.001766 0.090176 0.065114
v -0.025065 0.158213 0.099755
v 0.022911 0.147241 0.093984
v 0.025394 0.148204 0.094533
v 0.080616 0.167504 0.081070
v -0.012395 0.191948 0.094982
v -0.088276 0.188074 0.090768
v -0.101301 0.230329 0.089518
v 0.014710 0.240189 0.110812
v 0.116732 0.209425 0.073086
v 0.138269 0.257217 0.080566
v 0.135862 0.319275 0.055767
v 0.154106 0.387041 0.021321
v 0.077073 0.331738 0.067229
v 0.002595 0.318125 0.078025
v 0.130392 0.407823 0.021869
v -0.099207 0.304478 0.087351
v -0.156737 0.254728 0.045788
v -0.194482 0.249810 0.002322
v -0.162289 0.303955 0.042899
v -0.162773 0.304413 0.043059
v -0.222562 0.315753 0.006510
v 0.144619 0.434138 0.031458
v 0.178575 0.404380 0.030672
v 0.175244 0.453608 0.023279
v 0.205229 0.460846 -0.003720
v 0.209030 0.423824 0.016184
v 0.238174 0.405386 -0.004370
v 0.220866 0.442664 -0.004063
vn -0.8938 -0.4485 0.0056
vn -0.8985 -0.4389 -0.0100
vn -0.9584 -0.1580 -0.2375
vn 0.8563 0.5162 -0.0162
vn 0.9154 0.3868 -0.1115
vn 0.7026 0.4988 -0.5075
vn 0.7382 0.6745 0.0057
vn 0.5966 0.6286 0.4989
vn 0.8227 0.5596 0.1004
vn -0.9157 -0.2160 0.3389
vn 0.1719 -0.5375 0.8256
vn 0.7180 -0.6943 -0.0495
vn 0.1124 -0.4844 -0.8676
vn -0.3779 -0.7781 0.5017
vn -0.1388 -0.5778 0.8043
vn -0.0549 -0.1675 0.9843
vn 0.0363 0.3516 0.9354
vn 0.9251 0.3575 0.1280
vn 0.9202 0.3610 0.1512
vn 0.0436 0.2556 0.9658
vn 0.9127 0.3853 0.1364
vn 0.7194 0.4988 0.4834
vn 0.0880 0.5648 0.8205
vn -0.4156 -0.9094 0.0161
vn -0.4127 -0.9108 0.0053
vn -0.4164 -0.9091 0.0108
vn -0.4136 -0.9103 0.0146
vn -0.1607 -0.9437 0.2890
vn 0.8042 -0.5179 0.2916
vn -0.1889 -0.8509 -0.4902
vn 0.0097 -0.6415 -0.7671
vn -0.0294 -0.1825 -0.9828
vn -0.0449 0.3494 -0.9359
vn 0.8294 0.5345 -0.1624
vn 0.8352 0.5321 -0.1392
vn -0.0187 0.2565 -0.9664
vn 0.8174 0.5569 -0.1474
vn 0.6016 0.6292 -0.4922
vn -0.0344 0.5688 -0.8218
vn -0.2256 -0.9742 -0.0000
vn -0.2287 -0.9734 -0.0107
vn -0.2295 -0.9733 -0.0054
vn -0.2267 -0.9739 -0.0093
vn -0.4082 -0.9129 -0.0040
vn -0.2906 0.2408 -0.9261
vn 0.0066 0.3081 -0.9513
vn -0.0311 0.4781 -0.8778
vn -0.1134 0.1833 -0.9765
vn -0.4253 0.7486 -0.5086
vn -0.2596 0.9293 -0.2626
vn -0.0095 0.5167 -0.8561
vn -0.8544 -0.4404 -0.2756
vn -0.9059 -0.1974 -0.3748
vn -0.8545 -0.4405 -0.2755
vn 0.0110 0.3770 -0.9262
vn -0.9333 0.1937 -0.3025
vn 0.7437 0.4402 0.5031
vn 0.7774 0.2614 0.5720
vn -0.3712 0.8384 0.3992
vn 0.9769 -0.2117 0.0295
vn -0.0885 0.9559 -0.2800
vn 0.0660 -0.6917 -0.7191
vn 0.3511 0.6023 -0.7169
vn -0.5254 0.4646 -0.7128
vn -0.5486 0.1201 -0.8274
vn -0.1083 0.0170 -0.9940
vn 0.6647 -0.2842 -0.6909
vn 0.8436 -0.5331 -0.0651
vn 0.8681 -0.4949 -0.0387
vn 0.5787 -0.3443 -0.7393
vn 0.3535 -0.5138 -0.7817
vn 0.3705 -0.9280 0.0398
vn 0.1853 -0.9827 -0.0009
vn 0.3773 -0.3645 -0.8513
vn -0.7069 -0.7027 -0.0806
vn -0.5873 0.1907 -0.7866
vn -0.3862 0.1373 -0.9121
vn -0.3699 0.6332 -0.6799
vn -0.6355 -0.7337 0.2405
vn -0.7734 0.6130 0.1614
vn -0.8377 0.5457 0.0209
vn -0.2076 0.9765 0.0570
vn -0.3625 0.3134 -0.8777
vn -0.6627 0.7488 0.0145
vn -0.4465 0.8948 0.0081
vn 0.2337 -0.3646 -0.9013
vn 0.6795 -0.7335 -0.0152
vn 0.4463 -0.8948 -0.0084
vn 0.0671 0.5376 -0.8405
vn 0.0143 0.9999 -0.0048
vn 0.4431 0.5416 -0.7144
vn 0.4843 0.0129 -0.8748
vn 0.4258 -0.2147 -0.8789
vn 0.5496 0.3843 -0.7418
vn -0.1435 0.9676 -0.2080
vn -0.0599 0.9967 0.0550
vn -0.6239 -0.0170 -0.7813
vn -0.6539 -0.2582 -0.7111
vn -0.5590 -0.1867 -0.8079
vn -0.7146 -0.1108 -0.6907
vn -0.2206 -0.9753 0.0093
vn -0.0431 0.3060 0.9510
vn -0.3215 0.1815 0.9294
vn -0.1143 0.4651 0.8779
vn -0.1367 0.1597 0.9777
vn -0.5583 0.6517 0.5134
vn -0.4342 0.8608 0.2653
vn -0.1383 0.5210 0.8422
vn -0.7884 -0.4293 0.4406
vn -0.7448 -0.6012 0.2896
vn -0.7467 -0.6010 0.2849
vn -0.1018 0.4046 0.9088
vn -0.9392 -0.0883 0.3317
vn 0.4270 0.6390 -0.6398
vn 0.4653 0.4071 -0.7860
vn -0.6004 0.6944 -0.3966
vn 0.9768 -0.1152 -0.1805
vn -0.1363 0.9723 0.1898
vn 0.7693 -0.2303 0.5960
vn -0.4619 0.5641 0.6845
vn -0.4742 0.3011 0.8274
vn -0.5203 0.0613 0.8518
vn -0.0130 -0.0432 0.9990
vn 0.7174 -0.2735 0.6408
vn 0.6309 -0.3339 0.7003
vn 0.0919 -0.2819 0.9550
vn 0.3957 -0.3786 0.8367
vn -0.8725 0.1318 -0.4705
vn -0.7318 0.5675 0.3773
vn -0.3408 0.1331 0.9306
vn -0.3462 0.5541 0.7570
vn -0.6916 -0.1923 0.6962
vn -0.6362 -0.3398 0.6926
vn -0.1375 0.9389 0.3156
vn -0.5984 -0.1066 0.7941
vn -0.5388 -0.2799 0.7946
vn -0.3150 0.3210 0.8932
vn 0.2819 -0.3570 0.8905
vn 0.1120 0.5448 0.8310
vn 0.4808 0.5477 0.6847
vn 0.5307 0.0202 0.8473
vn 0.4727 -0.2075 0.8564
vn 0.5888 0.3906 0.7077
vt 0.720701 0.653630
vt 0.799110 0.513958
vt 0.755933 0.599506
vt 0.451605 0.930846
vt 0.462961 0.909486
vt 0.424431 0.931143
vt 0.451605 0.930846
vt 0.441665 0.719581
vt 0.388270 0.687645
vt 0.557982 0.719581
vt 0.491715 0.796377
vt 0.560897 0.796377
vt 0.490565 0.909486
vt 0.491728 0.786597
vt 0.504688 0.929750
vt 0.462966 0.908893
vt 0.425638 0.930550
vt 0.482252 0.930577
vt 0.491715 0.796377
vt 0.560897 0.796377
vt 0.482262 0.908921
vt 0.540088 0.786636
vt 0.522995 0.703204
vt 0.441686 0.703138
vt 0.388312 0.654386
vt 0.549342 0.599506
vt 0.681405 0.596716
vt 0.685950 0.509722
vt 0.485432 0.513958
vt 0.315774 0.592335
vt 0.278079 0.618557
vt 0.183565 0.502934
vt 0.268280 0.513958
vt 0.269814 0.385793
vt 0.156462 0.409926
vt 0.156267 0.291363
vt 0.226607 0.267834
vt 0.368049 0.351622
vt 0.485432 0.375300
vt 0.262866 0.227584
vt 0.658185 0.377549
vt 0.398522 0.313389
vt 0.557836 0.345086
vt 0.344827 0.181365
vt 0.764795 0.306485
vt 0.255710 0.132463
vt 0.316292 0.117749
vt 0.291898 0.055006
vt 0.203792 0.190095
vt 0.185918 0.188314
vt 0.134479 0.127174
vt 0.192391 0.037306
vt 0.236993 0.021594
vt 0.132597 0.010777
vt 0.117627 0.093966
vt 0.077042 0.125425
vt 0.112945 0.020945
vt 0.764990 0.367065
vt 0.895622 0.289304
vt 0.833484 0.454897
vt 0.768009 0.452170
vt 0.540088 0.786636
vt 0.485432 0.513958
vt 0.368049 0.351622
vt 0.658185 0.377549
vt 0.189960 0.038278
s 1
usemtl Chicken1_Mat
f 1/1/1 2/2/2 3/3/3
f 4/4/4 5/5/5 6/6/6
f 7/7/7 8/6/8 9/5/9
f 10/3/10 2/2/2 1/1/1
f 1/1/1 11/8/11 12/9/12
f 11/8/11 1/1/1 13/10/13
f 13/10/13 14/11/14 11/8/11
f 14/11/14 13/10/13 15/12/15
f 15/12/15 16/13/16 14/11/14
f 14/11/14 16/13/16 17/5/17
f 5/5/5 18/14/18 19/11/19
f 17/5/17 16/13/16 20/15/20
f 18/14/18 5/5/5 21/16/21
f 5/5/5 4/4/4 21/16/21
f 21/16/21 4/4/4 22/17/22
f 20/15/20 23/6/23 17/5/17
f 24/15/24 25/4/25 26/6/26
f 25/4/25 24/15/24 27/18/27
f 28/8/28 1/1/1 12/9/12
f 1/1/1 28/8/28 29/10/29
f 30/19/30 29/10/29 28/8/28
f 29/10/29 30/19/30 31/20/31
f 32/13/32 31/20/31 30/19/30
f 30/19/30 33/5/33 32/13/32
f 9/5/9 34/19/34 35/14/35
f 33/5/33 36/15/36 32/13/32
f 35/14/35 37/16/37 9/5/9
f 9/5/9 37/16/37 7/7/7
f 37/16/37 38/17/38 7/7/7
f 39/6/39 36/15/36 33/5/33
f 40/7/40 41/15/41 42/6/42
f 41/15/41 40/7/40 43/18/43
f 27/18/27 44/17/44 25/4/25
f 45/18/45 46/16/46 47/17/47
f 46/16/46 45/18/45 48/21/48
f 49/15/49 48/21/48 45/18/45
f 48/21/48 49/15/49 50/13/50
f 48/21/48 51/14/51 46/16/46
f 52/13/52 53/22/53 54/21/54
f 51/14/51 48/21/48 55/22/55
f 53/22/53 52/13/52 56/12/56
f 13/10/13 53/22/53 56/12/56
f 57/14/57 11/8/11 58/11/58
f 59/23/59 53/22/53 13/10/13
f 59/23/59 51/14/51 55/22/55
f 3/3/3 13/10/13 1/1/1
f 3/3/3 59/23/59 13/10/13
f 11/8/11 57/14/57 60/24/60
f 61/24/61 51/14/51 59/23/59
f 62/25/62 11/8/11 60/24/60
f 62/25/62 12/9/12 11/8/11
f 59/23/59 63/26/63 61/24/61
f 63/26/63 62/25/62 61/24/61
f 59/23/59 3/3/3 64/27/64
f 64/27/64 63/26/63 59/23/59
f 3/3/3 65/28/65 64/27/64
f 65/28/65 63/26/63 64/27/64
f 65/28/65 3/3/3 2/2/2
f 62/25/62 63/26/63 66/29/66
f 63/26/63 65/28/65 66/29/66
f 67/30/67 12/9/12 62/25/62
f 66/29/66 67/30/67 62/25/62
f 12/9/12 67/30/67 68/31/68
f 67/30/67 69/32/69 68/31/68
f 69/32/69 67/30/67 70/33/70
f 67/30/67 66/29/66 70/33/70
f 71/34/71 69/32/69 70/33/70
f 66/29/66 71/34/71 70/33/70
f 69/32/69 71/34/71 72/35/72
f 73/36/73 72/35/72 74/37/74
f 72/35/72 71/34/71 74/37/74
f 71/34/71 66/29/66 75/38/75
f 75/38/75 74/37/74 71/34/71
f 75/38/75 66/29/66 76/39/76
f 74/37/74 75/38/75 77/40/77
f 66/29/66 78/41/78 76/39/76
f 78/41/78 66/29/66 65/28/65
f 76/39/76 79/42/79 75/38/75
f 79/42/79 77/40/77 75/38/75
f 79/42/79 76/39/76 80/43/80
f 78/41/78 80/43/80 76/39/76
f 77/40/77 79/42/79 81/44/81
f 80/43/80 78/41/78 82/45/82
f 81/44/81 83/46/83 77/40/77
f 83/46/83 81/44/81 84/47/84
f 83/46/83 84/47/84 85/48/85
f 77/40/77 86/49/86 74/37/74
f 86/49/86 77/40/77 83/46/83
f 86/49/86 87/50/87 74/37/74
f 86/49/86 88/51/88 87/50/87
f 85/48/85 89/52/89 83/46/83
f 90/53/90 89/52/89 85/48/85
f 91/54/91 89/52/89 90/53/90
f 83/46/83 92/55/92 86/49/86
f 92/55/92 83/46/83 89/52/89
f 92/55/92 88/51/88 86/49/86
f 92/55/92 89/52/89 91/54/91
f 88/51/88 92/55/92 93/56/93
f 91/54/91 94/57/94 92/55/92
f 94/57/94 93/56/93 92/55/92
f 95/58/95 82/45/82 78/41/78
f 82/45/82 95/58/95 96/59/96
f 97/58/97 98/60/98 99/59/99
f 97/58/97 78/41/78 100/61/100
f 98/60/98 97/58/97 100/61/100
f 78/41/78 65/28/65 100/61/100
f 100/61/100 2/2/2 98/60/98
f 2/2/2 100/61/100 65/28/65
f 101/17/101 43/18/43 40/7/40
f 102/16/102 103/18/103 104/17/104
f 103/18/103 102/16/102 105/21/105
f 105/21/105 106/15/106 103/18/103
f 106/15/106 105/21/105 107/13/107
f 108/14/108 105/21/105 102/16/102
f 109/62/109 110/13/110 111/21/111
f 105/21/105 108/14/108 112/62/112
f 110/13/110 109/62/109 113/20/113
f 29/10/29 113/20/113 109/62/109
f 28/8/28 114/14/114 115/19/115
f 116/23/116 29/10/29 109/62/109
f 116/23/116 112/62/112 108/14/108
f 1/1/1 29/10/29 10/3/10
f 116/23/116 10/3/10 29/10/29
f 114/14/114 28/8/28 117/24/117
f 108/14/108 118/24/118 116/23/116
f 117/24/117 28/8/28 119/25/119
f 12/9/12 119/25/119 28/8/28
f 116/23/116 118/24/118 120/26/120
f 119/25/119 120/26/120 118/24/118
f 10/3/10 116/23/116 121/27/121
f 121/27/121 116/23/116 120/26/120
f 122/28/122 10/3/10 121/27/121
f 122/28/122 121/27/121 120/26/120
f 10/3/10 122/28/122 2/2/2
f 120/26/120 119/25/119 123/63/123
f 123/63/123 122/28/122 120/26/120
f 12/9/12 124/30/124 119/25/119
f 124/30/124 123/63/123 119/25/119
f 124/30/124 12/9/12 68/31/68
f 69/32/69 124/30/124 68/31/68
f 69/32/69 125/33/125 124/30/124
f 123/63/123 124/30/124 125/33/125
f 69/32/69 126/34/126 125/33/125
f 126/34/126 123/63/123 125/33/125
f 126/34/126 69/32/69 72/35/72
f 127/37/127 72/35/72 73/36/73
f 72/35/72 127/37/127 126/34/126
f 123/63/123 126/34/126 128/64/128
f 127/37/127 128/64/128 126/34/126
f 129/39/129 123/63/123 128/64/128
f 128/64/128 127/37/127 130/40/130
f 79/42/79 129/39/129 128/64/128
f 130/40/130 79/42/79 128/64/128
f 129/39/129 79/42/79 80/43/80
f 79/42/79 130/40/130 81/44/81
f 80/43/80 131/65/131 129/39/129
f 131/65/131 123/63/123 129/39/129
f 123/63/123 131/65/131 122/28/122
f 131/65/131 80/43/80 82/45/82
f 122/28/122 131/65/131 132/61/132
f 132/61/132 2/2/2 122/28/122
f 2/2/2 132/61/132 133/60/133
f 134/58/134 131/65/131 82/45/82
f 135/58/135 132/61/132 131/65/131
f 133/60/133 132/61/132 135/58/135
f 82/45/82 96/59/96 134/58/134
f 135/58/135 136/59/136 133/60/133
f 137/46/137 81/44/81 130/40/130
f 137/46/137 84/47/84 81/44/81
f 137/46/137 85/48/85 84/47/84
f 130/40/130 138/49/138 137/46/137
f 127/37/127 138/49/138 130/40/130
f 87/50/87 138/49/138 127/37/127
f 138/49/138 87/50/87 88/51/88
f 85/48/85 137/46/137 139/66/139
f 139/66/139 90/53/90 85/48/85
f 140/54/140 90/53/90 139/66/139
f 141/55/141 137/46/137 138/49/138
f 137/46/137 141/55/141 139/66/139
f 138/49/138 88/51/88 141/55/141
f 139/66/139 141/55/141 140/54/140
f 141/55/141 88/51/88 142/56/142
f 141/55/141 143/57/143 140/54/140
f 142/56/142 143/57/143 141/55/141
