# Blender 4.1.1
# www.blender.org
mtllib 16.mtl
o Object_7
v -0.113810 0.164277 -0.001328
v -0.169443 0.218598 0.000247
v -0.139019 0.185612 -0.041472
v -0.036093 0.007079 -0.088429
v -0.039352 0.023724 -0.080010
v -0.012229 -0.007343 -0.064493
v 0.064501 0.014230 0.090611
v 0.091673 0.009626 0.066303
v 0.055144 0.028412 0.082251
v -0.135244 0.179419 0.038035
v -0.005423 0.132064 -0.042622
v 0.073911 0.148189 -0.005252
v -0.088438 0.152736 -0.039466
v -0.060232 0.091229 -0.063319
v -0.109212 0.113206 -0.063153
v -0.063302 0.038213 -0.079634
v -0.039352 0.023724 -0.080010
v -0.055750 0.098242 -0.096198
v -0.059175 0.091704 -0.063199
v -0.081692 0.035486 -0.079588
v -0.039444 0.024030 -0.097299
v -0.013849 -0.006393 -0.113090
v -0.012229 -0.007343 -0.064493
v -0.081692 0.035486 -0.079588
v -0.036093 0.007079 -0.088429
v -0.012229 -0.007343 -0.064493
v -0.062762 0.023303 -0.098383
v 0.021824 0.132869 0.037312
v -0.055583 0.140626 0.039992
v 0.009538 0.083474 0.065640
v -0.048243 0.088289 0.065079
v 0.027515 0.032916 0.082251
v 0.055144 0.028412 0.082251
v 0.011143 0.083995 0.065777
v 0.012360 0.091516 0.098722
v 0.011472 0.023524 0.082488
v 0.055195 0.028755 0.099539
v 0.090520 0.010165 0.114919
v 0.091673 0.009626 0.066303
v 0.064501 0.014230 0.090611
v 0.011472 0.023524 0.082488
v 0.091673 0.009626 0.066303
v 0.033851 0.019386 0.100983
v -0.013849 -0.006393 -0.113090
v -0.062762 0.023303 -0.098383
v -0.039444 0.024030 -0.097299
v -0.013849 -0.006393 -0.113090
v -0.056213 0.034145 -0.098242
v -0.081692 0.035486 -0.079588
v -0.063302 0.038213 -0.079634
v -0.055750 0.098242 -0.096198
v -0.063302 0.038213 -0.079634
v -0.088505 0.116896 -0.098058
v -0.056213 0.034145 -0.098242
v -0.088660 0.116772 -0.098071
v -0.108300 0.114782 -0.062953
v -0.057141 0.097795 -0.096317
v -0.062758 0.089701 -0.063812
v -0.062646 0.159893 -0.098429
v -0.008557 0.145720 -0.097253
v -0.009426 0.144303 -0.096604
v 0.063415 0.169307 -0.088376
v -0.028383 0.197481 -0.097118
v -0.101550 0.197806 -0.092252
v -0.106870 0.240700 -0.087751
v 0.007584 0.251198 -0.111056
v 0.110032 0.216057 -0.080132
v 0.145010 0.197222 -0.006661
v 0.173140 0.269957 -0.001819
v 0.135250 0.266038 -0.084739
v 0.133906 0.317755 -0.058343
v 0.161195 0.307454 -0.001681
v 0.173499 0.383587 -0.001892
v 0.154799 0.384854 -0.024860
v 0.075231 0.331652 -0.067063
v 0.000299 0.325737 -0.071924
v 0.131727 0.406349 -0.024454
v -0.101794 0.315142 -0.077214
v 0.058004 0.348689 0.000565
v -0.022765 0.343359 0.005418
v 0.105233 0.413791 -0.000596
v -0.138792 0.319195 0.007233
v 0.146276 0.432155 -0.034905
v 0.133145 0.445115 -0.001260
v 0.164551 0.463668 -0.001950
v 0.179314 0.401376 -0.035485
v 0.173499 0.383587 -0.001892
v 0.205550 0.389701 -0.002567
v 0.177829 0.450729 -0.028325
v 0.181328 0.470395 -0.002309
v 0.209261 0.457214 -0.002837
v 0.210995 0.419968 -0.022595
v 0.240504 0.400776 -0.003307
v 0.224339 0.438564 -0.003089
v -0.163446 0.308741 -0.031071
v -0.222163 0.315048 0.008412
v -0.163921 0.309205 -0.030824
v -0.194465 0.249497 0.003064
v -0.222608 0.315310 0.008644
v -0.158004 0.260365 -0.040416
v 0.090520 0.010165 0.114919
v 0.055195 0.028755 0.099539
v 0.033851 0.019386 0.100983
v 0.090520 0.010165 0.114919
v 0.035878 0.031887 0.100746
v 0.011472 0.023524 0.082488
v 0.027515 0.032916 0.082251
v 0.012360 0.091516 0.098722
v -0.025677 0.096820 0.100934
v 0.027515 0.032916 0.082251
v 0.035878 0.031887 0.100746
v -0.025775 0.096767 0.100927
v -0.046623 0.089389 0.065286
v 0.010867 0.090986 0.098610
v 0.004671 0.081770 0.065088
v -0.022065 0.150739 0.099764
v 0.026099 0.143738 0.093429
v 0.028755 0.144395 0.094146
v 0.082551 0.166029 0.079981
v -0.010875 0.188949 0.094575
v -0.087008 0.184128 0.090411
v -0.100772 0.227773 0.089635
v 0.015316 0.237905 0.110690
v 0.117369 0.208032 0.072154
v 0.138345 0.255109 0.080278
v 0.135725 0.317196 0.056192
v 0.155745 0.384988 0.021806
v 0.077230 0.330999 0.067441
v 0.003010 0.316737 0.078882
v 0.132672 0.406484 0.022212
v -0.098877 0.302797 0.088622
v -0.156554 0.253618 0.046466
v -0.194465 0.249497 0.003064
v -0.162142 0.303003 0.044468
v -0.162660 0.303339 0.044728
v -0.222608 0.315310 0.008644
v 0.147630 0.432348 0.031915
v 0.180668 0.401569 0.031334
v 0.178889 0.450879 0.023956
v 0.209261 0.457214 -0.002837
v 0.211798 0.420083 0.017065
v 0.240504 0.400776 -0.003307
v 0.224339 0.438564 -0.003089
vn -0.8945 -0.4449 -0.0437
vn -0.8978 -0.4401 -0.0161
vn -0.9570 -0.1624 -0.2402
vn 0.9141 0.4049 -0.0197
vn 0.9562 0.2691 -0.1151
vn 0.7577 0.4065 -0.5105
vn 0.6972 0.7169 0.0057
vn 0.5586 0.6627 0.4989
vn 0.7883 0.6071 0.1004
vn -0.9200 -0.2105 0.3307
vn 0.1883 -0.5530 0.8116
vn 0.7173 -0.6928 -0.0738
vn -0.0238 -0.4041 -0.9144
vn -0.4612 -0.7315 0.5021
vn -0.2070 -0.5702 0.7950
vn -0.0717 -0.1591 0.9847
vn 0.0834 0.3451 0.9348
vn 0.9630 0.2389 0.1244
vn 0.9587 0.2430 0.1477
vn 0.0787 0.2488 0.9654
vn 0.9542 0.2681 0.1328
vn 0.7779 0.4051 0.4804
vn 0.1609 0.5499 0.8196
vn -0.5261 -0.8502 0.0185
vn -0.5235 -0.8520 0.0077
vn -0.5269 -0.8498 0.0132
vn -0.5243 -0.8514 0.0170
vn -0.0854 -0.9611 0.2628
vn 0.8244 -0.5006 0.2643
vn -0.1387 -0.8544 -0.5007
vn 0.0379 -0.6215 -0.7825
vn -0.0192 -0.1830 -0.9829
vn -0.0653 0.3460 -0.9360
vn 0.7965 0.5824 -0.1624
vn 0.8024 0.5803 -0.1392
vn -0.0338 0.2550 -0.9664
vn 0.7832 0.6040 -0.1474
vn 0.5635 0.6635 -0.4922
vn -0.0678 0.5658 -0.8218
vn -0.1678 -0.9858 -0.0000
vn -0.1710 -0.9852 -0.0107
vn -0.1718 -0.9851 -0.0054
vn -0.1689 -0.9856 -0.0093
vn -0.5193 -0.8546 -0.0016
vn -0.2615 0.2746 -0.9253
vn 0.0417 0.3043 -0.9517
vn 0.0259 0.4776 -0.8782
vn -0.0929 0.1954 -0.9763
vn -0.3301 0.7956 -0.5080
vn -0.1422 0.9543 -0.2628
vn 0.0356 0.5125 -0.8580
vn -0.9027 -0.3317 -0.2740
vn -0.9293 -0.0772 -0.3611
vn -0.9035 -0.3314 -0.2716
vn 0.0489 0.3713 -0.9272
vn -0.9021 0.3170 -0.2927
vn 0.7876 0.3660 0.4957
vn 0.8084 0.1790 0.5608
vn -0.2851 0.8802 0.3794
vn 0.9682 -0.2502 0.0097
vn -0.0490 0.9573 -0.2849
vn 0.0419 -0.6859 -0.7265
vn 0.3931 0.5783 -0.7148
vn -0.5149 0.4860 -0.7061
vn -0.5494 0.1367 -0.8243
vn -0.1138 0.0327 -0.9930
vn 0.6552 -0.2827 -0.7006
vn 0.8436 -0.5301 -0.0850
vn 0.8700 -0.4904 -0.0513
vn 0.5759 -0.3381 -0.7443
vn 0.3639 -0.5136 -0.7770
vn 0.3823 -0.9238 0.0222
vn 0.1621 -0.9868 -0.0007
vn 0.3706 -0.3739 -0.8502
vn -0.7210 -0.6889 -0.0743
vn -0.5972 0.2049 -0.7754
vn -0.3767 0.1477 -0.9145
vn -0.3720 0.6456 -0.6669
vn -0.6329 -0.7369 0.2374
vn -0.7716 0.6086 0.1851
vn -0.8219 0.5694 0.0151
vn -0.2078 0.9752 0.0762
vn -0.3469 0.3248 -0.8799
vn -0.6396 0.7686 0.0106
vn -0.4190 0.9080 0.0057
vn 0.2285 -0.3711 -0.9000
vn 0.6569 -0.7539 -0.0111
vn 0.4189 -0.9080 -0.0060
vn 0.0891 0.5358 -0.8397
vn 0.0449 0.9990 -0.0039
vn 0.4642 0.5282 -0.7110
vn 0.4903 -0.0014 -0.8716
vn 0.4250 -0.2272 -0.8762
vn 0.5660 0.3678 -0.7378
vn -0.1451 0.9711 -0.1894
vn -0.0606 0.9954 0.0741
vn -0.6272 -0.0026 -0.7789
vn -0.6564 -0.2452 -0.7134
vn -0.5620 -0.1717 -0.8091
vn -0.7169 -0.0991 -0.6901
vn -0.1628 -0.9866 0.0093
vn -0.0610 0.3030 0.9510
vn -0.3316 0.1622 0.9294
vn -0.1414 0.4575 0.8779
vn -0.1460 0.1514 0.9776
vn -0.5957 0.6177 0.5134
vn -0.4842 0.8338 0.2653
vn -0.1762 0.5085 0.8428
vn -0.7592 -0.4810 0.4385
vn -0.7108 -0.6423 0.2867
vn -0.7112 -0.6424 0.2856
vn -0.1246 0.3985 0.9086
vn -0.9323 -0.1439 0.3320
vn 0.3536 0.6832 -0.6390
vn 0.4065 0.4748 -0.7806
vn -0.6328 0.6589 -0.4068
vn 0.9770 -0.0628 -0.2038
vn -0.1904 0.9630 0.1907
vn 0.7810 -0.2139 0.5868
vn -0.5044 0.5262 0.6846
vn -0.4580 0.3004 0.8367
vn -0.5182 0.0475 0.8539
vn -0.0065 -0.0543 0.9985
vn 0.7241 -0.2796 0.6305
vn 0.6348 -0.3411 0.6933
vn 0.0918 -0.2936 0.9515
vn 0.3790 -0.3880 0.8402
vn -0.8765 0.1281 -0.4640
vn -0.7296 0.5617 0.3901
vn -0.3435 0.1421 0.9283
vn -0.3428 0.5411 0.7679
vn -0.6890 -0.2047 0.6953
vn -0.6330 -0.3540 0.6884
vn -0.1372 0.9326 0.3337
vn -0.5944 -0.1226 0.7948
vn -0.5353 -0.2960 0.7911
vn -0.3110 0.3300 0.8913
vn 0.2649 -0.3660 0.8921
vn 0.1230 0.5407 0.8322
vn 0.4927 0.5325 0.6883
vn 0.5254 0.0036 0.8509
vn 0.4604 -0.2223 0.8594
vn 0.5956 0.3721 0.7119
vt 0.720701 0.653630
vt 0.799110 0.513958
vt 0.755933 0.599506
vt 0.451605 0.930846
vt 0.462961 0.909486
vt 0.424431 0.931143
vt 0.451605 0.930846
vt 0.441665 0.719581
vt 0.388270 0.687645
vt 0.557982 0.719581
vt 0.491715 0.796377
vt 0.560897 0.796377
vt 0.490565 0.909486
vt 0.491728 0.786597
vt 0.504688 0.929750
vt 0.462966 0.908893
vt 0.425638 0.930550
vt 0.482252 0.930577
vt 0.491715 0.796377
vt 0.560897 0.796377
vt 0.482262 0.908921
vt 0.540088 0.786636
vt 0.522995 0.703204
vt 0.441686 0.703138
vt 0.388312 0.654386
vt 0.549342 0.599506
vt 0.681405 0.596716
vt 0.685950 0.509722
vt 0.485432 0.513958
vt 0.315774 0.592335
vt 0.278079 0.618557
vt 0.183565 0.502934
vt 0.268280 0.513958
vt 0.269814 0.385793
vt 0.156462 0.409926
vt 0.156267 0.291363
vt 0.226607 0.267834
vt 0.368049 0.351622
vt 0.485432 0.375300
vt 0.262866 0.227584
vt 0.658185 0.377549
vt 0.398522 0.313389
vt 0.557836 0.345086
vt 0.344827 0.181365
vt 0.764795 0.306485
vt 0.255710 0.132463
vt 0.316292 0.117749
vt 0.291898 0.055006
vt 0.203792 0.190095
vt 0.185918 0.188314
vt 0.134479 0.127174
vt 0.192391 0.037306
vt 0.236993 0.021594
vt 0.132597 0.010777
vt 0.117627 0.093966
vt 0.077042 0.125425
vt 0.112945 0.020945
vt 0.764990 0.367065
vt 0.895622 0.289304
vt 0.833484 0.454897
vt 0.768009 0.452170
vt 0.540088 0.786636
vt 0.485432 0.513958
vt 0.368049 0.351622
vt 0.658185 0.377549
vt 0.189960 0.038278
s 1
usemtl Chicken1_Mat
f 1/1/1 2/2/2 3/3/3
f 4/4/4 5/5/5 6/6/6
f 7/7/7 8/6/8 9/5/9
f 10/3/10 2/2/2 1/1/1
f 1/1/1 11/8/11 12/9/12
f 11/8/11 1/1/1 13/10/13
f 13/10/13 14/11/14 11/8/11
f 14/11/14 13/10/13 15/12/15
f 15/12/15 16/13/16 14/11/14
f 14/11/14 16/13/16 17/5/17
f 5/5/5 18/14/18 19/11/19
f 17/5/17 16/13/16 20/15/20
f 18/14/18 5/5/5 21/16/21
f 5/5/5 4/4/4 21/16/21
f 21/16/21 4/4/4 22/17/22
f 20/15/20 23/6/23 17/5/17
f 24/15/24 25/4/25 26/6/26
f 25/4/25 24/15/24 27/18/27
f 28/8/28 1/1/1 12/9/12
f 1/1/1 28/8/28 29/10/29
f 30/19/30 29/10/29 28/8/28
f 29/10/29 30/19/30 31/20/31
f 32/13/32 31/20/31 30/19/30
f 30/19/30 33/5/33 32/13/32
f 9/5/9 34/19/34 35/14/35
f 33/5/33 36/15/36 32/13/32
f 35/14/35 37/16/37 9/5/9
f 9/5/9 37/16/37 7/7/7
f 37/16/37 38/17/38 7/7/7
f 39/6/39 36/15/36 33/5/33
f 40/7/40 41/15/41 42/6/42
f 41/15/41 40/7/40 43/18/43
f 27/18/27 44/17/44 25/4/25
f 45/18/45 46/16/46 47/17/47
f 46/16/46 45/18/45 48/21/48
f 49/15/49 48/21/48 45/18/45
f 48/21/48 49/15/49 50/13/50
f 48/21/48 51/14/51 46/16/46
f 52/13/52 53/22/53 54/21/54
f 51/14/51 48/21/48 55/22/55
f 53/22/53 52/13/52 56/12/56
f 13/10/13 53/22/53 56/12/56
f 57/14/57 11/8/11 58/11/58
f 59/23/59 53/22/53 13/10/13
f 59/23/59 51/14/51 55/22/55
f 3/3/3 13/10/13 1/1/1
f 3/3/3 59/23/59 13/10/13
f 11/8/11 57/14/57 60/24/60
f 61/24/61 51/14/51 59/23/59
f 62/25/62 11/8/11 60/24/60
f 62/25/62 12/9/12 11/8/11
f 59/23/59 63/26/63 61/24/61
f 63/26/63 62/25/62 61/24/61
f 59/23/59 3/3/3 64/27/64
f 64/27/64 63/26/63 59/23/59
f 3/3/3 65/28/65 64/27/64
f 65/28/65 63/26/63 64/27/64
f 65/28/65 3/3/3 2/2/2
f 62/25/62 63/26/63 66/29/66
f 63/26/63 65/28/65 66/29/66
f 67/30/67 12/9/12 62/25/62
f 66/29/66 67/30/67 62/25/62
f 12/9/12 67/30/67 68/31/68
f 67/30/67 69/32/69 68/31/68
f 69/32/69 67/30/67 70/33/70
f 67/30/67 66/29/66 70/33/70
f 71/34/71 69/32/69 70/33/70
f 66/29/66 71/34/71 70/33/70
f 69/32/69 71/34/71 72/35/72
f 73/36/73 72/35/72 74/37/74
f 72/35/72 71/34/71 74/37/74
f 71/34/71 66/29/66 75/38/75
f 75/38/75 74/37/74 71/34/71
f 75/38/75 66/29/66 76/39/76
f 74/37/74 75/38/75 77/40/77
f 66/29/66 78/41/78 76/39/76
f 78/41/78 66/29/66 65/28/65
f 76/39/76 79/42/79 75/38/75
f 79/42/79 77/40/77 75/38/75
f 79/42/79 76/39/76 80/43/80
f 78/41/78 80/43/80 76/39/76
f 77/40/77 79/42/79 81/44/81
f 80/43/80 78/41/78 82/45/82
f 81/44/81 83/46/83 77/40/77
f 83/46/83 81/44/81 84/47/84
f 83/46/83 84/47/84 85/48/85
f 77/40/77 86/49/86 74/37/74
f 86/49/86 77/40/77 83/46/83
f 86/49/86 87/50/87 74/37/74
f 86/49/86 88/51/88 87/50/87
f 85/48/85 89/52/89 83/46/83
f 90/53/90 89/52/89 85/48/85
f 91/54/91 89/52/89 90/53/90
f 83/46/83 92/55/92 86/49/86
f 92/55/92 83/46/83 89/52/89
f 92/55/92 88/51/88 86/49/86
f 92/55/92 89/52/89 91/54/91
f 88/51/88 92/55/92 93/56/93
f 91/54/91 94/57/94 92/55/92
f 94/57/94 93/56/93 92/55/92
f 95/58/95 82/45/82 78/41/78
f 82/45/82 95/58/95 96/59/96
f 97/58/97 98/60/98 99/59/99
f 97/58/97 78/41/78 100/61/100
f 98/60/98 97/58/97 100/61/100
f 78/41/78 65/28/65 100/61/100
f 100/61/100 2/2/2 98/60/98
f 2/2/2 100/61/100 65/28/65
f 101/17/101 43/18/43 40/7/40
f 102/16/102 103/18/103 104/17/104
f 103/18/103 102/16/102 105/21/105
f 105/21/105 106/15/106 103/18/103
f 106/15/106 105/21/105 107/13/107
f 108/14/108 105/21/105 102/16/102
f 109/62/109 110/13/110 111/21/111
f 105/21/105 108/14/108 112/62/112
f 110/13/110 109/62/109 113/20/113
f 29/10/29 113/20/113 109/62/109
f 28/8/28 114/14/114 115/19/115
f 116/23/116 29/10/29 109/62/109
f 116/23/116 112/62/112 108/14/108
f 1/1/1 29/10/29 10/3/10
f 116/23/116 10/3/10 29/10/29
f 114/14/114 28/8/28 117/24/117
f 108/14/108 118/24/118 116/23/116
f 117/24/117 28/8/28 119/25/119
f 12/9/12 119/25/119 28/8/28
f 116/23/116 118/24/118 120/26/120
f 119/25/119 120/26/120 118/24/118
f 10/3/10 116/23/116 121/27/121
f 121/27/121 116/23/116 120/26/120
f 122/28/122 10/3/10 121/27/121
f 122/28/122 121/27/121 120/26/120
f 10/3/10 122/28/122 2/2/2
f 120/26/120 119/25/119 123/63/123
f 123/63/123 122/28/122 120/26/120
f 12/9/12 124/30/124 119/25/119
f 124/30/124 123/63/123 119/25/119
f 124/30/124 12/9/12 68/31/68
f 69/32/69 124/30/124 68/31/68
f 69/32/69 125/33/125 124/30/124
f 123/63/123 124/30/124 125/33/125
f 69/32/69 126/34/126 125/33/125
f 126/34/126 123/63/123 125/33/125
f 126/34/126 69/32/69 72/35/72
f 127/37/127 72/35/72 73/36/73
f 72/35/72 127/37/127 126/34/126
f 123/63/123 126/34/126 128/64/128
f 127/37/127 128/64/128 126/34/126
f 129/39/129 123/63/123 128/64/128
f 128/64/128 127/37/127 130/40/130
f 79/42/79 129/39/129 128/64/128
f 130/40/130 79/42/79 128/64/128
f 129/39/129 79/42/79 80/43/80
f 79/42/79 130/40/130 81/44/81
f 80/43/80 131/65/131 129/39/129
f 131/65/131 123/63/123 129/39/129
f 123/63/123 131/65/131 122/28/122
f 131/65/131 80/43/80 82/45/82
f 122/28/122 131/65/131 132/61/132
f 132/61/132 2/2/2 122/28/122
f 2/2/2 132/61/132 133/60/133
f 134/58/134 131/65/131 82/45/82
f 135/58/135 132/61/132 131/65/131
f 133/60/133 132/61/132 135/58/135
f 82/45/82 96/59/96 134/58/134
f 135/58/135 136/59/136 133/60/133
f 137/46/137 81/44/81 130/40/130
f 137/46/137 84/47/84 81/44/81
f 137/46/137 85/48/85 84/47/84
f 130/40/130 138/49/138 137/46/137
f 127/37/127 138/49/138 130/40/130
f 87/50/87 138/49/138 127/37/127
f 138/49/138 87/50/87 88/51/88
f 85/48/85 137/46/137 139/66/139
f 139/66/139 90/53/90 85/48/85
f 140/54/140 90/53/90 139/66/139
f 141/55/141 137/46/137 138/49/138
f 137/46/137 141/55/141 139/66/139
f 138/49/138 88/51/88 141/55/141
f 139/66/139 141/55/141 140/54/140
f 141/55/141 88/51/88 142/56/142
f 141/55/141 143/57/143 140/54/140
f 142/56/142 143/57/143 141/55/141
