# Blender 4.1.1
# www.blender.org
mtllib 18.mtl
o Object_7
v -0.113561 0.163965 -0.002085
v -0.169401 0.218382 0.000278
v -0.139170 0.187621 -0.042214
v -0.070580 0.014199 -0.087960
v -0.070287 0.031165 -0.079558
v -0.050061 -0.004814 -0.064129
v 0.079711 0.003483 0.090389
v 0.107204 0.001572 0.066081
v 0.069005 0.016676 0.082029
v -0.134510 0.177006 0.037091
v -0.014231 0.133476 -0.043774
v 0.071637 0.147270 -0.007448
v -0.093048 0.161158 -0.039484
v -0.076810 0.101390 -0.062936
v -0.120239 0.131327 -0.062767
v -0.090733 0.050281 -0.079076
v -0.070287 0.031165 -0.079558
v -0.071063 0.107449 -0.095805
v -0.075568 0.101786 -0.062775
v -0.109289 0.051405 -0.078922
v -0.070416 0.031470 -0.096846
v -0.051737 -0.003591 -0.112718
v -0.050061 -0.004814 -0.064129
v -0.109289 0.051405 -0.078922
v -0.070580 0.014199 -0.087960
v -0.050061 -0.004814 -0.064129
v -0.093389 0.035565 -0.097798
v 0.024802 0.128458 0.035974
v -0.052003 0.128905 0.039565
v 0.018249 0.067587 0.065381
v -0.039833 0.069299 0.064654
v 0.041067 0.018442 0.082029
v 0.069005 0.016676 0.082029
v 0.019754 0.067664 0.065555
v 0.020225 0.075268 0.098499
v 0.026025 0.007518 0.082266
v 0.069022 0.017022 0.099317
v 0.106004 0.001995 0.114697
v 0.107204 0.001572 0.066081
v 0.079711 0.003483 0.090389
v 0.026025 0.007518 0.082266
v 0.107204 0.001572 0.066081
v 0.048703 0.005600 0.100761
v -0.051737 -0.003591 -0.112718
v -0.093389 0.035565 -0.097798
v -0.070416 0.031470 -0.096846
v -0.051737 -0.003591 -0.112718
v -0.084745 0.044824 -0.097716
v -0.109289 0.051405 -0.078922
v -0.090733 0.050281 -0.079076
v -0.071063 0.107449 -0.095805
v -0.090733 0.050281 -0.079076
v -0.099376 0.132259 -0.097545
v -0.084745 0.044824 -0.097716
v -0.099570 0.132131 -0.097562
v -0.119046 0.133130 -0.062494
v -0.072709 0.107154 -0.095961
v -0.079702 0.100010 -0.063609
v -0.068813 0.166711 -0.098251
v -0.018524 0.148049 -0.098008
v -0.020162 0.146111 -0.097112
v 0.056813 0.169911 -0.089961
v -0.032362 0.200228 -0.097525
v -0.103323 0.203074 -0.092531
v -0.107427 0.243843 -0.087178
v 0.006056 0.253666 -0.110788
v 0.107658 0.216958 -0.081378
v 0.145005 0.197365 -0.009324
v 0.173115 0.269105 -0.002150
v 0.134798 0.266778 -0.084811
v 0.134348 0.315062 -0.057612
v 0.160966 0.303185 -0.000770
v 0.176359 0.378992 -0.000822
v 0.158022 0.381265 -0.024003
v 0.076454 0.331614 -0.066785
v 0.000727 0.327128 -0.070151
v 0.136116 0.403950 -0.023835
v -0.102068 0.317451 -0.074639
v 0.059311 0.349668 0.000470
v -0.021939 0.342980 0.007723
v 0.109777 0.412764 -0.000275
v -0.138604 0.318883 0.010150
v 0.152130 0.428959 -0.034079
v 0.139312 0.442569 -0.000571
v 0.171660 0.459435 -0.000870
v 0.183498 0.396476 -0.034320
v 0.176359 0.378992 -0.000822
v 0.208695 0.383402 -0.001116
v 0.184543 0.445832 -0.027107
v 0.188773 0.465265 -0.001025
v 0.215974 0.450625 -0.001247
v 0.215966 0.413356 -0.021037
v 0.244191 0.392614 -0.001435
v 0.230046 0.431204 -0.001351
v -0.163529 0.309629 -0.028269
v -0.222002 0.314707 0.011755
v -0.164094 0.309955 -0.027860
v -0.194411 0.249164 0.004259
v -0.222529 0.314749 0.012158
v -0.158229 0.261456 -0.039075
v 0.106004 0.001995 0.114697
v 0.069022 0.017022 0.099317
v 0.048703 0.005600 0.100761
v 0.106004 0.001995 0.114697
v 0.049491 0.018241 0.100524
v 0.026025 0.007518 0.082266
v 0.041067 0.018442 0.082029
v 0.020225 0.075268 0.098499
v -0.018118 0.077299 0.100689
v 0.041067 0.018442 0.082029
v 0.049491 0.018241 0.100524
v -0.018208 0.077275 0.100680
v -0.038281 0.069748 0.064924
v 0.018846 0.075111 0.098359
v 0.013594 0.067314 0.064667
v -0.018447 0.137637 0.099462
v 0.030321 0.137613 0.092296
v 0.033123 0.137695 0.093269
v 0.085119 0.163336 0.078060
v -0.008925 0.183716 0.093749
v -0.085336 0.177404 0.089655
v -0.100047 0.223468 0.089717
v 0.016114 0.233913 0.110392
v 0.118144 0.205431 0.070563
v 0.138377 0.251288 0.079788
v 0.135350 0.313582 0.056915
v 0.158430 0.381312 0.022671
v 0.077475 0.329708 0.067791
v 0.003784 0.314294 0.080277
v 0.136523 0.403997 0.022839
v -0.098221 0.299986 0.090662
v -0.156224 0.251884 0.047530
v -0.194411 0.249164 0.004259
v -0.161771 0.301508 0.047024
v -0.162350 0.301632 0.047451
v -0.222529 0.314749 0.012158
v 0.152713 0.429026 0.032752
v 0.184081 0.396543 0.032511
v 0.184999 0.445885 0.025182
v 0.215974 0.450625 -0.001247
v 0.216312 0.413396 0.018630
v 0.244191 0.392614 -0.001435
v 0.230046 0.431204 -0.001351
vn -0.8938 -0.4300 -0.1275
vn -0.8973 -0.4406 -0.0275
vn -0.9537 -0.1734 -0.2457
vn 0.9779 0.2077 -0.0257
vn 0.9905 0.0660 -0.1210
vn 0.8222 0.2411 -0.5155
vn 0.6234 0.7819 0.0057
vn 0.4907 0.7144 0.4989
vn 0.7248 0.6816 0.1004
vn -0.9273 -0.1999 0.3165
vn 0.2070 -0.5847 0.7844
vn 0.7132 -0.6912 -0.1162
vn -0.3017 -0.2013 -0.9319
vn -0.5853 -0.6349 0.5042
vn -0.3211 -0.5349 0.7815
vn -0.0969 -0.1405 0.9853
vn 0.1584 0.3215 0.9336
vn 0.9923 0.0353 0.1185
vn 0.9891 0.0403 0.1418
vn 0.1340 0.2280 0.9644
vn 0.9897 0.0657 0.1269
vn 0.8475 0.2364 0.4752
vn 0.2757 0.5056 0.8176
vn -0.6900 -0.7235 0.0232
vn -0.6879 -0.7257 0.0124
vn -0.6907 -0.7229 0.0179
vn -0.6885 -0.7249 0.0217
vn 0.0159 -0.9781 0.2073
vn 0.8451 -0.4813 0.2329
vn -0.0622 -0.8551 -0.5147
vn 0.0789 -0.5880 -0.8050
vn -0.0025 -0.1823 -0.9832
vn -0.0989 0.3374 -0.9362
vn 0.7354 0.6579 -0.1624
vn 0.7415 0.6564 -0.1392
vn -0.0587 0.2504 -0.9664
vn 0.7200 0.6781 -0.1474
vn 0.4955 0.7157 -0.4922
vn -0.1231 0.5564 -0.8218
vn -0.0701 -0.9975 -0.0000
vn -0.0733 -0.9972 -0.0107
vn -0.0741 -0.9972 -0.0054
vn -0.0712 -0.9974 -0.0093
vn -0.6844 -0.7291 0.0031
vn -0.2047 0.3219 -0.9244
vn 0.0979 0.2883 -0.9525
vn 0.1187 0.4613 -0.8793
vn -0.0563 0.2095 -0.9762
vn -0.1619 0.8461 -0.5078
vn 0.0561 0.9629 -0.2639
vn 0.1045 0.4970 -0.8614
vn -0.9525 -0.1407 -0.2700
vn -0.9347 0.1309 -0.3305
vn -0.9540 -0.1397 -0.2654
vn 0.1109 0.3524 -0.9293
vn -0.8113 0.5186 -0.2699
vn 0.8395 0.2469 0.4840
vn 0.8381 0.0502 0.5431
vn -0.1260 0.9285 0.3493
vn 0.9510 -0.3086 -0.0208
vn 0.0118 0.9565 -0.2915
vn 0.0021 -0.6747 -0.7381
vn 0.4611 0.5304 -0.7114
vn -0.4918 0.5231 -0.6961
vn -0.5511 0.1639 -0.8182
vn -0.1221 0.0588 -0.9908
vn 0.6378 -0.2821 -0.7167
vn 0.8413 -0.5275 -0.1183
vn 0.8734 -0.4815 -0.0726
vn 0.5706 -0.3287 -0.7525
vn 0.3801 -0.5129 -0.7697
vn 0.4087 -0.9126 -0.0106
vn 0.1221 -0.9925 -0.0005
vn 0.3582 -0.3895 -0.8485
vn -0.7449 -0.6644 -0.0617
vn -0.6128 0.2283 -0.7566
vn -0.3597 0.1652 -0.9183
vn -0.3742 0.6665 -0.6448
vn -0.6285 -0.7422 0.2327
vn -0.7673 0.6007 0.2246
vn -0.7929 0.6093 0.0053
vn -0.2062 0.9725 0.1082
vn -0.3189 0.3434 -0.8834
vn -0.5982 0.8014 0.0043
vn -0.3705 0.9288 0.0022
vn 0.2191 -0.3819 -0.8978
vn 0.6162 -0.7876 -0.0046
vn 0.3703 -0.9289 -0.0025
vn 0.1271 0.5310 -0.8378
vn 0.0977 0.9952 -0.0020
vn 0.4997 0.5035 -0.7048
vn 0.4997 -0.0266 -0.8658
vn 0.4226 -0.2486 -0.8716
vn 0.5932 0.3379 -0.7307
vn -0.1458 0.9766 -0.1583
vn -0.0597 0.9926 0.1059
vn -0.6323 0.0224 -0.7744
vn -0.6609 -0.2221 -0.7168
vn -0.5671 -0.1455 -0.8107
vn -0.7206 -0.0783 -0.6889
vn -0.0650 -0.9978 0.0093
vn -0.0905 0.2955 0.9510
vn -0.3460 0.1288 0.9294
vn -0.1857 0.4414 0.8779
vn -0.1603 0.1364 0.9776
vn -0.6535 0.5562 0.5134
vn -0.5638 0.7821 0.2653
vn -0.2239 0.4875 0.8439
vn -0.7137 -0.5549 0.4275
vn -0.6501 -0.7060 0.2809
vn -0.6475 -0.7060 0.2869
vn -0.1551 0.3873 0.9088
vn -0.9202 -0.2206 0.3234
vn 0.2644 0.7312 -0.6288
vn 0.3302 0.5611 -0.7590
vn -0.6678 0.6111 -0.4249
vn 0.9714 0.0132 -0.2372
vn -0.2662 0.9437 0.1966
vn 0.8009 -0.1923 0.5671
vn -0.5463 0.4793 0.6869
vn -0.4317 0.3022 0.8499
vn -0.5159 0.0266 0.8563
vn 0.0038 -0.0727 0.9974
vn 0.7335 -0.2932 0.6132
vn 0.6400 -0.3547 0.6816
vn 0.0916 -0.3141 0.9449
vn 0.3494 -0.4030 0.8459
vn -0.8825 0.1226 -0.4542
vn -0.7250 0.5534 0.4100
vn -0.3475 0.1580 0.9243
vn -0.3363 0.5198 0.7853
vn -0.6856 -0.2235 0.6928
vn -0.6286 -0.3765 0.6805
vn -0.1350 0.9216 0.3638
vn -0.5881 -0.1483 0.7950
vn -0.5302 -0.3218 0.7844
vn -0.3035 0.3453 0.8881
vn 0.2348 -0.3802 0.8946
vn 0.1417 0.5328 0.8343
vn 0.5121 0.5051 0.6947
vn 0.5149 -0.0249 0.8569
vn 0.4380 -0.2470 0.8644
vn 0.6061 0.3395 0.7193
vt 0.720701 0.653630
vt 0.799110 0.513958
vt 0.755933 0.599506
vt 0.451605 0.930846
vt 0.462961 0.909486
vt 0.424431 0.931143
vt 0.451605 0.930846
vt 0.441665 0.719581
vt 0.388270 0.687645
vt 0.557982 0.719581
vt 0.491715 0.796377
vt 0.560897 0.796377
vt 0.490565 0.909486
vt 0.491728 0.786597
vt 0.504688 0.929750
vt 0.462966 0.908893
vt 0.425638 0.930550
vt 0.482252 0.930577
vt 0.491715 0.796377
vt 0.560897 0.796377
vt 0.482262 0.908921
vt 0.540088 0.786636
vt 0.522995 0.703204
vt 0.441686 0.703138
vt 0.388312 0.654386
vt 0.549342 0.599506
vt 0.681405 0.596716
vt 0.685950 0.509722
vt 0.485432 0.513958
vt 0.315774 0.592335
vt 0.278079 0.618557
vt 0.183565 0.502934
vt 0.268280 0.513958
vt 0.269814 0.385793
vt 0.156462 0.409926
vt 0.156267 0.291363
vt 0.226607 0.267834
vt 0.368049 0.351622
vt 0.485432 0.375300
vt 0.262866 0.227584
vt 0.658185 0.377549
vt 0.398522 0.313389
vt 0.557836 0.345086
vt 0.344827 0.181365
vt 0.764795 0.306485
vt 0.255710 0.132463
vt 0.316292 0.117749
vt 0.291898 0.055006
vt 0.203792 0.190095
vt 0.185918 0.188314
vt 0.134479 0.127174
vt 0.192391 0.037306
vt 0.236993 0.021594
vt 0.132597 0.010777
vt 0.117627 0.093966
vt 0.077042 0.125425
vt 0.112945 0.020945
vt 0.764990 0.367065
vt 0.895622 0.289304
vt 0.833484 0.454897
vt 0.768009 0.452170
vt 0.540088 0.786636
vt 0.485432 0.513958
vt 0.368049 0.351622
vt 0.658185 0.377549
vt 0.189960 0.038278
s 1
usemtl Chicken1_Mat
f 1/1/1 2/2/2 3/3/3
f 4/4/4 5/5/5 6/6/6
f 7/7/7 8/6/8 9/5/9
f 10/3/10 2/2/2 1/1/1
f 1/1/1 11/8/11 12/9/12
f 11/8/11 1/1/1 13/10/13
f 13/10/13 14/11/14 11/8/11
f 14/11/14 13/10/13 15/12/15
f 15/12/15 16/13/16 14/11/14
f 14/11/14 16/13/16 17/5/17
f 5/5/5 18/14/18 19/11/19
f 17/5/17 16/13/16 20/15/20
f 18/14/18 5/5/5 21/16/21
f 5/5/5 4/4/4 21/16/21
f 21/16/21 4/4/4 22/17/22
f 20/15/20 23/6/23 17/5/17
f 24/15/24 25/4/25 26/6/26
f 25/4/25 24/15/24 27/18/27
f 28/8/28 1/1/1 12/9/12
f 1/1/1 28/8/28 29/10/29
f 30/19/30 29/10/29 28/8/28
f 29/10/29 30/19/30 31/20/31
f 32/13/32 31/20/31 30/19/30
f 30/19/30 33/5/33 32/13/32
f 9/5/9 34/19/34 35/14/35
f 33/5/33 36/15/36 32/13/32
f 35/14/35 37/16/37 9/5/9
f 9/5/9 37/16/37 7/7/7
f 37/16/37 38/17/38 7/7/7
f 39/6/39 36/15/36 33/5/33
f 40/7/40 41/15/41 42/6/42
f 41/15/41 40/7/40 43/18/43
f 27/18/27 44/17/44 25/4/25
f 45/18/45 46/16/46 47/17/47
f 46/16/46 45/18/45 48/21/48
f 49/15/49 48/21/48 45/18/45
f 48/21/48 49/15/49 50/13/50
f 48/21/48 51/14/51 46/16/46
f 52/13/52 53/22/53 54/21/54
f 51/14/51 48/21/48 55/22/55
f 53/22/53 52/13/52 56/12/56
f 13/10/13 53/22/53 56/12/56
f 57/14/57 11/8/11 58/11/58
f 59/23/59 53/22/53 13/10/13
f 59/23/59 51/14/51 55/22/55
f 3/3/3 13/10/13 1/1/1
f 3/3/3 59/23/59 13/10/13
f 11/8/11 57/14/57 60/24/60
f 61/24/61 51/14/51 59/23/59
f 62/25/62 11/8/11 60/24/60
f 62/25/62 12/9/12 11/8/11
f 59/23/59 63/26/63 61/24/61
f 63/26/63 62/25/62 61/24/61
f 59/23/59 3/3/3 64/27/64
f 64/27/64 63/26/63 59/23/59
f 3/3/3 65/28/65 64/27/64
f 65/28/65 63/26/63 64/27/64
f 65/28/65 3/3/3 2/2/2
f 62/25/62 63/26/63 66/29/66
f 63/26/63 65/28/65 66/29/66
f 67/30/67 12/9/12 62/25/62
f 66/29/66 67/30/67 62/25/62
f 12/9/12 67/30/67 68/31/68
f 67/30/67 69/32/69 68/31/68
f 69/32/69 67/30/67 70/33/70
f 67/30/67 66/29/66 70/33/70
f 71/34/71 69/32/69 70/33/70
f 66/29/66 71/34/71 70/33/70
f 69/32/69 71/34/71 72/35/72
f 73/36/73 72/35/72 74/37/74
f 72/35/72 71/34/71 74/37/74
f 71/34/71 66/29/66 75/38/75
f 75/38/75 74/37/74 71/34/71
f 75/38/75 66/29/66 76/39/76
f 74/37/74 75/38/75 77/40/77
f 66/29/66 78/41/78 76/39/76
f 78/41/78 66/29/66 65/28/65
f 76/39/76 79/42/79 75/38/75
f 79/42/79 77/40/77 75/38/75
f 79/42/79 76/39/76 80/43/80
f 78/41/78 80/43/80 76/39/76
f 77/40/77 79/42/79 81/44/81
f 80/43/80 78/41/78 82/45/82
f 81/44/81 83/46/83 77/40/77
f 83/46/83 81/44/81 84/47/84
f 83/46/83 84/47/84 85/48/85
f 77/40/77 86/49/86 74/37/74
f 86/49/86 77/40/77 83/46/83
f 86/49/86 87/50/87 74/37/74
f 86/49/86 88/51/88 87/50/87
f 85/48/85 89/52/89 83/46/83
f 90/53/90 89/52/89 85/48/85
f 91/54/91 89/52/89 90/53/90
f 83/46/83 92/55/92 86/49/86
f 92/55/92 83/46/83 89/52/89
f 92/55/92 88/51/88 86/49/86
f 92/55/92 89/52/89 91/54/91
f 88/51/88 92/55/92 93/56/93
f 91/54/91 94/57/94 92/55/92
f 94/57/94 93/56/93 92/55/92
f 95/58/95 82/45/82 78/41/78
f 82/45/82 95/58/95 96/59/96
f 97/58/97 98/60/98 99/59/99
f 97/58/97 78/41/78 100/61/100
f 98/60/98 97/58/97 100/61/100
f 78/41/78 65/28/65 100/61/100
f 100/61/100 2/2/2 98/60/98
f 2/2/2 100/61/100 65/28/65
f 101/17/101 43/18/43 40/7/40
f 102/16/102 103/18/103 104/17/104
f 103/18/103 102/16/102 105/21/105
f 105/21/105 106/15/106 103/18/103
f 106/15/106 105/21/105 107/13/107
f 108/14/108 105/21/105 102/16/102
f 109/62/109 110/13/110 111/21/111
f 105/21/105 108/14/108 112/62/112
f 110/13/110 109/62/109 113/20/113
f 29/10/29 113/20/113 109/62/109
f 28/8/28 114/14/114 115/19/115
f 116/23/116 29/10/29 109/62/109
f 116/23/116 112/62/112 108/14/108
f 1/1/1 29/10/29 10/3/10
f 116/23/116 10/3/10 29/10/29
f 114/14/114 28/8/28 117/24/117
f 108/14/108 118/24/118 116/23/116
f 117/24/117 28/8/28 119/25/119
f 12/9/12 119/25/119 28/8/28
f 116/23/116 118/24/118 120/26/120
f 119/25/119 120/26/120 118/24/118
f 10/3/10 116/23/116 121/27/121
f 121/27/121 116/23/116 120/26/120
f 122/28/122 10/3/10 121/27/121
f 122/28/122 121/27/121 120/26/120
f 10/3/10 122/28/122 2/2/2
f 120/26/120 119/25/119 123/63/123
f 123/63/123 122/28/122 120/26/120
f 12/9/12 124/30/124 119/25/119
f 124/30/124 123/63/123 119/25/119
f 124/30/124 12/9/12 68/31/68
f 69/32/69 124/30/124 68/31/68
f 69/32/69 125/33/125 124/30/124
f 123/63/123 124/30/124 125/33/125
f 69/32/69 126/34/126 125/33/125
f 126/34/126 123/63/123 125/33/125
f 126/34/126 69/32/69 72/35/72
f 127/37/127 72/35/72 73/36/73
f 72/35/72 127/37/127 126/34/126
f 123/63/123 126/34/126 128/64/128
f 127/37/127 128/64/128 126/34/126
f 129/39/129 123/63/123 128/64/128
f 128/64/128 127/37/127 130/40/130
f 79/42/79 129/39/129 128/64/128
f 130/40/130 79/42/79 128/64/128
f 129/39/129 79/42/79 80/43/80
f 79/42/79 130/40/130 81/44/81
f 80/43/80 131/65/131 129/39/129
f 131/65/131 123/63/123 129/39/129
f 123/63/123 131/65/131 122/28/122
f 131/65/131 80/43/80 82/45/82
f 122/28/122 131/65/131 132/61/132
f 132/61/132 2/2/2 122/28/122
f 2/2/2 132/61/132 133/60/133
f 134/58/134 131/65/131 82/45/82
f 135/58/135 132/61/132 131/65/131
f 133/60/133 132/61/132 135/58/135
f 82/45/82 96/59/96 134/58/134
f 135/58/135 136/59/136 133/60/133
f 137/46/137 81/44/81 130/40/130
f 137/46/137 84/47/84 81/44/81
f 137/46/137 85/48/85 84/47/84
f 130/40/130 138/49/138 137/46/137
f 127/37/127 138/49/138 130/40/130
f 87/50/87 138/49/138 127/37/127
f 138/49/138 87/50/87 88/51/88
f 85/48/85 137/46/137 139/66/139
f 139/66/139 90/53/90 85/48/85
f 140/54/140 90/53/90 139/66/139
f 141/55/141 137/46/137 138/49/138
f 137/46/137 141/55/141 139/66/139
f 138/49/138 88/51/88 141/55/141
f 139/66/139 141/55/141 140/54/140
f 141/55/141 88/51/88 142/56/142
f 141/55/141 143/57/143 140/54/140
f 142/56/142 143/57/143 141/55/141
