# Blender 4.1.1
# www.blender.org
mtllib 19.mtl
o Object_7
v -0.113641 0.163679 -0.002364
v -0.169402 0.218407 0.000332
v -0.139260 0.188200 -0.042424
v -0.080836 0.017212 -0.087794
v -0.079471 0.034131 -0.079400
v -0.061502 -0.003034 -0.063989
v 0.082691 -0.000576 0.089958
v 0.110229 -0.001661 0.065650
v 0.071594 0.012289 0.081598
v -0.134412 0.176209 0.036787
v -0.016993 0.134016 -0.044154
v 0.070692 0.146911 -0.008205
v -0.094279 0.163515 -0.039511
v -0.081595 0.104598 -0.062817
v -0.123029 0.136733 -0.062654
v -0.098683 0.054485 -0.078893
v -0.079471 0.034131 -0.079400
v -0.075515 0.110309 -0.095684
v -0.080306 0.104950 -0.062643
v -0.117133 0.056765 -0.078707
v -0.079611 0.034436 -0.096688
v -0.063183 -0.001727 -0.112576
v -0.061502 -0.003034 -0.063989
v -0.117133 0.056765 -0.078707
v -0.080836 0.017212 -0.087794
v -0.061502 -0.003034 -0.063989
v -0.102285 0.039957 -0.097602
v 0.025076 0.126777 0.035409
v -0.051794 0.124746 0.039216
v 0.019397 0.061862 0.064948
v -0.038554 0.062726 0.064205
v 0.043615 0.013215 0.081598
v 0.071594 0.012289 0.081598
v 0.020833 0.061775 0.065124
v 0.021075 0.069390 0.098069
v 0.028908 0.001845 0.081835
v 0.071600 0.012636 0.098886
v 0.109017 -0.001274 0.114266
v 0.110229 -0.001661 0.065650
v 0.082691 -0.000576 0.089958
v 0.028908 0.001845 0.081835
v 0.110229 -0.001661 0.065650
v 0.051633 0.000609 0.100330
v -0.063183 -0.001727 -0.112576
v -0.102285 0.039957 -0.097602
v -0.079611 0.034436 -0.096688
v -0.063183 -0.001727 -0.112576
v -0.093080 0.048658 -0.097540
v -0.117133 0.056765 -0.078707
v -0.098683 0.054485 -0.078893
v -0.075515 0.110309 -0.095684
v -0.098683 0.054485 -0.078893
v -0.102250 0.136783 -0.097394
v -0.093080 0.048658 -0.097540
v -0.102456 0.136657 -0.097412
v -0.121748 0.138578 -0.062360
v -0.077226 0.110085 -0.095851
v -0.084573 0.103321 -0.063545
v -0.070585 0.168636 -0.098198
v -0.021599 0.148903 -0.098244
v -0.023486 0.146809 -0.097270
v 0.054686 0.170167 -0.090479
v -0.033612 0.201067 -0.097650
v -0.103813 0.204634 -0.092594
v -0.107602 0.244796 -0.086972
v 0.005548 0.254368 -0.110713
v 0.106852 0.217138 -0.081812
v 0.144962 0.197225 -0.010237
v 0.173121 0.268621 -0.002348
v 0.134629 0.266822 -0.084879
v 0.134464 0.314127 -0.057372
v 0.160842 0.301720 -0.000481
v 0.177265 0.377411 -0.000455
v 0.159063 0.380018 -0.023707
v 0.076865 0.331571 -0.066694
v 0.000914 0.327497 -0.069610
v 0.137563 0.403090 -0.023615
v -0.102102 0.318174 -0.073823
v 0.059767 0.349983 0.000438
v -0.021586 0.342825 0.008418
v 0.111293 0.412364 -0.000155
v -0.138459 0.318836 0.011068
v 0.154061 0.427813 -0.033787
v 0.141356 0.441638 -0.000323
v 0.174001 0.457924 -0.000489
v 0.184846 0.394776 -0.033918
v 0.177265 0.377411 -0.000455
v 0.209675 0.381244 -0.000621
v 0.186742 0.444103 -0.026681
v 0.191215 0.463449 -0.000574
v 0.218152 0.448327 -0.000696
v 0.217557 0.411070 -0.020501
v 0.245331 0.389821 -0.000797
v 0.231876 0.428658 -0.000752
v -0.163492 0.309972 -0.027366
v -0.221866 0.314725 0.012840
v -0.164085 0.310250 -0.026908
v -0.194376 0.249168 0.004679
v -0.222420 0.314694 0.013297
v -0.158288 0.261860 -0.038618
v 0.109017 -0.001274 0.114266
v 0.071600 0.012636 0.098886
v 0.051633 0.000609 0.100330
v 0.109017 -0.001274 0.114266
v 0.052042 0.013267 0.100093
v 0.028908 0.001845 0.081835
v 0.043615 0.013215 0.081598
v 0.021075 0.069390 0.098069
v -0.017262 0.070438 0.100259
v 0.043615 0.013215 0.081598
v 0.052042 0.013267 0.100093
v -0.017347 0.070425 0.100249
v -0.037063 0.062942 0.064484
v 0.019766 0.069373 0.097927
v 0.014933 0.062121 0.064215
v -0.018421 0.132945 0.099109
v 0.030892 0.135326 0.091766
v 0.033634 0.135169 0.092798
v 0.085542 0.162249 0.077337
v -0.008702 0.181866 0.093380
v -0.085153 0.175161 0.089339
v -0.099906 0.222104 0.089710
v 0.016275 0.232564 0.110226
v 0.118260 0.204439 0.069973
v 0.138386 0.249944 0.079563
v 0.135192 0.312365 0.057143
v 0.159287 0.380042 0.022968
v 0.077559 0.329279 0.067896
v 0.004104 0.313496 0.080675
v 0.137788 0.403114 0.023060
v -0.097919 0.299149 0.091278
v -0.156083 0.251426 0.047883
v -0.194376 0.249168 0.004679
v -0.161571 0.301124 0.047834
v -0.162167 0.301178 0.048312
v -0.222420 0.314694 0.013297
v 0.154383 0.427847 0.033046
v 0.185168 0.394810 0.032915
v 0.186993 0.444130 0.025610
v 0.218152 0.448327 -0.000696
v 0.217748 0.411090 0.019167
v 0.245331 0.389821 -0.000797
v 0.231876 0.428658 -0.000752
vn -0.8943 -0.4199 -0.1549
vn -0.8981 -0.4387 -0.0308
vn -0.9526 -0.1759 -0.2481
vn 0.9889 0.1463 -0.0274
vn 0.9924 0.0041 -0.1227
vn 0.8348 0.1892 -0.5171
vn 0.5996 0.8003 0.0057
vn 0.4691 0.7288 0.4989
vn 0.7040 0.7031 0.1004
vn -0.9302 -0.1928 0.3124
vn 0.2109 -0.5965 0.7744
vn 0.7112 -0.6909 -0.1302
vn -0.3882 -0.1307 -0.9123
vn -0.6188 -0.6015 0.5051
vn -0.3548 -0.5185 0.7780
vn -0.1036 -0.1338 0.9856
vn 0.1799 0.3114 0.9331
vn 0.9928 -0.0266 0.1168
vn 0.9899 -0.0215 0.1401
vn 0.1497 0.2196 0.9640
vn 0.9921 0.0039 0.1251
vn 0.8615 0.1833 0.4736
vn 0.3081 0.4877 0.8168
vn -0.7337 -0.6790 0.0247
vn -0.7318 -0.6814 0.0139
vn -0.7344 -0.6784 0.0195
vn -0.7323 -0.6806 0.0233
vn 0.0354 -0.9822 0.1846
vn 0.5837 -0.4869 0.6498
vn -0.0421 -0.8539 -0.5188
vn 0.0888 -0.5770 -0.8119
vn 0.0025 -0.1816 -0.9834
vn -0.1089 0.3340 -0.9363
vn 0.7153 0.6797 -0.1624
vn 0.7214 0.6784 -0.1392
vn -0.0662 0.2485 -0.9664
vn 0.6993 0.6994 -0.1474
vn 0.4738 0.7303 -0.4922
vn -0.1397 0.5524 -0.8218
vn -0.0401 -0.9992 -0.0000
vn -0.0433 -0.9990 -0.0107
vn -0.0441 -0.9990 -0.0054
vn -0.0412 -0.9991 -0.0093
vn -0.7285 -0.6850 0.0046
vn -0.1858 0.3337 -0.9242
vn 0.1141 0.2813 -0.9528
vn 0.1457 0.4527 -0.8797
vn -0.0448 0.2122 -0.9762
vn -0.1097 0.8544 -0.5079
vn 0.1156 0.9574 -0.2645
vn 0.1237 0.4907 -0.8625
vn -0.9598 -0.0816 -0.2686
vn -0.9274 0.1944 -0.3195
vn -0.9613 -0.0803 -0.2636
vn 0.1290 0.3444 -0.9299
vn -0.7740 0.5766 -0.2616
vn 0.8509 0.2124 0.4805
vn 0.8428 0.0134 0.5381
vn -0.0749 0.9371 0.3408
vn 0.9451 -0.3255 -0.0301
vn 0.0293 0.9556 -0.2931
vn -0.0104 -0.6707 -0.7417
vn 0.4804 0.5141 -0.7106
vn -0.4834 0.5346 -0.6932
vn -0.5519 0.1724 -0.8159
vn -0.1247 0.0670 -0.9899
vn 0.6318 -0.2825 -0.7218
vn 0.8397 -0.5275 -0.1287
vn 0.8744 -0.4786 -0.0797
vn 0.5686 -0.3259 -0.7553
vn 0.3842 -0.5122 -0.7682
vn 0.4190 -0.9077 -0.0246
vn 0.1087 -0.9941 -0.0004
vn 0.3539 -0.3945 -0.8480
vn -0.7527 -0.6559 -0.0571
vn -0.6171 0.2352 -0.7509
vn -0.3537 0.1709 -0.9196
vn -0.3745 0.6730 -0.6378
vn -0.6269 -0.7440 0.2315
vn -0.7655 0.5984 0.2366
vn -0.7827 0.6224 0.0022
vn -0.2048 0.9717 0.1181
vn -0.3093 0.3493 -0.8845
vn -0.5838 0.8119 0.0023
vn -0.3538 0.9353 0.0011
vn 0.2157 -0.3855 -0.8971
vn 0.6021 -0.7984 -0.0025
vn 0.3537 -0.9354 -0.0014
vn 0.1398 0.5289 -0.8371
vn 0.1154 0.9933 -0.0012
vn 0.5114 0.4947 -0.7027
vn 0.5025 -0.0352 -0.8639
vn 0.4215 -0.2558 -0.8700
vn 0.6020 0.3275 -0.7282
vn -0.1452 0.9782 -0.1488
vn -0.0585 0.9916 0.1156
vn -0.6342 0.0306 -0.7725
vn -0.6628 -0.2144 -0.7174
vn -0.5692 -0.1370 -0.8107
vn -0.7221 -0.0713 -0.6881
vn -0.0350 -0.9993 0.0093
vn -0.0993 0.2927 0.9510
vn -0.3497 0.1184 0.9294
vn -0.1989 0.4356 0.8779
vn -0.1644 0.1315 0.9776
vn -0.6700 0.5363 0.5134
vn -0.5870 0.7648 0.2653
vn -0.2329 0.4823 0.8445
vn -0.7024 -0.5736 0.4214
vn -0.6310 -0.7240 0.2787
vn -0.6272 -0.7238 0.2875
vn -0.1612 0.3837 0.9093
vn -0.9177 -0.2388 0.3175
vn 0.2520 0.7412 -0.6222
vn 0.3190 0.5829 -0.7473
vn -0.6720 0.6031 -0.4297
vn 0.9691 0.0315 -0.2447
vn -0.2838 0.9374 0.2018
vn 0.8056 -0.1877 0.5619
vn -0.5491 0.4730 0.6890
vn -0.4226 0.3066 0.8529
vn -0.5151 0.0215 0.8569
vn 0.0070 -0.0785 0.9969
vn 0.7356 -0.2993 0.6077
vn 0.6412 -0.3602 0.6776
vn 0.0918 -0.3218 0.9424
vn 0.3393 -0.4077 0.8477
vn -0.8840 0.1212 -0.4515
vn -0.7231 0.5518 0.4155
vn -0.3486 0.1634 0.9229
vn -0.3335 0.5135 0.7906
vn -0.6848 -0.2280 0.6922
vn -0.6273 -0.3827 0.6783
vn -0.1332 0.9182 0.3730
vn -0.5860 -0.1556 0.7952
vn -0.5286 -0.3291 0.7825
vn -0.3008 0.3503 0.8870
vn 0.2244 -0.3846 0.8954
vn 0.1479 0.5299 0.8351
vn 0.5183 0.4957 0.6969
vn 0.5110 -0.0344 0.8589
vn 0.4301 -0.2551 0.8660
vn 0.6093 0.3284 0.7218
vt 0.720701 0.653630
vt 0.799110 0.513958
vt 0.755933 0.599506
vt 0.451605 0.930846
vt 0.462961 0.909486
vt 0.424431 0.931143
vt 0.451605 0.930846
vt 0.441665 0.719581
vt 0.388270 0.687645
vt 0.557982 0.719581
vt 0.491715 0.796377
vt 0.560897 0.796377
vt 0.490565 0.909486
vt 0.491728 0.786597
vt 0.504688 0.929750
vt 0.462966 0.908893
vt 0.425638 0.930550
vt 0.482252 0.930577
vt 0.491715 0.796377
vt 0.560897 0.796377
vt 0.482262 0.908921
vt 0.540088 0.786636
vt 0.522995 0.703204
vt 0.441686 0.703138
vt 0.388312 0.654386
vt 0.549342 0.599506
vt 0.681405 0.596716
vt 0.685950 0.509722
vt 0.485432 0.513958
vt 0.315774 0.592335
vt 0.278079 0.618557
vt 0.183565 0.502934
vt 0.268280 0.513958
vt 0.269814 0.385793
vt 0.156462 0.409926
vt 0.156267 0.291363
vt 0.226607 0.267834
vt 0.368049 0.351622
vt 0.485432 0.375300
vt 0.262866 0.227584
vt 0.658185 0.377549
vt 0.398522 0.313389
vt 0.557836 0.345086
vt 0.344827 0.181365
vt 0.764795 0.306485
vt 0.255710 0.132463
vt 0.316292 0.117749
vt 0.291898 0.055006
vt 0.203792 0.190095
vt 0.185918 0.188314
vt 0.134479 0.127174
vt 0.192391 0.037306
vt 0.236993 0.021594
vt 0.132597 0.010777
vt 0.117627 0.093966
vt 0.077042 0.125425
vt 0.112945 0.020945
vt 0.764990 0.367065
vt 0.895622 0.289304
vt 0.833484 0.454897
vt 0.768009 0.452170
vt 0.540088 0.786636
vt 0.485432 0.513958
vt 0.368049 0.351622
vt 0.658185 0.377549
vt 0.189960 0.038278
s 1
usemtl Chicken1_Mat
f 1/1/1 2/2/2 3/3/3
f 4/4/4 5/5/5 6/6/6
f 7/7/7 8/6/8 9/5/9
f 10/3/10 2/2/2 1/1/1
f 1/1/1 11/8/11 12/9/12
f 11/8/11 1/1/1 13/10/13
f 13/10/13 14/11/14 11/8/11
f 14/11/14 13/10/13 15/12/15
f 15/12/15 16/13/16 14/11/14
f 14/11/14 16/13/16 17/5/17
f 5/5/5 18/14/18 19/11/19
f 17/5/17 16/13/16 20/15/20
f 18/14/18 5/5/5 21/16/21
f 5/5/5 4/4/4 21/16/21
f 21/16/21 4/4/4 22/17/22
f 20/15/20 23/6/23 17/5/17
f 24/15/24 25/4/25 26/6/26
f 25/4/25 24/15/24 27/18/27
f 28/8/28 1/1/1 12/9/12
f 1/1/1 28/8/28 29/10/29
f 30/19/30 29/10/29 28/8/28
f 29/10/29 30/19/30 31/20/31
f 32/13/32 31/20/31 30/19/30
f 30/19/30 33/5/33 32/13/32
f 9/5/9 34/19/34 35/14/35
f 33/5/33 36/15/36 32/13/32
f 35/14/35 37/16/37 9/5/9
f 9/5/9 37/16/37 7/7/7
f 37/16/37 38/17/38 7/7/7
f 39/6/39 36/15/36 33/5/33
f 40/7/40 41/15/41 42/6/42
f 41/15/41 40/7/40 43/18/43
f 27/18/27 44/17/44 25/4/25
f 45/18/45 46/16/46 47/17/47
f 46/16/46 45/18/45 48/21/48
f 49/15/49 48/21/48 45/18/45
f 48/21/48 49/15/49 50/13/50
f 48/21/48 51/14/51 46/16/46
f 52/13/52 53/22/53 54/21/54
f 51/14/51 48/21/48 55/22/55
f 53/22/53 52/13/52 56/12/56
f 13/10/13 53/22/53 56/12/56
f 57/14/57 11/8/11 58/11/58
f 59/23/59 53/22/53 13/10/13
f 59/23/59 51/14/51 55/22/55
f 3/3/3 13/10/13 1/1/1
f 3/3/3 59/23/59 13/10/13
f 11/8/11 57/14/57 60/24/60
f 61/24/61 51/14/51 59/23/59
f 62/25/62 11/8/11 60/24/60
f 62/25/62 12/9/12 11/8/11
f 59/23/59 63/26/63 61/24/61
f 63/26/63 62/25/62 61/24/61
f 59/23/59 3/3/3 64/27/64
f 64/27/64 63/26/63 59/23/59
f 3/3/3 65/28/65 64/27/64
f 65/28/65 63/26/63 64/27/64
f 65/28/65 3/3/3 2/2/2
f 62/25/62 63/26/63 66/29/66
f 63/26/63 65/28/65 66/29/66
f 67/30/67 12/9/12 62/25/62
f 66/29/66 67/30/67 62/25/62
f 12/9/12 67/30/67 68/31/68
f 67/30/67 69/32/69 68/31/68
f 69/32/69 67/30/67 70/33/70
f 67/30/67 66/29/66 70/33/70
f 71/34/71 69/32/69 70/33/70
f 66/29/66 71/34/71 70/33/70
f 69/32/69 71/34/71 72/35/72
f 73/36/73 72/35/72 74/37/74
f 72/35/72 71/34/71 74/37/74
f 71/34/71 66/29/66 75/38/75
f 75/38/75 74/37/74 71/34/71
f 75/38/75 66/29/66 76/39/76
f 74/37/74 75/38/75 77/40/77
f 66/29/66 78/41/78 76/39/76
f 78/41/78 66/29/66 65/28/65
f 76/39/76 79/42/79 75/38/75
f 79/42/79 77/40/77 75/38/75
f 79/42/79 76/39/76 80/43/80
f 78/41/78 80/43/80 76/39/76
f 77/40/77 79/42/79 81/44/81
f 80/43/80 78/41/78 82/45/82
f 81/44/81 83/46/83 77/40/77
f 83/46/83 81/44/81 84/47/84
f 83/46/83 84/47/84 85/48/85
f 77/40/77 86/49/86 74/37/74
f 86/49/86 77/40/77 83/46/83
f 86/49/86 87/50/87 74/37/74
f 86/49/86 88/51/88 87/50/87
f 85/48/85 89/52/89 83/46/83
f 90/53/90 89/52/89 85/48/85
f 91/54/91 89/52/89 90/53/90
f 83/46/83 92/55/92 86/49/86
f 92/55/92 83/46/83 89/52/89
f 92/55/92 88/51/88 86/49/86
f 92/55/92 89/52/89 91/54/91
f 88/51/88 92/55/92 93/56/93
f 91/54/91 94/57/94 92/55/92
f 94/57/94 93/56/93 92/55/92
f 95/58/95 82/45/82 78/41/78
f 82/45/82 95/58/95 96/59/96
f 97/58/97 98/60/98 99/59/99
f 97/58/97 78/41/78 100/61/100
f 98/60/98 97/58/97 100/61/100
f 78/41/78 65/28/65 100/61/100
f 100/61/100 2/2/2 98/60/98
f 2/2/2 100/61/100 65/28/65
f 101/17/101 43/18/43 40/7/40
f 102/16/102 103/18/103 104/17/104
f 103/18/103 102/16/102 105/21/105
f 105/21/105 106/15/106 103/18/103
f 106/15/106 105/21/105 107/13/107
f 108/14/108 105/21/105 102/16/102
f 109/62/109 110/13/110 111/21/111
f 105/21/105 108/14/108 112/62/112
f 110/13/110 109/62/109 113/20/113
f 29/10/29 113/20/113 109/62/109
f 28/8/28 114/14/114 115/19/115
f 116/23/116 29/10/29 109/62/109
f 116/23/116 112/62/112 108/14/108
f 1/1/1 29/10/29 10/3/10
f 116/23/116 10/3/10 29/10/29
f 114/14/114 28/8/28 117/24/117
f 108/14/108 118/24/118 116/23/116
f 117/24/117 28/8/28 119/25/119
f 12/9/12 119/25/119 28/8/28
f 116/23/116 118/24/118 120/26/120
f 119/25/119 120/26/120 118/24/118
f 10/3/10 116/23/116 121/27/121
f 121/27/121 116/23/116 120/26/120
f 122/28/122 10/3/10 121/27/121
f 122/28/122 121/27/121 120/26/120
f 10/3/10 122/28/122 2/2/2
f 120/26/120 119/25/119 123/63/123
f 123/63/123 122/28/122 120/26/120
f 12/9/12 124/30/124 119/25/119
f 124/30/124 123/63/123 119/25/119
f 124/30/124 12/9/12 68/31/68
f 69/32/69 124/30/124 68/31/68
f 69/32/69 125/33/125 124/30/124
f 123/63/123 124/30/124 125/33/125
f 69/32/69 126/34/126 125/33/125
f 126/34/126 123/63/123 125/33/125
f 126/34/126 69/32/69 72/35/72
f 127/37/127 72/35/72 73/36/73
f 72/35/72 127/37/127 126/34/126
f 123/63/123 126/34/126 128/64/128
f 127/37/127 128/64/128 126/34/126
f 129/39/129 123/63/123 128/64/128
f 128/64/128 127/37/127 130/40/130
f 79/42/79 129/39/129 128/64/128
f 130/40/130 79/42/79 128/64/128
f 129/39/129 79/42/79 80/43/80
f 79/42/79 130/40/130 81/44/81
f 80/43/80 131/65/131 129/39/129
f 131/65/131 123/63/123 129/39/129
f 123/63/123 131/65/131 122/28/122
f 131/65/131 80/43/80 82/45/82
f 122/28/122 131/65/131 132/61/132
f 132/61/132 2/2/2 122/28/122
f 2/2/2 132/61/132 133/60/133
f 134/58/134 131/65/131 82/45/82
f 135/58/135 132/61/132 131/65/131
f 133/60/133 132/61/132 135/58/135
f 82/45/82 96/59/96 134/58/134
f 135/58/135 136/59/136 133/60/133
f 137/46/137 81/44/81 130/40/130
f 137/46/137 84/47/84 81/44/81
f 137/46/137 85/48/85 84/47/84
f 130/40/130 138/49/138 137/46/137
f 127/37/127 138/49/138 130/40/130
f 87/50/87 138/49/138 127/37/127
f 138/49/138 87/50/87 88/51/88
f 85/48/85 137/46/137 139/66/139
f 139/66/139 90/53/90 85/48/85
f 140/54/140 90/53/90 139/66/139
f 141/55/141 137/46/137 138/49/138
f 137/46/137 141/55/141 139/66/139
f 138/49/138 88/51/88 141/55/141
f 139/66/139 141/55/141 140/54/140
f 141/55/141 88/51/88 142/56/142
f 141/55/141 143/57/143 140/54/140
f 142/56/142 143/57/143 141/55/141
