# Blender 4.1.1
# www.blender.org
mtllib 21.mtl
o Object_7
v -0.114973 0.163064 -0.002505
v -0.169513 0.219099 0.000598
v -0.139823 0.188383 -0.042322
v -0.079200 0.016951 -0.087802
v -0.077835 0.033869 -0.079408
v -0.059866 -0.003295 -0.063997
v 0.074582 -0.005413 0.088568
v 0.102120 -0.006498 0.064260
v 0.063485 0.007452 0.080208
v -0.135349 0.176138 0.036811
v -0.016996 0.133402 -0.044335
v 0.069690 0.145569 -0.008661
v -0.093785 0.163162 -0.039565
v -0.080012 0.104339 -0.062827
v -0.121634 0.136522 -0.062653
v -0.097047 0.054224 -0.078901
v -0.077835 0.033869 -0.079408
v -0.073880 0.110047 -0.095692
v -0.078671 0.104689 -0.062651
v -0.115497 0.056503 -0.078715
v -0.077975 0.034175 -0.096696
v -0.061548 -0.001989 -0.112584
v -0.059866 -0.003295 -0.063997
v -0.115497 0.056503 -0.078715
v -0.079200 0.016951 -0.087802
v -0.059866 -0.003295 -0.063997
v -0.100650 0.039695 -0.097610
v 0.021927 0.124658 0.034775
v -0.056743 0.121836 0.038389
v 0.011490 0.057147 0.063593
v -0.045775 0.058472 0.062985
v 0.035506 0.008378 0.080208
v 0.063485 0.007452 0.080208
v 0.012724 0.056937 0.063734
v 0.012966 0.064552 0.096679
v 0.020799 -0.002992 0.080445
v 0.063491 0.007799 0.097496
v 0.100908 -0.006111 0.112876
v 0.102120 -0.006498 0.064260
v 0.074582 -0.005413 0.088568
v 0.020799 -0.002992 0.080445
v 0.102120 -0.006498 0.064260
v 0.043524 -0.004229 0.098940
v -0.061548 -0.001989 -0.112584
v -0.100650 0.039695 -0.097610
v -0.077975 0.034175 -0.096696
v -0.061548 -0.001989 -0.112584
v -0.091444 0.048396 -0.097548
v -0.115497 0.056503 -0.078715
v -0.097047 0.054224 -0.078901
v -0.073880 0.110047 -0.095692
v -0.097047 0.054224 -0.078901
v -0.100646 0.136527 -0.097401
v -0.091444 0.048396 -0.097548
v -0.100859 0.136402 -0.097419
v -0.120288 0.138354 -0.062361
v -0.075652 0.109826 -0.095861
v -0.083171 0.103067 -0.063560
v -0.069480 0.168455 -0.098202
v -0.021151 0.148501 -0.098358
v -0.022859 0.146434 -0.097368
v 0.054640 0.169302 -0.090793
v -0.033461 0.200773 -0.097742
v -0.103734 0.204761 -0.092525
v -0.107605 0.245028 -0.086877
v 0.005564 0.253888 -0.110871
v 0.106659 0.215916 -0.082212
v 0.144664 0.195692 -0.010823
v 0.173294 0.266887 -0.002900
v 0.134560 0.265411 -0.085218
v 0.134560 0.313314 -0.057257
v 0.160783 0.300476 -0.000361
v 0.177883 0.376290 -0.000196
v 0.159779 0.379131 -0.023497
v 0.077188 0.331444 -0.066682
v 0.001384 0.327214 -0.069680
v 0.138570 0.402471 -0.023458
v -0.101704 0.318452 -0.073737
v 0.060112 0.350204 0.000395
v -0.020851 0.342694 0.008376
v 0.112354 0.412067 -0.000068
v -0.137838 0.319362 0.011245
v 0.155405 0.426987 -0.033577
v 0.142781 0.440962 -0.000144
v 0.175628 0.456838 -0.000216
v 0.185773 0.393567 -0.033633
v 0.177883 0.376290 -0.000196
v 0.210339 0.379717 -0.000271
v 0.188267 0.442865 -0.026377
v 0.192910 0.462147 -0.000253
v 0.219655 0.446688 -0.000305
v 0.218649 0.409447 -0.020121
v 0.246100 0.387848 -0.000347
v 0.233132 0.426849 -0.000328
v -0.163031 0.310663 -0.027125
v -0.221264 0.315833 0.013233
v -0.163619 0.310902 -0.026660
v -0.194256 0.250036 0.005011
v -0.221812 0.315760 0.013702
v -0.158197 0.262471 -0.038385
v 0.100908 -0.006111 0.112876
v 0.063491 0.007799 0.097496
v 0.043524 -0.004229 0.098940
v 0.100908 -0.006111 0.112876
v 0.043932 0.008430 0.098703
v 0.020799 -0.002992 0.080445
v 0.035506 0.008378 0.080208
v 0.012966 0.064552 0.096679
v -0.025220 0.065696 0.098896
v 0.035506 0.008378 0.080208
v 0.043932 0.008430 0.098703
v -0.025293 0.065691 0.098889
v -0.044510 0.058540 0.063220
v 0.011842 0.064646 0.096568
v 0.007681 0.057802 0.062971
v -0.024185 0.129505 0.098120
v 0.027308 0.132946 0.091055
v 0.029549 0.132511 0.092011
v 0.083825 0.160480 0.076750
v -0.010605 0.180468 0.092955
v -0.087024 0.174231 0.089088
v -0.100354 0.221952 0.089687
v 0.015905 0.231732 0.109964
v 0.117701 0.202933 0.069498
v 0.138465 0.248509 0.079234
v 0.135111 0.311473 0.057250
v 0.159876 0.379140 0.023179
v 0.077675 0.329033 0.067913
v 0.004690 0.313189 0.080599
v 0.138667 0.402480 0.023218
v -0.097255 0.299409 0.091355
v -0.155831 0.252025 0.048111
v -0.194256 0.250036 0.005011
v -0.160981 0.301807 0.048071
v -0.161562 0.301818 0.048555
v -0.221812 0.315760 0.013702
v 0.155543 0.427001 0.033257
v 0.185912 0.393581 0.033201
v 0.188375 0.442876 0.025915
v 0.219655 0.446688 -0.000305
v 0.218731 0.409455 0.019547
v 0.246100 0.387848 -0.000347
v 0.233132 0.426849 -0.000328
vn -0.9018 -0.3966 -0.1718
vn -0.9042 -0.4261 -0.0297
vn -0.9531 -0.1660 -0.2532
vn 0.9889 0.1463 -0.0274
vn 0.9924 0.0041 -0.1227
vn 0.8348 0.1892 -0.5171
vn 0.5996 0.8003 0.0057
vn 0.4691 0.7288 0.4989
vn 0.7040 0.7031 0.1004
vn -0.9354 -0.1671 0.3116
vn 0.2078 -0.6000 0.7726
vn 0.7086 -0.6933 -0.1313
vn -0.3661 -0.1302 -0.9214
vn -0.6178 -0.6032 0.5045
vn -0.3557 -0.5224 0.7750
vn -0.1037 -0.1340 0.9855
vn 0.1799 0.3115 0.9331
vn 0.9928 -0.0266 0.1168
vn 0.9899 -0.0215 0.1401
vn 0.1497 0.2196 0.9640
vn 0.9921 0.0039 0.1251
vn 0.8615 0.1833 0.4736
vn 0.3081 0.4877 0.8168
vn -0.7337 -0.6790 0.0247
vn -0.7318 -0.6814 0.0139
vn -0.7344 -0.6784 0.0195
vn -0.7323 -0.6806 0.0233
vn -0.0066 -0.9871 0.1600
vn 0.5560 -0.5116 0.6551
vn -0.0535 -0.8512 -0.5221
vn 0.0809 -0.5712 -0.8168
vn 0.0020 -0.1808 -0.9835
vn -0.1088 0.3337 -0.9364
vn 0.7153 0.6797 -0.1624
vn 0.7214 0.6784 -0.1392
vn -0.0662 0.2485 -0.9664
vn 0.6993 0.6994 -0.1474
vn 0.4738 0.7303 -0.4922
vn -0.1397 0.5524 -0.8218
vn -0.0401 -0.9992 -0.0000
vn -0.0433 -0.9990 -0.0107
vn -0.0441 -0.9990 -0.0054
vn -0.0412 -0.9991 -0.0093
vn -0.7285 -0.6850 0.0046
vn -0.1858 0.3337 -0.9242
vn 0.1141 0.2813 -0.9528
vn 0.1457 0.4527 -0.8797
vn -0.0448 0.2122 -0.9762
vn -0.1097 0.8544 -0.5079
vn 0.1156 0.9574 -0.2645
vn 0.1202 0.4913 -0.8627
vn -0.9596 -0.0821 -0.2691
vn -0.9273 0.1879 -0.3237
vn -0.9613 -0.0806 -0.2635
vn 0.1261 0.3453 -0.9300
vn -0.7758 0.5726 -0.2650
vn 0.8489 0.2189 0.4811
vn 0.8407 0.0165 0.5413
vn -0.0846 0.9373 0.3380
vn 0.9445 -0.3269 -0.0314
vn 0.0280 0.9557 -0.2931
vn -0.0130 -0.6702 -0.7420
vn 0.4739 0.5182 -0.7119
vn -0.4873 0.5307 -0.6935
vn -0.5527 0.1745 -0.8149
vn -0.1261 0.0676 -0.9897
vn 0.6299 -0.2846 -0.7226
vn 0.8364 -0.5327 -0.1293
vn 0.8721 -0.4823 -0.0822
vn 0.5659 -0.3265 -0.7570
vn 0.3757 -0.5110 -0.7732
vn 0.4201 -0.9065 -0.0418
vn 0.1005 -0.9949 -0.0003
vn 0.3510 -0.3974 -0.8479
vn -0.7583 -0.6498 -0.0522
vn -0.6152 0.2339 -0.7529
vn -0.3496 0.1749 -0.9204
vn -0.3718 0.6750 -0.6373
vn -0.6241 -0.7462 0.2319
vn -0.7639 0.6001 0.2375
vn -0.7754 0.6314 -0.0000
vn -0.1983 0.9730 0.1185
vn -0.3025 0.3534 -0.8852
vn -0.5736 0.8191 0.0009
vn -0.3421 0.9397 0.0004
vn 0.2134 -0.3879 -0.8966
vn 0.5921 -0.8059 -0.0011
vn 0.3420 -0.9397 -0.0007
vn 0.1487 0.5273 -0.8366
vn 0.1278 0.9918 -0.0006
vn 0.5195 0.4885 -0.7011
vn 0.5044 -0.0413 -0.8625
vn 0.4206 -0.2609 -0.8689
vn 0.6081 0.3201 -0.7265
vn -0.1389 0.9791 -0.1485
vn -0.0513 0.9920 0.1157
vn -0.6361 0.0352 -0.7708
vn -0.6663 -0.2097 -0.7156
vn -0.5723 -0.1330 -0.8092
vn -0.7241 -0.0667 -0.6865
vn -0.0350 -0.9993 0.0093
vn -0.0993 0.2927 0.9510
vn -0.3497 0.1184 0.9294
vn -0.1989 0.4356 0.8779
vn -0.1644 0.1316 0.9776
vn -0.6700 0.5363 0.5134
vn -0.5870 0.7648 0.2653
vn -0.2146 0.4884 0.8458
vn -0.7162 -0.5624 0.4133
vn -0.6332 -0.7228 0.2768
vn -0.6284 -0.7226 0.2881
vn -0.1493 0.3846 0.9109
vn -0.9256 -0.2217 0.3069
vn 0.3047 0.7318 -0.6097
vn 0.3662 0.5806 -0.7271
vn -0.6489 0.6301 -0.4265
vn 0.9720 0.0112 -0.2349
vn -0.2635 0.9403 0.2156
vn 0.7990 -0.1986 0.5675
vn -0.5131 0.5036 0.6950
vn -0.4152 0.3299 0.8478
vn -0.5141 0.0293 0.8572
vn 0.0074 -0.0803 0.9967
vn 0.7319 -0.3082 0.6077
vn 0.6393 -0.3681 0.6752
vn 0.0929 -0.3303 0.9393
vn 0.3321 -0.4108 0.8491
vn -0.8834 0.1233 -0.4522
vn -0.7201 0.5574 0.4134
vn -0.3495 0.1671 0.9219
vn -0.3281 0.5159 0.7913
vn -0.6861 -0.2204 0.6933
vn -0.6281 -0.3783 0.6800
vn -0.1260 0.9191 0.3733
vn -0.5850 -0.1514 0.7967
vn -0.5288 -0.3254 0.7839
vn -0.2988 0.3538 0.8863
vn 0.2171 -0.3876 0.8959
vn 0.1522 0.5278 0.8356
vn 0.5225 0.4890 0.6985
vn 0.5081 -0.0410 0.8603
vn 0.4245 -0.2607 0.8671
vn 0.6113 0.3206 0.7235
vt 0.720701 0.653630
vt 0.799110 0.513958
vt 0.755933 0.599506
vt 0.451605 0.930846
vt 0.462961 0.909486
vt 0.424431 0.931143
vt 0.451605 0.930846
vt 0.441665 0.719581
vt 0.388270 0.687645
vt 0.557982 0.719581
vt 0.491715 0.796377
vt 0.560897 0.796377
vt 0.490565 0.909486
vt 0.491728 0.786597
vt 0.504688 0.929750
vt 0.462966 0.908893
vt 0.425638 0.930550
vt 0.482252 0.930577
vt 0.491715 0.796377
vt 0.560897 0.796377
vt 0.482262 0.908921
vt 0.540088 0.786636
vt 0.522995 0.703204
vt 0.441686 0.703138
vt 0.388312 0.654386
vt 0.549342 0.599506
vt 0.681405 0.596716
vt 0.685950 0.509722
vt 0.485432 0.513958
vt 0.315774 0.592335
vt 0.278079 0.618557
vt 0.183565 0.502934
vt 0.268280 0.513958
vt 0.269814 0.385793
vt 0.156462 0.409926
vt 0.156267 0.291363
vt 0.226607 0.267834
vt 0.368049 0.351622
vt 0.485432 0.375300
vt 0.262866 0.227584
vt 0.658185 0.377549
vt 0.398522 0.313389
vt 0.557836 0.345086
vt 0.344827 0.181365
vt 0.764795 0.306485
vt 0.255710 0.132463
vt 0.316292 0.117749
vt 0.291898 0.055006
vt 0.203792 0.190095
vt 0.185918 0.188314
vt 0.134479 0.127174
vt 0.192391 0.037306
vt 0.236993 0.021594
vt 0.132597 0.010777
vt 0.117627 0.093966
vt 0.077042 0.125425
vt 0.112945 0.020945
vt 0.764990 0.367065
vt 0.895622 0.289304
vt 0.833484 0.454897
vt 0.768009 0.452170
vt 0.540088 0.786636
vt 0.485432 0.513958
vt 0.368049 0.351622
vt 0.658185 0.377549
vt 0.189960 0.038278
s 1
usemtl Chicken1_Mat
f 1/1/1 2/2/2 3/3/3
f 4/4/4 5/5/5 6/6/6
f 7/7/7 8/6/8 9/5/9
f 10/3/10 2/2/2 1/1/1
f 1/1/1 11/8/11 12/9/12
f 11/8/11 1/1/1 13/10/13
f 13/10/13 14/11/14 11/8/11
f 14/11/14 13/10/13 15/12/15
f 15/12/15 16/13/16 14/11/14
f 14/11/14 16/13/16 17/5/17
f 5/5/5 18/14/18 19/11/19
f 17/5/17 16/13/16 20/15/20
f 18/14/18 5/5/5 21/16/21
f 5/5/5 4/4/4 21/16/21
f 21/16/21 4/4/4 22/17/22
f 20/15/20 23/6/23 17/5/17
f 24/15/24 25/4/25 26/6/26
f 25/4/25 24/15/24 27/18/27
f 28/8/28 1/1/1 12/9/12
f 1/1/1 28/8/28 29/10/29
f 30/19/30 29/10/29 28/8/28
f 29/10/29 30/19/30 31/20/31
f 32/13/32 31/20/31 30/19/30
f 30/19/30 33/5/33 32/13/32
f 9/5/9 34/19/34 35/14/35
f 33/5/33 36/15/36 32/13/32
f 35/14/35 37/16/37 9/5/9
f 9/5/9 37/16/37 7/7/7
f 37/16/37 38/17/38 7/7/7
f 39/6/39 36/15/36 33/5/33
f 40/7/40 41/15/41 42/6/42
f 41/15/41 40/7/40 43/18/43
f 27/18/27 44/17/44 25/4/25
f 45/18/45 46/16/46 47/17/47
f 46/16/46 45/18/45 48/21/48
f 49/15/49 48/21/48 45/18/45
f 48/21/48 49/15/49 50/13/50
f 48/21/48 51/14/51 46/16/46
f 52/13/52 53/22/53 54/21/54
f 51/14/51 48/21/48 55/22/55
f 53/22/53 52/13/52 56/12/56
f 13/10/13 53/22/53 56/12/56
f 57/14/57 11/8/11 58/11/58
f 59/23/59 53/22/53 13/10/13
f 59/23/59 51/14/51 55/22/55
f 3/3/3 13/10/13 1/1/1
f 3/3/3 59/23/59 13/10/13
f 11/8/11 57/14/57 60/24/60
f 61/24/61 51/14/51 59/23/59
f 62/25/62 11/8/11 60/24/60
f 62/25/62 12/9/12 11/8/11
f 59/23/59 63/26/63 61/24/61
f 63/26/63 62/25/62 61/24/61
f 59/23/59 3/3/3 64/27/64
f 64/27/64 63/26/63 59/23/59
f 3/3/3 65/28/65 64/27/64
f 65/28/65 63/26/63 64/27/64
f 65/28/65 3/3/3 2/2/2
f 62/25/62 63/26/63 66/29/66
f 63/26/63 65/28/65 66/29/66
f 67/30/67 12/9/12 62/25/62
f 66/29/66 67/30/67 62/25/62
f 12/9/12 67/30/67 68/31/68
f 67/30/67 69/32/69 68/31/68
f 69/32/69 67/30/67 70/33/70
f 67/30/67 66/29/66 70/33/70
f 71/34/71 69/32/69 70/33/70
f 66/29/66 71/34/71 70/33/70
f 69/32/69 71/34/71 72/35/72
f 73/36/73 72/35/72 74/37/74
f 72/35/72 71/34/71 74/37/74
f 71/34/71 66/29/66 75/38/75
f 75/38/75 74/37/74 71/34/71
f 75/38/75 66/29/66 76/39/76
f 74/37/74 75/38/75 77/40/77
f 66/29/66 78/41/78 76/39/76
f 78/41/78 66/29/66 65/28/65
f 76/39/76 79/42/79 75/38/75
f 79/42/79 77/40/77 75/38/75
f 79/42/79 76/39/76 80/43/80
f 78/41/78 80/43/80 76/39/76
f 77/40/77 79/42/79 81/44/81
f 80/43/80 78/41/78 82/45/82
f 81/44/81 83/46/83 77/40/77
f 83/46/83 81/44/81 84/47/84
f 83/46/83 84/47/84 85/48/85
f 77/40/77 86/49/86 74/37/74
f 86/49/86 77/40/77 83/46/83
f 86/49/86 87/50/87 74/37/74
f 86/49/86 88/51/88 87/50/87
f 85/48/85 89/52/89 83/46/83
f 90/53/90 89/52/89 85/48/85
f 91/54/91 89/52/89 90/53/90
f 83/46/83 92/55/92 86/49/86
f 92/55/92 83/46/83 89/52/89
f 92/55/92 88/51/88 86/49/86
f 92/55/92 89/52/89 91/54/91
f 88/51/88 92/55/92 93/56/93
f 91/54/91 94/57/94 92/55/92
f 94/57/94 93/56/93 92/55/92
f 95/58/95 82/45/82 78/41/78
f 82/45/82 95/58/95 96/59/96
f 97/58/97 98/60/98 99/59/99
f 97/58/97 78/41/78 100/61/100
f 98/60/98 97/58/97 100/61/100
f 78/41/78 65/28/65 100/61/100
f 100/61/100 2/2/2 98/60/98
f 2/2/2 100/61/100 65/28/65
f 101/17/101 43/18/43 40/7/40
f 102/16/102 103/18/103 104/17/104
f 103/18/103 102/16/102 105/21/105
f 105/21/105 106/15/106 103/18/103
f 106/15/106 105/21/105 107/13/107
f 108/14/108 105/21/105 102/16/102
f 109/62/109 110/13/110 111/21/111
f 105/21/105 108/14/108 112/62/112
f 110/13/110 109/62/109 113/20/113
f 29/10/29 113/20/113 109/62/109
f 28/8/28 114/14/114 115/19/115
f 116/23/116 29/10/29 109/62/109
f 116/23/116 112/62/112 108/14/108
f 1/1/1 29/10/29 10/3/10
f 116/23/116 10/3/10 29/10/29
f 114/14/114 28/8/28 117/24/117
f 108/14/108 118/24/118 116/23/116
f 117/24/117 28/8/28 119/25/119
f 12/9/12 119/25/119 28/8/28
f 116/23/116 118/24/118 120/26/120
f 119/25/119 120/26/120 118/24/118
f 10/3/10 116/23/116 121/27/121
f 121/27/121 116/23/116 120/26/120
f 122/28/122 10/3/10 121/27/121
f 122/28/122 121/27/121 120/26/120
f 10/3/10 122/28/122 2/2/2
f 120/26/120 119/25/119 123/63/123
f 123/63/123 122/28/122 120/26/120
f 12/9/12 124/30/124 119/25/119
f 124/30/124 123/63/123 119/25/119
f 124/30/124 12/9/12 68/31/68
f 69/32/69 124/30/124 68/31/68
f 69/32/69 125/33/125 124/30/124
f 123/63/123 124/30/124 125/33/125
f 69/32/69 126/34/126 125/33/125
f 126/34/126 123/63/123 125/33/125
f 126/34/126 69/32/69 72/35/72
f 127/37/127 72/35/72 73/36/73
f 72/35/72 127/37/127 126/34/126
f 123/63/123 126/34/126 128/64/128
f 127/37/127 128/64/128 126/34/126
f 129/39/129 123/63/123 128/64/128
f 128/64/128 127/37/127 130/40/130
f 79/42/79 129/39/129 128/64/128
f 130/40/130 79/42/79 128/64/128
f 129/39/129 79/42/79 80/43/80
f 79/42/79 130/40/130 81/44/81
f 80/43/80 131/65/131 129/39/129
f 131/65/131 123/63/123 129/39/129
f 123/63/123 131/65/131 122/28/122
f 131/65/131 80/43/80 82/45/82
f 122/28/122 131/65/131 132/61/132
f 132/61/132 2/2/2 122/28/122
f 2/2/2 132/61/132 133/60/133
f 134/58/134 131/65/131 82/45/82
f 135/58/135 132/61/132 131/65/131
f 133/60/133 132/61/132 135/58/135
f 82/45/82 96/59/96 134/58/134
f 135/58/135 136/59/136 133/60/133
f 137/46/137 81/44/81 130/40/130
f 137/46/137 84/47/84 81/44/81
f 137/46/137 85/48/85 84/47/84
f 130/40/130 138/49/138 137/46/137
f 127/37/127 138/49/138 130/40/130
f 87/50/87 138/49/138 127/37/127
f 138/49/138 87/50/87 88/51/88
f 85/48/85 137/46/137 139/66/139
f 139/66/139 90/53/90 85/48/85
f 140/54/140 90/53/90 139/66/139
f 141/55/141 137/46/137 138/49/138
f 137/46/137 141/55/141 139/66/139
f 138/49/138 88/51/88 141/55/141
f 139/66/139 141/55/141 140/54/140
f 141/55/141 88/51/88 142/56/142
f 141/55/141 143/57/143 140/54/140
f 142/56/142 143/57/143 141/55/141
