# Blender 4.1.1
# www.blender.org
mtllib 22.mtl
o Object_7
v -0.116285 0.162908 -0.002321
v -0.169728 0.220383 0.000706
v -0.140325 0.188358 -0.042060
v -0.064612 0.013269 -0.087989
v -0.064320 0.030236 -0.079586
v -0.044094 -0.005743 -0.064157
v 0.061634 -0.006094 0.088168
v 0.089127 -0.008005 0.063860
v 0.050929 0.007099 0.079808
v -0.136716 0.177223 0.037120
v -0.013525 0.131834 -0.044085
v 0.069419 0.143832 -0.008207
v -0.090585 0.160262 -0.039585
v -0.071029 0.100472 -0.062967
v -0.115105 0.130563 -0.062782
v -0.084765 0.049352 -0.079105
v -0.064320 0.030236 -0.079586
v -0.065096 0.106520 -0.095833
v -0.069601 0.100857 -0.062803
v -0.103322 0.050476 -0.078950
v -0.064449 0.030540 -0.096874
v -0.045770 -0.004520 -0.112746
v -0.044094 -0.005743 -0.064157
v -0.103322 0.050476 -0.078950
v -0.064612 0.013269 -0.087989
v -0.044094 -0.005743 -0.064157
v -0.087422 0.034636 -0.097826
v 0.017723 0.123966 0.034944
v -0.062967 0.123178 0.038240
v 0.000617 0.058247 0.063215
v -0.055965 0.060898 0.062703
v 0.022990 0.008865 0.079808
v 0.050929 0.007099 0.079808
v 0.001677 0.058087 0.063334
v 0.002148 0.065691 0.096279
v 0.007948 -0.002058 0.080045
v 0.050945 0.007445 0.097096
v 0.087927 -0.007582 0.112477
v 0.089127 -0.008005 0.063860
v 0.061634 -0.006094 0.088168
v 0.007948 -0.002058 0.080045
v 0.089127 -0.008005 0.063860
v 0.030626 -0.003977 0.098540
v -0.045770 -0.004520 -0.112746
v -0.087422 0.034636 -0.097826
v -0.064449 0.030540 -0.096874
v -0.045770 -0.004520 -0.112746
v -0.078777 0.043894 -0.097744
v -0.103322 0.050476 -0.078950
v -0.084765 0.049352 -0.079105
v -0.065096 0.106520 -0.095833
v -0.084765 0.049352 -0.079105
v -0.093518 0.131349 -0.097572
v -0.078777 0.043894 -0.097744
v -0.093735 0.131225 -0.097589
v -0.113690 0.132325 -0.062512
v -0.066958 0.106240 -0.095992
v -0.074547 0.099123 -0.063650
v -0.064700 0.166070 -0.098270
v -0.016588 0.146835 -0.098208
v -0.017648 0.144955 -0.097284
v 0.057092 0.167405 -0.090486
v -0.031458 0.199367 -0.097681
v -0.102640 0.203430 -0.092428
v -0.107116 0.244531 -0.087019
v 0.006454 0.252312 -0.111031
v 0.107367 0.213468 -0.082015
v 0.144137 0.192940 -0.010297
v 0.173589 0.264133 -0.003001
v 0.134805 0.262807 -0.085283
v 0.134645 0.312888 -0.057263
v 0.160831 0.299828 -0.000351
v 0.178020 0.376039 -0.000138
v 0.159938 0.378931 -0.023450
v 0.077343 0.331277 -0.066737
v 0.002191 0.326342 -0.070227
v 0.138794 0.402330 -0.023422
v -0.100720 0.318266 -0.074477
v 0.060221 0.350258 0.000356
v -0.019904 0.342595 0.007688
v 0.112590 0.411999 -0.000048
v -0.136868 0.320378 0.010460
v 0.155703 0.426800 -0.033529
v 0.143098 0.440808 -0.000104
v 0.175990 0.456593 -0.000154
v 0.185979 0.393296 -0.033569
v 0.178020 0.376039 -0.000138
v 0.210485 0.379375 -0.000193
v 0.188605 0.442586 -0.026308
v 0.193287 0.461853 -0.000180
v 0.219989 0.446320 -0.000217
v 0.218890 0.409082 -0.020036
v 0.246269 0.387405 -0.000246
v 0.233410 0.426443 -0.000233
v -0.162131 0.311621 -0.027855
v -0.220313 0.317882 0.012416
v -0.162672 0.311840 -0.027428
v -0.194084 0.251669 0.004807
v -0.220819 0.317812 0.012851
v -0.157851 0.263234 -0.038684
v 0.087927 -0.007582 0.112477
v 0.050945 0.007445 0.097096
v 0.030626 -0.003977 0.098540
v 0.087927 -0.007582 0.112477
v 0.031414 0.008664 0.098303
v 0.007948 -0.002058 0.080045
v 0.022990 0.008865 0.079808
v 0.002148 0.065691 0.096279
v -0.035863 0.067911 0.098512
v 0.022990 0.008865 0.079808
v 0.031414 0.008664 0.098303
v -0.035927 0.067903 0.098506
v -0.054906 0.061048 0.062904
v 0.001175 0.065748 0.096187
v -0.002600 0.058744 0.062679
v -0.031338 0.130822 0.097882
v 0.022163 0.132624 0.091146
v 0.023890 0.132198 0.092002
v 0.081033 0.159071 0.077098
v -0.013345 0.180703 0.093059
v -0.089715 0.175693 0.089246
v -0.101183 0.223339 0.089682
v 0.015136 0.231798 0.109976
v 0.116659 0.201351 0.069807
v 0.138402 0.247201 0.079333
v 0.135123 0.311179 0.057256
v 0.160006 0.378938 0.023226
v 0.077754 0.329036 0.067864
v 0.005238 0.313393 0.080187
v 0.138862 0.402337 0.023253
v -0.096603 0.300685 0.090801
v -0.155658 0.253590 0.047909
v -0.194084 0.251669 0.004807
v -0.160231 0.303444 0.047426
v -0.160766 0.303453 0.047872
v -0.220819 0.317812 0.012851
v 0.155800 0.426810 0.033304
v 0.186076 0.393305 0.033265
v 0.188681 0.442593 0.025983
v 0.219989 0.446320 -0.000217
v 0.218947 0.409088 0.019632
v 0.246269 0.387405 -0.000246
v 0.233410 0.426443 -0.000233
vn -0.9093 -0.3799 -0.1696
vn -0.9114 -0.4107 -0.0274
vn -0.9537 -0.1539 -0.2586
vn 0.9779 0.2077 -0.0257
vn 0.9905 0.0660 -0.1210
vn 0.8222 0.2411 -0.5155
vn 0.6234 0.7819 0.0057
vn 0.4907 0.7144 0.4989
vn 0.7248 0.6816 0.1004
vn -0.9396 -0.1429 0.3110
vn 0.1929 -0.5897 0.7842
vn 0.7047 -0.7001 -0.1152
vn -0.2229 -0.2169 -0.9504
vn -0.5814 -0.6402 0.5021
vn -0.3221 -0.5455 0.7737
vn -0.0970 -0.1409 0.9853
vn 0.1586 0.3218 0.9334
vn 0.9923 0.0353 0.1185
vn 0.9891 0.0403 0.1418
vn 0.1340 0.2280 0.9644
vn 0.9897 0.0657 0.1269
vn 0.8475 0.2364 0.4752
vn 0.2757 0.5056 0.8176
vn -0.6900 -0.7235 0.0232
vn -0.6879 -0.7257 0.0124
vn -0.6907 -0.7229 0.0179
vn -0.6885 -0.7249 0.0217
vn -0.0782 -0.9843 0.1583
vn 0.5189 -0.5250 0.6746
vn -0.0868 -0.8489 -0.5213
vn 0.0630 -0.5766 -0.8146
vn -0.0034 -0.1808 -0.9835
vn -0.0987 0.3367 -0.9364
vn 0.7354 0.6579 -0.1624
vn 0.7415 0.6564 -0.1392
vn -0.0587 0.2504 -0.9664
vn 0.7200 0.6781 -0.1474
vn 0.4955 0.7157 -0.4922
vn -0.1231 0.5564 -0.8218
vn -0.0701 -0.9975 -0.0000
vn -0.0733 -0.9972 -0.0107
vn -0.0741 -0.9972 -0.0054
vn -0.0712 -0.9974 -0.0093
vn -0.6844 -0.7291 0.0031
vn -0.2047 0.3219 -0.9244
vn 0.0979 0.2883 -0.9525
vn 0.1187 0.4613 -0.8793
vn -0.0563 0.2094 -0.9762
vn -0.1619 0.8461 -0.5078
vn 0.0561 0.9629 -0.2639
vn 0.0913 0.4990 -0.8618
vn -0.9517 -0.1424 -0.2719
vn -0.9324 0.1077 -0.3449
vn -0.9539 -0.1408 -0.2651
vn 0.1005 0.3550 -0.9295
vn -0.8178 0.5011 -0.2832
vn 0.8281 0.2745 0.4889
vn 0.8276 0.0670 0.5573
vn -0.1601 0.9260 0.3418
vn 0.9507 -0.3094 -0.0195
vn 0.0049 0.9568 -0.2908
vn -0.0022 -0.6742 -0.7386
vn 0.4420 0.5431 -0.7139
vn -0.5030 0.5089 -0.6986
vn -0.5514 0.1683 -0.8171
vn -0.1240 0.0596 -0.9905
vn 0.6343 -0.2877 -0.7176
vn 0.8316 -0.5427 -0.1176
vn 0.8669 -0.4927 -0.0758
vn 0.5641 -0.3329 -0.7556
vn 0.3565 -0.5119 -0.7816
vn 0.4096 -0.9113 -0.0408
vn 0.1005 -0.9949 -0.0003
vn 0.3505 -0.3974 -0.8481
vn -0.7595 -0.6488 -0.0473
vn -0.6077 0.2249 -0.7617
vn -0.3487 0.1758 -0.9206
vn -0.3649 0.6721 -0.6443
vn -0.6206 -0.7485 0.2337
vn -0.7625 0.6056 0.2276
vn -0.7739 0.6333 -0.0003
vn -0.1879 0.9761 0.1092
vn -0.3009 0.3543 -0.8854
vn -0.5713 0.8207 0.0006
vn -0.3395 0.9406 0.0002
vn 0.2128 -0.3885 -0.8965
vn 0.5898 -0.8075 -0.0007
vn 0.3393 -0.9407 -0.0005
vn 0.1507 0.5269 -0.8364
vn 0.1306 0.9914 -0.0005
vn 0.5213 0.4871 -0.7008
vn 0.5048 -0.0427 -0.8622
vn 0.4205 -0.2620 -0.8687
vn 0.6094 0.3185 -0.7261
vn -0.1272 0.9793 -0.1577
vn -0.0393 0.9935 0.1064
vn -0.6352 0.0358 -0.7715
vn -0.6685 -0.2082 -0.7140
vn -0.5736 -0.1335 -0.8082
vn -0.7238 -0.0650 -0.6869
vn -0.0650 -0.9978 0.0093
vn -0.0905 0.2955 0.9510
vn -0.3460 0.1288 0.9294
vn -0.1857 0.4414 0.8779
vn -0.1603 0.1365 0.9776
vn -0.6535 0.5562 0.5134
vn -0.5638 0.7821 0.2653
vn -0.1829 0.5012 0.8458
vn -0.7445 -0.5279 0.4088
vn -0.6547 -0.7033 0.2768
vn -0.6500 -0.7032 0.2881
vn -0.1290 0.3908 0.9114
vn -0.9371 -0.1800 0.2990
vn 0.3796 0.7011 -0.6036
vn 0.4332 0.5463 -0.7169
vn -0.6133 0.6673 -0.4226
vn 0.9757 -0.0351 -0.2162
vn -0.2169 0.9508 0.2211
vn 0.7852 -0.2185 0.5794
vn -0.4639 0.5457 0.6979
vn -0.4171 0.3545 0.8369
vn -0.5149 0.0462 0.8560
vn 0.0033 -0.0759 0.9971
vn 0.7235 -0.3146 0.6144
vn 0.6335 -0.3736 0.6776
vn 0.0930 -0.3332 0.9383
vn 0.3304 -0.4111 0.8496
vn -0.8810 0.1275 -0.4556
vn -0.7171 0.5678 0.4043
vn -0.3497 0.1678 0.9217
vn -0.3234 0.5262 0.7865
vn -0.6905 -0.2038 0.6940
vn -0.6331 -0.3638 0.6832
vn -0.1153 0.9240 0.3647
vn -0.5877 -0.1365 0.7975
vn -0.5332 -0.3112 0.7867
vn -0.2984 0.3546 0.8861
vn 0.2155 -0.3882 0.8960
vn 0.1532 0.5273 0.8357
vn 0.5234 0.4875 0.6989
vn 0.5075 -0.0425 0.8606
vn 0.4232 -0.2619 0.8673
vn 0.6118 0.3188 0.7239
vt 0.720701 0.653630
vt 0.799110 0.513958
vt 0.755933 0.599506
vt 0.451605 0.930846
vt 0.462961 0.909486
vt 0.424431 0.931143
vt 0.451605 0.930846
vt 0.441665 0.719581
vt 0.388270 0.687645
vt 0.557982 0.719581
vt 0.491715 0.796377
vt 0.560897 0.796377
vt 0.490565 0.909486
vt 0.491728 0.786597
vt 0.504688 0.929750
vt 0.462966 0.908893
vt 0.425638 0.930550
vt 0.482252 0.930577
vt 0.491715 0.796377
vt 0.560897 0.796377
vt 0.482262 0.908921
vt 0.540088 0.786636
vt 0.522995 0.703204
vt 0.441686 0.703138
vt 0.388312 0.654386
vt 0.549342 0.599506
vt 0.681405 0.596716
vt 0.685950 0.509722
vt 0.485432 0.513958
vt 0.315774 0.592335
vt 0.278079 0.618557
vt 0.183565 0.502934
vt 0.268280 0.513958
vt 0.269814 0.385793
vt 0.156462 0.409926
vt 0.156267 0.291363
vt 0.226607 0.267834
vt 0.368049 0.351622
vt 0.485432 0.375300
vt 0.262866 0.227584
vt 0.658185 0.377549
vt 0.398522 0.313389
vt 0.557836 0.345086
vt 0.344827 0.181365
vt 0.764795 0.306485
vt 0.255710 0.132463
vt 0.316292 0.117749
vt 0.291898 0.055006
vt 0.203792 0.190095
vt 0.185918 0.188314
vt 0.134479 0.127174
vt 0.192391 0.037306
vt 0.236993 0.021594
vt 0.132597 0.010777
vt 0.117627 0.093966
vt 0.077042 0.125425
vt 0.112945 0.020945
vt 0.764990 0.367065
vt 0.895622 0.289304
vt 0.833484 0.454897
vt 0.768009 0.452170
vt 0.540088 0.786636
vt 0.485432 0.513958
vt 0.368049 0.351622
vt 0.658185 0.377549
vt 0.189960 0.038278
s 1
usemtl Chicken1_Mat
f 1/1/1 2/2/2 3/3/3
f 4/4/4 5/5/5 6/6/6
f 7/7/7 8/6/8 9/5/9
f 10/3/10 2/2/2 1/1/1
f 1/1/1 11/8/11 12/9/12
f 11/8/11 1/1/1 13/10/13
f 13/10/13 14/11/14 11/8/11
f 14/11/14 13/10/13 15/12/15
f 15/12/15 16/13/16 14/11/14
f 14/11/14 16/13/16 17/5/17
f 5/5/5 18/14/18 19/11/19
f 17/5/17 16/13/16 20/15/20
f 18/14/18 5/5/5 21/16/21
f 5/5/5 4/4/4 21/16/21
f 21/16/21 4/4/4 22/17/22
f 20/15/20 23/6/23 17/5/17
f 24/15/24 25/4/25 26/6/26
f 25/4/25 24/15/24 27/18/27
f 28/8/28 1/1/1 12/9/12
f 1/1/1 28/8/28 29/10/29
f 30/19/30 29/10/29 28/8/28
f 29/10/29 30/19/30 31/20/31
f 32/13/32 31/20/31 30/19/30
f 30/19/30 33/5/33 32/13/32
f 9/5/9 34/19/34 35/14/35
f 33/5/33 36/15/36 32/13/32
f 35/14/35 37/16/37 9/5/9
f 9/5/9 37/16/37 7/7/7
f 37/16/37 38/17/38 7/7/7
f 39/6/39 36/15/36 33/5/33
f 40/7/40 41/15/41 42/6/42
f 41/15/41 40/7/40 43/18/43
f 27/18/27 44/17/44 25/4/25
f 45/18/45 46/16/46 47/17/47
f 46/16/46 45/18/45 48/21/48
f 49/15/49 48/21/48 45/18/45
f 48/21/48 49/15/49 50/13/50
f 48/21/48 51/14/51 46/16/46
f 52/13/52 53/22/53 54/21/54
f 51/14/51 48/21/48 55/22/55
f 53/22/53 52/13/52 56/12/56
f 13/10/13 53/22/53 56/12/56
f 57/14/57 11/8/11 58/11/58
f 59/23/59 53/22/53 13/10/13
f 59/23/59 51/14/51 55/22/55
f 3/3/3 13/10/13 1/1/1
f 3/3/3 59/23/59 13/10/13
f 11/8/11 57/14/57 60/24/60
f 61/24/61 51/14/51 59/23/59
f 62/25/62 11/8/11 60/24/60
f 62/25/62 12/9/12 11/8/11
f 59/23/59 63/26/63 61/24/61
f 63/26/63 62/25/62 61/24/61
f 59/23/59 3/3/3 64/27/64
f 64/27/64 63/26/63 59/23/59
f 3/3/3 65/28/65 64/27/64
f 65/28/65 63/26/63 64/27/64
f 65/28/65 3/3/3 2/2/2
f 62/25/62 63/26/63 66/29/66
f 63/26/63 65/28/65 66/29/66
f 67/30/67 12/9/12 62/25/62
f 66/29/66 67/30/67 62/25/62
f 12/9/12 67/30/67 68/31/68
f 67/30/67 69/32/69 68/31/68
f 69/32/69 67/30/67 70/33/70
f 67/30/67 66/29/66 70/33/70
f 71/34/71 69/32/69 70/33/70
f 66/29/66 71/34/71 70/33/70
f 69/32/69 71/34/71 72/35/72
f 73/36/73 72/35/72 74/37/74
f 72/35/72 71/34/71 74/37/74
f 71/34/71 66/29/66 75/38/75
f 75/38/75 74/37/74 71/34/71
f 75/38/75 66/29/66 76/39/76
f 74/37/74 75/38/75 77/40/77
f 66/29/66 78/41/78 76/39/76
f 78/41/78 66/29/66 65/28/65
f 76/39/76 79/42/79 75/38/75
f 79/42/79 77/40/77 75/38/75
f 79/42/79 76/39/76 80/43/80
f 78/41/78 80/43/80 76/39/76
f 77/40/77 79/42/79 81/44/81
f 80/43/80 78/41/78 82/45/82
f 81/44/81 83/46/83 77/40/77
f 83/46/83 81/44/81 84/47/84
f 83/46/83 84/47/84 85/48/85
f 77/40/77 86/49/86 74/37/74
f 86/49/86 77/40/77 83/46/83
f 86/49/86 87/50/87 74/37/74
f 86/49/86 88/51/88 87/50/87
f 85/48/85 89/52/89 83/46/83
f 90/53/90 89/52/89 85/48/85
f 91/54/91 89/52/89 90/53/90
f 83/46/83 92/55/92 86/49/86
f 92/55/92 83/46/83 89/52/89
f 92/55/92 88/51/88 86/49/86
f 92/55/92 89/52/89 91/54/91
f 88/51/88 92/55/92 93/56/93
f 91/54/91 94/57/94 92/55/92
f 94/57/94 93/56/93 92/55/92
f 95/58/95 82/45/82 78/41/78
f 82/45/82 95/58/95 96/59/96
f 97/58/97 98/60/98 99/59/99
f 97/58/97 78/41/78 100/61/100
f 98/60/98 97/58/97 100/61/100
f 78/41/78 65/28/65 100/61/100
f 100/61/100 2/2/2 98/60/98
f 2/2/2 100/61/100 65/28/65
f 101/17/101 43/18/43 40/7/40
f 102/16/102 103/18/103 104/17/104
f 103/18/103 102/16/102 105/21/105
f 105/21/105 106/15/106 103/18/103
f 106/15/106 105/21/105 107/13/107
f 108/14/108 105/21/105 102/16/102
f 109/62/109 110/13/110 111/21/111
f 105/21/105 108/14/108 112/62/112
f 110/13/110 109/62/109 113/20/113
f 29/10/29 113/20/113 109/62/109
f 28/8/28 114/14/114 115/19/115
f 116/23/116 29/10/29 109/62/109
f 116/23/116 112/62/112 108/14/108
f 1/1/1 29/10/29 10/3/10
f 116/23/116 10/3/10 29/10/29
f 114/14/114 28/8/28 117/24/117
f 108/14/108 118/24/118 116/23/116
f 117/24/117 28/8/28 119/25/119
f 12/9/12 119/25/119 28/8/28
f 116/23/116 118/24/118 120/26/120
f 119/25/119 120/26/120 118/24/118
f 10/3/10 116/23/116 121/27/121
f 121/27/121 116/23/116 120/26/120
f 122/28/122 10/3/10 121/27/121
f 122/28/122 121/27/121 120/26/120
f 10/3/10 122/28/122 2/2/2
f 120/26/120 119/25/119 123/63/123
f 123/63/123 122/28/122 120/26/120
f 12/9/12 124/30/124 119/25/119
f 124/30/124 123/63/123 119/25/119
f 124/30/124 12/9/12 68/31/68
f 69/32/69 124/30/124 68/31/68
f 69/32/69 125/33/125 124/30/124
f 123/63/123 124/30/124 125/33/125
f 69/32/69 126/34/126 125/33/125
f 126/34/126 123/63/123 125/33/125
f 126/34/126 69/32/69 72/35/72
f 127/37/127 72/35/72 73/36/73
f 72/35/72 127/37/127 126/34/126
f 123/63/123 126/34/126 128/64/128
f 127/37/127 128/64/128 126/34/126
f 129/39/129 123/63/123 128/64/128
f 128/64/128 127/37/127 130/40/130
f 79/42/79 129/39/129 128/64/128
f 130/40/130 79/42/79 128/64/128
f 129/39/129 79/42/79 80/43/80
f 79/42/79 130/40/130 81/44/81
f 80/43/80 131/65/131 129/39/129
f 131/65/131 123/63/123 129/39/129
f 123/63/123 131/65/131 122/28/122
f 131/65/131 80/43/80 82/45/82
f 122/28/122 131/65/131 132/61/132
f 132/61/132 2/2/2 122/28/122
f 2/2/2 132/61/132 133/60/133
f 134/58/134 131/65/131 82/45/82
f 135/58/135 132/61/132 131/65/131
f 133/60/133 132/61/132 135/58/135
f 82/45/82 96/59/96 134/58/134
f 135/58/135 136/59/136 133/60/133
f 137/46/137 81/44/81 130/40/130
f 137/46/137 84/47/84 81/44/81
f 137/46/137 85/48/85 84/47/84
f 130/40/130 138/49/138 137/46/137
f 127/37/127 138/49/138 130/40/130
f 87/50/87 138/49/138 127/37/127
f 138/49/138 87/50/87 88/51/88
f 85/48/85 137/46/137 139/66/139
f 139/66/139 90/53/90 85/48/85
f 140/54/140 90/53/90 139/66/139
f 141/55/141 137/46/137 138/49/138
f 137/46/137 141/55/141 139/66/139
f 138/49/138 88/51/88 141/55/141
f 139/66/139 141/55/141 140/54/140
f 141/55/141 88/51/88 142/56/142
f 141/55/141 143/57/143 140/54/140
f 142/56/142 143/57/143 141/55/141
