# Blender 4.1.1
# www.blender.org
mtllib 23.mtl
o Object_7
v -0.117810 0.162821 -0.002019
v -0.170008 0.222200 0.000762
v -0.140875 0.188303 -0.041716
v -0.043018 0.008630 -0.088242
v -0.044327 0.025544 -0.079830
v -0.020881 -0.008409 -0.064367
v 0.044175 -0.005744 0.088007
v 0.071555 -0.008873 0.063698
v 0.034065 0.007911 0.079646
v -0.138494 0.178889 0.037547
v -0.008349 0.129813 -0.043648
v 0.069156 0.141621 -0.007374
v -0.085672 0.155937 -0.039604
v -0.057737 0.094933 -0.063170
v -0.105163 0.121710 -0.062979
v -0.066463 0.042675 -0.079392
v -0.044327 0.025544 -0.079830
v -0.052155 0.101438 -0.096039
v -0.056198 0.095354 -0.063023
v -0.085044 0.042067 -0.079285
v -0.044439 0.025848 -0.097118
v -0.022539 -0.007310 -0.112960
v -0.020881 -0.008409 -0.064367
v -0.085044 0.042067 -0.079285
v -0.043018 0.008630 -0.088242
v -0.020881 -0.008409 -0.064367
v -0.067691 0.027790 -0.098128
v 0.012147 0.123494 0.035393
v -0.071018 0.125893 0.038271
v -0.013723 0.061096 0.063075
v -0.069374 0.065605 0.062661
v 0.006232 0.010916 0.079646
v 0.034065 0.007911 0.079646
v -0.012875 0.061035 0.063173
v -0.012067 0.068611 0.096117
v -0.009279 0.000671 0.079884
v 0.034097 0.008257 0.096934
v 0.070376 -0.008397 0.112315
v 0.071555 -0.008873 0.063698
v 0.044175 -0.005744 0.088007
v -0.009279 0.000671 0.079884
v 0.071555 -0.008873 0.063698
v 0.013291 -0.002252 0.098378
v -0.022539 -0.007310 -0.112960
v -0.067691 0.027790 -0.098128
v -0.044439 0.025848 -0.097118
v -0.022539 -0.007310 -0.112960
v -0.059946 0.037812 -0.098019
v -0.085044 0.042067 -0.079285
v -0.066463 0.042675 -0.079392
v -0.052155 0.101438 -0.096039
v -0.066463 0.042675 -0.079392
v -0.082840 0.123634 -0.097827
v -0.059946 0.037812 -0.098019
v -0.083060 0.123513 -0.097842
v -0.103656 0.123349 -0.062741
v -0.054126 0.101089 -0.096182
v -0.061733 0.093516 -0.063776
v -0.057694 0.162478 -0.098369
v -0.009903 0.144611 -0.097935
v -0.010050 0.143007 -0.097114
v 0.060660 0.164885 -0.089901
v -0.028515 0.197372 -0.097546
v -0.100940 0.201403 -0.092304
v -0.106355 0.243739 -0.087254
v 0.007758 0.250056 -0.111190
v 0.108389 0.210070 -0.081555
v 0.143340 0.189085 -0.009303
v 0.173947 0.260279 -0.002929
v 0.135156 0.259146 -0.085221
v 0.134755 0.312382 -0.057279
v 0.160904 0.299055 -0.000333
v 0.178125 0.375842 -0.000092
v 0.160061 0.378776 -0.023413
v 0.077523 0.331047 -0.066815
v 0.003326 0.325070 -0.070991
v 0.138968 0.402221 -0.023395
v -0.099290 0.317928 -0.075585
v 0.060330 0.350302 0.000307
v -0.018610 0.342433 0.006694
v 0.112775 0.411945 -0.000032
v -0.135499 0.321778 0.009237
v 0.155936 0.426654 -0.033492
v 0.143345 0.440688 -0.000072
v 0.176271 0.456401 -0.000106
v 0.186138 0.393084 -0.033519
v 0.178125 0.375842 -0.000092
v 0.210598 0.379108 -0.000132
v 0.188868 0.442367 -0.026255
v 0.193579 0.461623 -0.000123
v 0.220247 0.446032 -0.000148
v 0.219077 0.408798 -0.019969
v 0.246399 0.387060 -0.000168
v 0.233625 0.426126 -0.000159
v -0.160827 0.312918 -0.029016
v -0.218950 0.320733 0.011063
v -0.161300 0.313112 -0.028644
v -0.193816 0.253964 0.004380
v -0.219394 0.320674 0.011445
v -0.157319 0.264275 -0.039206
v 0.070376 -0.008397 0.112315
v 0.034097 0.008257 0.096934
v 0.013291 -0.002252 0.098378
v 0.070376 -0.008397 0.112315
v 0.014639 0.010341 0.098141
v -0.009279 0.000671 0.079884
v 0.006232 0.010916 0.079646
v -0.012067 0.068611 0.096117
v -0.049794 0.072399 0.098366
v 0.006232 0.010916 0.079646
v 0.014639 0.010341 0.098141
v -0.049845 0.072384 0.098361
v -0.068565 0.065907 0.062826
v -0.012857 0.068590 0.096044
v -0.016216 0.061274 0.062629
v -0.040633 0.133616 0.097831
v 0.015280 0.132736 0.091500
v 0.016358 0.132391 0.092231
v 0.077188 0.157358 0.077802
v -0.017011 0.181374 0.093339
v -0.093279 0.178112 0.089539
v -0.102302 0.225447 0.089661
v 0.014051 0.232037 0.110074
v 0.115163 0.199253 0.070431
v 0.138247 0.245456 0.079610
v 0.135148 0.310876 0.057259
v 0.160106 0.378780 0.023263
v 0.077850 0.329073 0.067791
v 0.005945 0.313710 0.079605
v 0.139014 0.402225 0.023281
v -0.095738 0.302507 0.089943
v -0.155427 0.255816 0.047518
v -0.193816 0.253964 0.004380
v -0.159188 0.305746 0.046379
v -0.159655 0.305756 0.046770
v -0.219394 0.320674 0.011445
v 0.156001 0.426660 0.033341
v 0.186203 0.393090 0.033315
v 0.188919 0.442372 0.026037
v 0.220247 0.446032 -0.000148
v 0.219115 0.408802 0.019699
v 0.246399 0.387060 -0.000168
v 0.233625 0.426126 -0.000159
vn -0.9180 -0.3603 -0.1656
vn -0.9202 -0.3906 -0.0252
vn -0.9540 -0.1397 -0.2653
vn 0.9544 0.2978 -0.0230
vn 0.9803 0.1580 -0.1183
vn 0.7976 0.3170 -0.5133
vn 0.6574 0.7535 0.0057
vn 0.5220 0.6919 0.4989
vn 0.7543 0.6488 0.1004
vn -0.9446 -0.1125 0.3083
vn -0.4453 -0.8892 -0.1047
vn 0.6982 -0.7099 -0.0922
vn -0.0054 -0.3453 -0.9385
vn -0.5226 -0.6912 0.4992
vn -0.2691 -0.5715 0.7752
vn -0.0863 -0.1504 0.9849
vn 0.1257 0.3347 0.9339
vn 0.9844 0.1274 0.1211
vn 0.9807 0.1320 0.1444
vn 0.1098 0.2387 0.9649
vn 0.9790 0.1574 0.1295
vn 0.8206 0.3139 0.4775
vn 0.2254 0.5284 0.8185
vn -0.6197 -0.7845 0.0210
vn -0.6174 -0.7866 0.0102
vn -0.6205 -0.7841 0.0157
vn -0.6181 -0.7859 0.0195
vn -0.1720 -0.9726 0.1564
vn 0.4646 -0.5362 0.7047
vn -0.1337 -0.8440 -0.5195
vn 0.0373 -0.5847 -0.8104
vn -0.0112 -0.1806 -0.9835
vn -0.0837 0.3405 -0.9365
vn 0.7639 0.6246 -0.1624
vn 0.7699 0.6229 -0.1392
vn -0.0475 0.2528 -0.9664
vn 0.7494 0.6455 -0.1474
vn 0.5268 0.6930 -0.4922
vn -0.0983 0.5613 -0.8218
vn -0.1143 -0.9934 -0.0000
vn -0.1175 -0.9930 -0.0107
vn -0.1183 -0.9930 -0.0054
vn -0.1154 -0.9933 -0.0093
vn -0.6136 -0.7896 0.0009
vn -0.2314 0.3022 -0.9248
vn 0.0731 0.2969 -0.9521
vn 0.0775 0.4710 -0.8787
vn -0.0731 0.2040 -0.9762
vn -0.2386 0.8278 -0.5077
vn -0.0330 0.9642 -0.2632
vn 0.0451 0.5074 -0.8605
vn -0.9332 -0.2307 -0.2756
vn -0.9275 -0.0104 -0.3736
vn -0.9359 -0.2292 -0.2675
vn 0.0617 0.3656 -0.9287
vn -0.8684 0.3877 -0.3092
vn 0.7850 0.3632 0.5019
vn 0.7983 0.1499 0.5833
vn -0.2674 0.8975 0.3506
vn 0.9598 -0.2807 0.0002
vn -0.0322 0.9575 -0.2867
vn 0.0149 -0.6799 -0.7332
vn 0.3951 0.5750 -0.7164
vn -0.5215 0.4781 -0.7068
vn -0.5494 0.1587 -0.8204
vn -0.1204 0.0475 -0.9916
vn 0.6410 -0.2923 -0.7097
vn 0.8244 -0.5570 -0.1003
vn 0.8594 -0.5071 -0.0655
vn 0.5619 -0.3424 -0.7530
vn 0.3307 -0.5131 -0.7920
vn 0.3949 -0.9181 -0.0345
vn 0.1016 -0.9948 -0.0002
vn 0.3502 -0.3971 -0.8484
vn -0.7603 -0.6483 -0.0405
vn -0.5966 0.2115 -0.7742
vn -0.3481 0.1764 -0.9207
vn -0.3549 0.6674 -0.6547
vn -0.6156 -0.7518 0.2364
vn -0.7608 0.6132 0.2127
vn -0.7727 0.6347 -0.0005
vn -0.1733 0.9802 0.0954
vn -0.2997 0.3550 -0.8855
vn -0.5695 0.8220 0.0003
vn -0.3374 0.9414 0.0001
vn 0.2124 -0.3889 -0.8965
vn 0.5880 -0.8088 -0.0005
vn 0.3373 -0.9414 -0.0004
vn 0.1523 0.5266 -0.8363
vn 0.1328 0.9911 -0.0003
vn 0.5227 0.4860 -0.7005
vn 0.5051 -0.0437 -0.8619
vn 0.4203 -0.2629 -0.8685
vn 0.6105 0.3172 -0.7258
vn -0.1106 0.9790 -0.1713
vn -0.0225 0.9954 0.0927
vn -0.6334 0.0361 -0.7730
vn -0.6710 -0.2065 -0.7121
vn -0.5746 -0.1348 -0.8072
vn -0.7228 -0.0631 -0.6881
vn -0.1093 -0.9940 0.0093
vn -0.0773 0.2992 0.9510
vn -0.3399 0.1441 0.9294
vn -0.1660 0.4492 0.8779
vn -0.1541 0.1435 0.9776
vn -0.6282 0.5846 0.5134
vn -0.5285 0.8064 0.2653
vn -0.1384 0.5158 0.8454
vn -0.7824 -0.4757 0.4021
vn -0.6853 -0.6735 0.2771
vn -0.6807 -0.6735 0.2882
vn -0.1005 0.3988 0.9115
vn -0.9503 -0.1187 0.2880
vn 0.4757 0.6477 -0.5951
vn 0.5182 0.4874 -0.7028
vn -0.5607 0.7144 -0.4187
vn 0.9767 -0.0975 -0.1911
vn -0.1528 0.9619 0.2266
vn 0.7656 -0.2442 0.5952
vn -0.3944 0.5954 0.6999
vn -0.4210 0.3877 0.8200
vn -0.5164 0.0698 0.8535
vn -0.0029 -0.0684 0.9977
vn 0.7117 -0.3223 0.6243
vn 0.6249 -0.3799 0.6820
vn 0.0925 -0.3353 0.9375
vn 0.3291 -0.4111 0.8501
vn -0.8776 0.1334 -0.4604
vn -0.7129 0.5821 0.3911
vn -0.3500 0.1683 0.9215
vn -0.3173 0.5409 0.7790
vn -0.6966 -0.1803 0.6944
vn -0.6405 -0.3430 0.6872
vn -0.1004 0.9306 0.3519
vn -0.5919 -0.1149 0.7978
vn -0.5398 -0.2906 0.7901
vn -0.2980 0.3552 0.8860
vn 0.2142 -0.3888 0.8961
vn 0.1539 0.5269 0.8358
vn 0.5242 0.4863 0.6991
vn 0.5070 -0.0436 0.8608
vn 0.4222 -0.2629 0.8675
vn 0.6121 0.3174 0.7242
vt 0.720701 0.653630
vt 0.799110 0.513958
vt 0.755933 0.599506
vt 0.451605 0.930846
vt 0.462961 0.909486
vt 0.424431 0.931143
vt 0.451605 0.930846
vt 0.441665 0.719581
vt 0.388270 0.687645
vt 0.557982 0.719581
vt 0.491715 0.796377
vt 0.560897 0.796377
vt 0.490565 0.909486
vt 0.491728 0.786597
vt 0.504688 0.929750
vt 0.462966 0.908893
vt 0.425638 0.930550
vt 0.482252 0.930577
vt 0.491715 0.796377
vt 0.560897 0.796377
vt 0.482262 0.908921
vt 0.540088 0.786636
vt 0.522995 0.703204
vt 0.441686 0.703138
vt 0.388312 0.654386
vt 0.549342 0.599506
vt 0.681405 0.596716
vt 0.685950 0.509722
vt 0.485432 0.513958
vt 0.315774 0.592335
vt 0.278079 0.618557
vt 0.183565 0.502934
vt 0.268280 0.513958
vt 0.269814 0.385793
vt 0.156462 0.409926
vt 0.156267 0.291363
vt 0.226607 0.267834
vt 0.368049 0.351622
vt 0.485432 0.375300
vt 0.262866 0.227584
vt 0.658185 0.377549
vt 0.398522 0.313389
vt 0.557836 0.345086
vt 0.344827 0.181365
vt 0.764795 0.306485
vt 0.255710 0.132463
vt 0.316292 0.117749
vt 0.291898 0.055006
vt 0.203792 0.190095
vt 0.185918 0.188314
vt 0.134479 0.127174
vt 0.192391 0.037306
vt 0.236993 0.021594
vt 0.132597 0.010777
vt 0.117627 0.093966
vt 0.077042 0.125425
vt 0.112945 0.020945
vt 0.764990 0.367065
vt 0.895622 0.289304
vt 0.833484 0.454897
vt 0.768009 0.452170
vt 0.540088 0.786636
vt 0.485432 0.513958
vt 0.368049 0.351622
vt 0.658185 0.377549
vt 0.189960 0.038278
s 1
usemtl Chicken1_Mat
f 1/1/1 2/2/2 3/3/3
f 4/4/4 5/5/5 6/6/6
f 7/7/7 8/6/8 9/5/9
f 10/3/10 2/2/2 1/1/1
f 1/1/1 11/8/11 12/9/12
f 11/8/11 1/1/1 13/10/13
f 13/10/13 14/11/14 11/8/11
f 14/11/14 13/10/13 15/12/15
f 15/12/15 16/13/16 14/11/14
f 14/11/14 16/13/16 17/5/17
f 5/5/5 18/14/18 19/11/19
f 17/5/17 16/13/16 20/15/20
f 18/14/18 5/5/5 21/16/21
f 5/5/5 4/4/4 21/16/21
f 21/16/21 4/4/4 22/17/22
f 20/15/20 23/6/23 17/5/17
f 24/15/24 25/4/25 26/6/26
f 25/4/25 24/15/24 27/18/27
f 28/8/28 1/1/1 12/9/12
f 1/1/1 28/8/28 29/10/29
f 30/19/30 29/10/29 28/8/28
f 29/10/29 30/19/30 31/20/31
f 32/13/32 31/20/31 30/19/30
f 30/19/30 33/5/33 32/13/32
f 9/5/9 34/19/34 35/14/35
f 33/5/33 36/15/36 32/13/32
f 35/14/35 37/16/37 9/5/9
f 9/5/9 37/16/37 7/7/7
f 37/16/37 38/17/38 7/7/7
f 39/6/39 36/15/36 33/5/33
f 40/7/40 41/15/41 42/6/42
f 41/15/41 40/7/40 43/18/43
f 27/18/27 44/17/44 25/4/25
f 45/18/45 46/16/46 47/17/47
f 46/16/46 45/18/45 48/21/48
f 49/15/49 48/21/48 45/18/45
f 48/21/48 49/15/49 50/13/50
f 48/21/48 51/14/51 46/16/46
f 52/13/52 53/22/53 54/21/54
f 51/14/51 48/21/48 55/22/55
f 53/22/53 52/13/52 56/12/56
f 13/10/13 53/22/53 56/12/56
f 57/14/57 11/8/11 58/11/58
f 59/23/59 53/22/53 13/10/13
f 59/23/59 51/14/51 55/22/55
f 3/3/3 13/10/13 1/1/1
f 3/3/3 59/23/59 13/10/13
f 11/8/11 57/14/57 60/24/60
f 61/24/61 51/14/51 59/23/59
f 62/25/62 11/8/11 60/24/60
f 62/25/62 12/9/12 11/8/11
f 59/23/59 63/26/63 61/24/61
f 63/26/63 62/25/62 61/24/61
f 59/23/59 3/3/3 64/27/64
f 64/27/64 63/26/63 59/23/59
f 3/3/3 65/28/65 64/27/64
f 65/28/65 63/26/63 64/27/64
f 65/28/65 3/3/3 2/2/2
f 62/25/62 63/26/63 66/29/66
f 63/26/63 65/28/65 66/29/66
f 67/30/67 12/9/12 62/25/62
f 66/29/66 67/30/67 62/25/62
f 12/9/12 67/30/67 68/31/68
f 67/30/67 69/32/69 68/31/68
f 69/32/69 67/30/67 70/33/70
f 67/30/67 66/29/66 70/33/70
f 71/34/71 69/32/69 70/33/70
f 66/29/66 71/34/71 70/33/70
f 69/32/69 71/34/71 72/35/72
f 73/36/73 72/35/72 74/37/74
f 72/35/72 71/34/71 74/37/74
f 71/34/71 66/29/66 75/38/75
f 75/38/75 74/37/74 71/34/71
f 75/38/75 66/29/66 76/39/76
f 74/37/74 75/38/75 77/40/77
f 66/29/66 78/41/78 76/39/76
f 78/41/78 66/29/66 65/28/65
f 76/39/76 79/42/79 75/38/75
f 79/42/79 77/40/77 75/38/75
f 79/42/79 76/39/76 80/43/80
f 78/41/78 80/43/80 76/39/76
f 77/40/77 79/42/79 81/44/81
f 80/43/80 78/41/78 82/45/82
f 81/44/81 83/46/83 77/40/77
f 83/46/83 81/44/81 84/47/84
f 83/46/83 84/47/84 85/48/85
f 77/40/77 86/49/86 74/37/74
f 86/49/86 77/40/77 83/46/83
f 86/49/86 87/50/87 74/37/74
f 86/49/86 88/51/88 87/50/87
f 85/48/85 89/52/89 83/46/83
f 90/53/90 89/52/89 85/48/85
f 91/54/91 89/52/89 90/53/90
f 83/46/83 92/55/92 86/49/86
f 92/55/92 83/46/83 89/52/89
f 92/55/92 88/51/88 86/49/86
f 92/55/92 89/52/89 91/54/91
f 88/51/88 92/55/92 93/56/93
f 91/54/91 94/57/94 92/55/92
f 94/57/94 93/56/93 92/55/92
f 95/58/95 82/45/82 78/41/78
f 82/45/82 95/58/95 96/59/96
f 97/58/97 98/60/98 99/59/99
f 97/58/97 78/41/78 100/61/100
f 98/60/98 97/58/97 100/61/100
f 78/41/78 65/28/65 100/61/100
f 100/61/100 2/2/2 98/60/98
f 2/2/2 100/61/100 65/28/65
f 101/17/101 43/18/43 40/7/40
f 102/16/102 103/18/103 104/17/104
f 103/18/103 102/16/102 105/21/105
f 105/21/105 106/15/106 103/18/103
f 106/15/106 105/21/105 107/13/107
f 108/14/108 105/21/105 102/16/102
f 109/62/109 110/13/110 111/21/111
f 105/21/105 108/14/108 112/62/112
f 110/13/110 109/62/109 113/20/113
f 29/10/29 113/20/113 109/62/109
f 28/8/28 114/14/114 115/19/115
f 116/23/116 29/10/29 109/62/109
f 116/23/116 112/62/112 108/14/108
f 1/1/1 29/10/29 10/3/10
f 116/23/116 10/3/10 29/10/29
f 114/14/114 28/8/28 117/24/117
f 108/14/108 118/24/118 116/23/116
f 117/24/117 28/8/28 119/25/119
f 12/9/12 119/25/119 28/8/28
f 116/23/116 118/24/118 120/26/120
f 119/25/119 120/26/120 118/24/118
f 10/3/10 116/23/116 121/27/121
f 121/27/121 116/23/116 120/26/120
f 122/28/122 10/3/10 121/27/121
f 122/28/122 121/27/121 120/26/120
f 10/3/10 122/28/122 2/2/2
f 120/26/120 119/25/119 123/63/123
f 123/63/123 122/28/122 120/26/120
f 12/9/12 124/30/124 119/25/119
f 124/30/124 123/63/123 119/25/119
f 124/30/124 12/9/12 68/31/68
f 69/32/69 124/30/124 68/31/68
f 69/32/69 125/33/125 124/30/124
f 123/63/123 124/30/124 125/33/125
f 69/32/69 126/34/126 125/33/125
f 126/34/126 123/63/123 125/33/125
f 126/34/126 69/32/69 72/35/72
f 127/37/127 72/35/72 73/36/73
f 72/35/72 127/37/127 126/34/126
f 123/63/123 126/34/126 128/64/128
f 127/37/127 128/64/128 126/34/126
f 129/39/129 123/63/123 128/64/128
f 128/64/128 127/37/127 130/40/130
f 79/42/79 129/39/129 128/64/128
f 130/40/130 79/42/79 128/64/128
f 129/39/129 79/42/79 80/43/80
f 79/42/79 130/40/130 81/44/81
f 80/43/80 131/65/131 129/39/129
f 131/65/131 123/63/123 129/39/129
f 123/63/123 131/65/131 122/28/122
f 131/65/131 80/43/80 82/45/82
f 122/28/122 131/65/131 132/61/132
f 132/61/132 2/2/2 122/28/122
f 2/2/2 132/61/132 133/60/133
f 134/58/134 131/65/131 82/45/82
f 135/58/135 132/61/132 131/65/131
f 133/60/133 132/61/132 135/58/135
f 82/45/82 96/59/96 134/58/134
f 135/58/135 136/59/136 133/60/133
f 137/46/137 81/44/81 130/40/130
f 137/46/137 84/47/84 81/44/81
f 137/46/137 85/48/85 84/47/84
f 130/40/130 138/49/138 137/46/137
f 127/37/127 138/49/138 130/40/130
f 87/50/87 138/49/138 127/37/127
f 138/49/138 87/50/87 88/51/88
f 85/48/85 137/46/137 139/66/139
f 139/66/139 90/53/90 85/48/85
f 140/54/140 90/53/90 139/66/139
f 141/55/141 137/46/137 138/49/138
f 137/46/137 141/55/141 139/66/139
f 138/49/138 88/51/88 141/55/141
f 139/66/139 141/55/141 140/54/140
f 141/55/141 88/51/88 142/56/142
f 141/55/141 143/57/143 140/54/140
f 142/56/142 143/57/143 141/55/141
