# Blender 4.1.1
# www.blender.org
mtllib 25.mtl
o Object_7
v -0.120708 0.162698 -0.001248
v -0.170572 0.226712 0.000677
v -0.141759 0.188058 -0.040943
v 0.011406 0.001173 -0.088762
v 0.006059 0.017270 -0.080344
v 0.036805 -0.010173 -0.064751
v 0.001733 -0.002405 0.088194
v 0.028587 -0.008601 0.063885
v -0.006772 0.012303 0.079834
v -0.142441 0.183193 0.038511
v 0.004474 0.125848 -0.042385
v 0.068251 0.136975 -0.004938
v -0.072445 0.144568 -0.039662
v -0.023923 0.081799 -0.063657
v -0.078192 0.099224 -0.063501
v -0.019518 0.028646 -0.080043
v 0.006059 0.017270 -0.080344
v -0.019484 0.089166 -0.096542
v -0.022177 0.082215 -0.063559
v -0.037421 0.023638 -0.080064
v 0.005989 0.017582 -0.097633
v 0.035247 -0.009380 -0.113353
v 0.036805 -0.010173 -0.064751
v -0.037421 0.023638 -0.080064
v 0.011406 0.001173 -0.088762
v 0.036805 -0.010173 -0.064751
v -0.017050 0.013942 -0.098800
v -0.001346 0.123292 0.036839
v -0.089690 0.133780 0.038691
v -0.047798 0.070175 0.063304
v -0.100874 0.079288 0.063073
v -0.034089 0.018426 0.079834
v -0.006772 0.012303 0.079834
v -0.047423 0.070381 0.063360
v -0.045766 0.077817 0.096304
v -0.050656 0.009996 0.080071
v -0.006701 0.012643 0.097121
v 0.027468 -0.007995 0.112502
v 0.028587 -0.008601 0.063885
v 0.001733 -0.002405 0.088194
v -0.050656 0.009996 0.080071
v 0.028587 -0.008601 0.063885
v -0.028560 0.004547 0.098566
v 0.035247 -0.009380 -0.113353
v -0.017050 0.013942 -0.098800
v 0.005989 0.017582 -0.097633
v 0.035247 -0.009380 -0.113353
v -0.011911 0.025518 -0.098629
v -0.037421 0.023638 -0.080064
v -0.019518 0.028646 -0.080043
v -0.019484 0.089166 -0.096542
v -0.019518 0.028646 -0.080043
v -0.054745 0.103805 -0.098489
v -0.011911 0.025518 -0.098629
v -0.054971 0.103708 -0.098499
v -0.076473 0.100424 -0.063346
v -0.021642 0.088763 -0.096639
v -0.028920 0.080481 -0.064057
v -0.040106 0.152905 -0.098623
v 0.006462 0.139992 -0.097089
v 0.008443 0.139072 -0.096549
v 0.069014 0.159510 -0.088091
v -0.021357 0.192560 -0.097069
v -0.096351 0.196025 -0.092010
v -0.104371 0.241517 -0.087862
v 0.010794 0.244435 -0.111371
v 0.110561 0.201955 -0.079983
v 0.141078 0.179695 -0.006309
v 0.174542 0.250789 -0.002266
v 0.135836 0.250097 -0.084680
v 0.134993 0.311261 -0.057309
v 0.161062 0.297345 -0.000256
v 0.178261 0.375589 -0.000034
v 0.160219 0.378574 -0.023365
v 0.077901 0.330476 -0.066998
v 0.006062 0.321767 -0.072801
v 0.139193 0.402079 -0.023359
v -0.095702 0.316850 -0.078390
v 0.060531 0.350362 0.000191
v -0.015471 0.341891 0.004219
v 0.113012 0.411875 -0.000012
v -0.132026 0.325059 0.005996
v 0.156235 0.426465 -0.033445
v 0.143663 0.440532 -0.000032
v 0.176633 0.456152 -0.000044
v 0.186342 0.392810 -0.033454
v 0.178261 0.375589 -0.000034
v 0.210742 0.378763 -0.000053
v 0.189207 0.442085 -0.026186
v 0.193956 0.461326 -0.000050
v 0.220580 0.445660 -0.000059
v 0.219317 0.408430 -0.019884
v 0.246566 0.386615 -0.000066
v 0.233902 0.425716 -0.000063
v -0.157478 0.315919 -0.032124
v -0.215382 0.327587 0.007308
v -0.157779 0.316050 -0.031889
v -0.192989 0.259588 0.003019
v -0.215667 0.327555 0.007553
v -0.155882 0.266740 -0.040684
v 0.027468 -0.007995 0.112502
v -0.006701 0.012643 0.097121
v -0.028560 0.004547 0.098566
v 0.027468 -0.007995 0.112502
v -0.025800 0.016907 0.098328
v -0.050656 0.009996 0.080071
v -0.034089 0.018426 0.079834
v -0.045766 0.077817 0.096304
v -0.082493 0.085542 0.098578
v -0.034089 0.018426 0.079834
v -0.025800 0.016907 0.098328
v -0.082518 0.085509 0.098576
v -0.100617 0.080001 0.063168
v -0.046149 0.077587 0.096264
v -0.048655 0.069483 0.063040
v -0.062427 0.141808 0.098112
v -0.001378 0.133958 0.092707
v -0.001812 0.133882 0.093156
v 0.067580 0.153664 0.079902
v -0.025834 0.183566 0.094207
v -0.101630 0.184642 0.090304
v -0.104880 0.230868 0.089511
v 0.011353 0.232852 0.110415
v 0.111263 0.194346 0.072323
v 0.137674 0.241318 0.080567
v 0.135211 0.310289 0.057265
v 0.160236 0.378576 0.023310
v 0.078068 0.329204 0.067604
v 0.007622 0.314482 0.078153
v 0.139209 0.402080 0.023317
v -0.093577 0.306960 0.087634
v -0.154750 0.261316 0.046296
v -0.192989 0.259588 0.003019
v -0.156497 0.311320 0.043499
v -0.156795 0.311333 0.043747
v -0.215667 0.327555 0.007553
v 0.156258 0.426467 0.033389
v 0.186366 0.392812 0.033380
v 0.189226 0.442087 0.026106
v 0.220580 0.445660 -0.000059
v 0.219331 0.408432 0.019785
v 0.246566 0.386615 -0.000066
v 0.233902 0.425716 -0.000063
vn -0.9334 -0.3193 -0.1638
vn -0.9387 -0.3440 -0.0227
vn -0.9536 -0.1133 -0.2789
vn 0.8563 0.5162 -0.0162
vn 0.9154 0.3868 -0.1115
vn 0.7026 0.4988 -0.5075
vn 0.7382 0.6745 0.0057
vn 0.5966 0.6286 0.4989
vn 0.8227 0.5596 0.1004
vn -0.9552 -0.0405 0.2931
vn -0.2758 -0.9491 -0.1520
vn 0.6778 -0.7342 -0.0395
vn 0.6728 -0.6818 -0.2872
vn -0.3471 -0.7960 0.4959
vn -0.1302 -0.5962 0.7922
vn -0.0553 -0.1689 0.9841
vn 0.0366 0.3531 0.9349
vn 0.9251 0.3575 0.1280
vn 0.9202 0.3610 0.1512
vn 0.0436 0.2556 0.9658
vn 0.9127 0.3853 0.1364
vn 0.7194 0.4988 0.4834
vn 0.0880 0.5648 0.8205
vn -0.4156 -0.9094 0.0161
vn -0.4127 -0.9108 0.0053
vn -0.4164 -0.9091 0.0108
vn -0.4136 -0.9103 0.0146
vn -0.0174 -0.5278 -0.8492
vn 0.3057 -0.5352 0.7874
vn -0.2476 -0.8209 -0.5146
vn -0.0310 -0.6000 -0.7994
vn -0.0310 -0.1785 -0.9835
vn -0.0448 0.3472 -0.9367
vn 0.8294 0.5345 -0.1624
vn 0.8352 0.5321 -0.1392
vn -0.0187 0.2565 -0.9664
vn 0.8174 0.5569 -0.1474
vn 0.6016 0.6292 -0.4922
vn -0.0344 0.5688 -0.8218
vn -0.2256 -0.9742 -0.0000
vn -0.2287 -0.9734 -0.0107
vn -0.2295 -0.9733 -0.0054
vn -0.2267 -0.9739 -0.0093
vn -0.4082 -0.9129 -0.0040
vn -0.2906 0.2408 -0.9261
vn 0.0066 0.3081 -0.9513
vn -0.0310 0.4781 -0.8778
vn -0.1133 0.1832 -0.9765
vn -0.4253 0.7486 -0.5086
vn -0.2596 0.9293 -0.2626
vn -0.0861 0.5061 -0.8581
vn -0.8501 -0.4449 -0.2817
vn -0.8584 -0.2864 -0.4256
vn -0.8529 -0.4443 -0.2742
vn -0.0351 0.3734 -0.9270
vn -0.9280 0.0933 -0.3607
vn 0.5957 0.5974 0.5369
vn 0.6516 0.3874 0.6522
vn -0.4999 0.7769 0.3827
vn 0.9792 -0.1938 0.0595
vn -0.1396 0.9520 -0.2726
vn 0.0616 -0.6922 -0.7191
vn 0.2793 0.6336 -0.7214
vn -0.5513 0.4084 -0.7276
vn -0.5448 0.1336 -0.8278
vn -0.1105 0.0167 -0.9937
vn 0.6569 -0.3054 -0.6893
vn 0.8029 -0.5933 -0.0574
vn 0.8405 -0.5404 -0.0384
vn 0.5565 -0.3669 -0.7454
vn 0.2736 -0.5140 -0.8130
vn 0.3615 -0.9323 -0.0132
vn 0.1057 -0.9944 -0.0003
vn 0.3498 -0.3960 -0.8490
vn -0.7607 -0.6487 -0.0228
vn -0.5668 0.1762 -0.8048
vn -0.3475 0.1771 -0.9208
vn -0.3298 0.6541 -0.6807
vn -0.6022 -0.7603 0.2435
vn -0.7564 0.6308 0.1730
vn -0.7715 0.6363 -0.0005
vn -0.1369 0.9887 0.0603
vn -0.2982 0.3559 -0.8857
vn -0.5672 0.8236 -0.0000
vn -0.3348 0.9423 -0.0000
vn 0.2119 -0.3894 -0.8963
vn 0.5858 -0.8105 -0.0002
vn 0.3346 -0.9423 -0.0002
vn 0.1543 0.5263 -0.8362
vn 0.1356 0.9908 -0.0002
vn 0.5244 0.4845 -0.7001
vn 0.5055 -0.0451 -0.8616
vn 0.4201 -0.2640 -0.8682
vn 0.6118 0.3155 -0.7254
vn -0.0693 0.9762 -0.2056
vn 0.0191 0.9981 0.0579
vn -0.6280 0.0360 -0.7774
vn -0.6761 -0.2025 -0.7084
vn -0.5763 -0.1386 -0.8054
vn -0.7196 -0.0591 -0.6919
vn -0.2206 -0.9753 0.0093
vn -0.0431 0.3060 0.9510
vn -0.3215 0.1815 0.9294
vn -0.1143 0.4651 0.8779
vn -0.1369 0.1600 0.9776
vn -0.5583 0.6517 0.5134
vn -0.4342 0.8608 0.2653
vn -0.0276 0.5348 0.8445
vn -0.8663 -0.3283 0.3766
vn -0.7572 -0.5915 0.2772
vn -0.7526 -0.5919 0.2884
vn -0.0263 0.4113 0.9111
vn -0.9660 0.0464 0.2542
vn 0.6721 0.4772 -0.5662
vn 0.6865 0.3112 -0.6572
vn -0.4105 0.8119 -0.4152
vn 0.9619 -0.2386 -0.1336
vn -0.0030 0.9710 0.2390
vn 0.7169 -0.2993 0.6296
vn -0.2186 0.6799 0.7000
vn -0.4278 0.4746 0.7693
vn -0.5196 0.1290 0.8446
vn -0.0180 -0.0473 0.9987
vn 0.6817 -0.3388 0.6485
vn 0.6030 -0.3918 0.6949
vn 0.0900 -0.3371 0.9371
vn 0.3272 -0.4103 0.8513
vn -0.8687 0.1474 -0.4728
vn -0.7019 0.6162 0.3572
vn -0.3505 0.1688 0.9212
vn -0.3021 0.5773 0.7586
vn -0.7109 -0.1213 0.6928
vn -0.6579 -0.2900 0.6950
vn -0.0634 0.9456 0.3191
vn -0.6016 -0.0605 0.7965
vn -0.5555 -0.2385 0.7966
vn -0.2976 0.3560 0.8858
vn 0.2126 -0.3894 0.8962
vn 0.1549 0.5265 0.8360
vn 0.5251 0.4848 0.6995
vn 0.5063 -0.0451 0.8612
vn 0.4210 -0.2641 0.8678
vn 0.6126 0.3157 0.7246
vt 0.720701 0.653630
vt 0.799110 0.513958
vt 0.755933 0.599506
vt 0.451605 0.930846
vt 0.462961 0.909486
vt 0.424431 0.931143
vt 0.451605 0.930846
vt 0.441665 0.719581
vt 0.388270 0.687645
vt 0.557982 0.719581
vt 0.491715 0.796377
vt 0.560897 0.796377
vt 0.490565 0.909486
vt 0.491728 0.786597
vt 0.504688 0.929750
vt 0.462966 0.908893
vt 0.425638 0.930550
vt 0.482252 0.930577
vt 0.491715 0.796377
vt 0.560897 0.796377
vt 0.482262 0.908921
vt 0.540088 0.786636
vt 0.522995 0.703204
vt 0.441686 0.703138
vt 0.388312 0.654386
vt 0.549342 0.599506
vt 0.681405 0.596716
vt 0.685950 0.509722
vt 0.485432 0.513958
vt 0.315774 0.592335
vt 0.278079 0.618557
vt 0.183565 0.502934
vt 0.268280 0.513958
vt 0.269814 0.385793
vt 0.156462 0.409926
vt 0.156267 0.291363
vt 0.226607 0.267834
vt 0.368049 0.351622
vt 0.485432 0.375300
vt 0.262866 0.227584
vt 0.658185 0.377549
vt 0.398522 0.313389
vt 0.557836 0.345086
vt 0.344827 0.181365
vt 0.764795 0.306485
vt 0.255710 0.132463
vt 0.316292 0.117749
vt 0.291898 0.055006
vt 0.203792 0.190095
vt 0.185918 0.188314
vt 0.134479 0.127174
vt 0.192391 0.037306
vt 0.236993 0.021594
vt 0.132597 0.010777
vt 0.117627 0.093966
vt 0.077042 0.125425
vt 0.112945 0.020945
vt 0.764990 0.367065
vt 0.895622 0.289304
vt 0.833484 0.454897
vt 0.768009 0.452170
vt 0.540088 0.786636
vt 0.485432 0.513958
vt 0.368049 0.351622
vt 0.658185 0.377549
vt 0.189960 0.038278
s 1
usemtl Chicken1_Mat
f 1/1/1 2/2/2 3/3/3
f 4/4/4 5/5/5 6/6/6
f 7/7/7 8/6/8 9/5/9
f 10/3/10 2/2/2 1/1/1
f 1/1/1 11/8/11 12/9/12
f 11/8/11 1/1/1 13/10/13
f 13/10/13 14/11/14 11/8/11
f 14/11/14 13/10/13 15/12/15
f 15/12/15 16/13/16 14/11/14
f 14/11/14 16/13/16 17/5/17
f 5/5/5 18/14/18 19/11/19
f 17/5/17 16/13/16 20/15/20
f 18/14/18 5/5/5 21/16/21
f 5/5/5 4/4/4 21/16/21
f 21/16/21 4/4/4 22/17/22
f 20/15/20 23/6/23 17/5/17
f 24/15/24 25/4/25 26/6/26
f 25/4/25 24/15/24 27/18/27
f 28/8/28 1/1/1 12/9/12
f 1/1/1 28/8/28 29/10/29
f 30/19/30 29/10/29 28/8/28
f 29/10/29 30/19/30 31/20/31
f 32/13/32 31/20/31 30/19/30
f 30/19/30 33/5/33 32/13/32
f 9/5/9 34/19/34 35/14/35
f 33/5/33 36/15/36 32/13/32
f 35/14/35 37/16/37 9/5/9
f 9/5/9 37/16/37 7/7/7
f 37/16/37 38/17/38 7/7/7
f 39/6/39 36/15/36 33/5/33
f 40/7/40 41/15/41 42/6/42
f 41/15/41 40/7/40 43/18/43
f 27/18/27 44/17/44 25/4/25
f 45/18/45 46/16/46 47/17/47
f 46/16/46 45/18/45 48/21/48
f 49/15/49 48/21/48 45/18/45
f 48/21/48 49/15/49 50/13/50
f 48/21/48 51/14/51 46/16/46
f 52/13/52 53/22/53 54/21/54
f 51/14/51 48/21/48 55/22/55
f 53/22/53 52/13/52 56/12/56
f 13/10/13 53/22/53 56/12/56
f 57/14/57 11/8/11 58/11/58
f 59/23/59 53/22/53 13/10/13
f 59/23/59 51/14/51 55/22/55
f 3/3/3 13/10/13 1/1/1
f 3/3/3 59/23/59 13/10/13
f 11/8/11 57/14/57 60/24/60
f 61/24/61 51/14/51 59/23/59
f 62/25/62 11/8/11 60/24/60
f 62/25/62 12/9/12 11/8/11
f 59/23/59 63/26/63 61/24/61
f 63/26/63 62/25/62 61/24/61
f 59/23/59 3/3/3 64/27/64
f 64/27/64 63/26/63 59/23/59
f 3/3/3 65/28/65 64/27/64
f 65/28/65 63/26/63 64/27/64
f 65/28/65 3/3/3 2/2/2
f 62/25/62 63/26/63 66/29/66
f 63/26/63 65/28/65 66/29/66
f 67/30/67 12/9/12 62/25/62
f 66/29/66 67/30/67 62/25/62
f 12/9/12 67/30/67 68/31/68
f 67/30/67 69/32/69 68/31/68
f 69/32/69 67/30/67 70/33/70
f 67/30/67 66/29/66 70/33/70
f 71/34/71 69/32/69 70/33/70
f 66/29/66 71/34/71 70/33/70
f 69/32/69 71/34/71 72/35/72
f 73/36/73 72/35/72 74/37/74
f 72/35/72 71/34/71 74/37/74
f 71/34/71 66/29/66 75/38/75
f 75/38/75 74/37/74 71/34/71
f 75/38/75 66/29/66 76/39/76
f 74/37/74 75/38/75 77/40/77
f 66/29/66 78/41/78 76/39/76
f 78/41/78 66/29/66 65/28/65
f 76/39/76 79/42/79 75/38/75
f 79/42/79 77/40/77 75/38/75
f 79/42/79 76/39/76 80/43/80
f 78/41/78 80/43/80 76/39/76
f 77/40/77 79/42/79 81/44/81
f 80/43/80 78/41/78 82/45/82
f 81/44/81 83/46/83 77/40/77
f 83/46/83 81/44/81 84/47/84
f 83/46/83 84/47/84 85/48/85
f 77/40/77 86/49/86 74/37/74
f 86/49/86 77/40/77 83/46/83
f 86/49/86 87/50/87 74/37/74
f 86/49/86 88/51/88 87/50/87
f 85/48/85 89/52/89 83/46/83
f 90/53/90 89/52/89 85/48/85
f 91/54/91 89/52/89 90/53/90
f 83/46/83 92/55/92 86/49/86
f 92/55/92 83/46/83 89/52/89
f 92/55/92 88/51/88 86/49/86
f 92/55/92 89/52/89 91/54/91
f 88/51/88 92/55/92 93/56/93
f 91/54/91 94/57/94 92/55/92
f 94/57/94 93/56/93 92/55/92
f 95/58/95 82/45/82 78/41/78
f 82/45/82 95/58/95 96/59/96
f 97/58/97 98/60/98 99/59/99
f 97/58/97 78/41/78 100/61/100
f 98/60/98 97/58/97 100/61/100
f 78/41/78 65/28/65 100/61/100
f 100/61/100 2/2/2 98/60/98
f 2/2/2 100/61/100 65/28/65
f 101/17/101 43/18/43 40/7/40
f 102/16/102 103/18/103 104/17/104
f 103/18/103 102/16/102 105/21/105
f 105/21/105 106/15/106 103/18/103
f 106/15/106 105/21/105 107/13/107
f 108/14/108 105/21/105 102/16/102
f 109/62/109 110/13/110 111/21/111
f 105/21/105 108/14/108 112/62/112
f 110/13/110 109/62/109 113/20/113
f 29/10/29 113/20/113 109/62/109
f 28/8/28 114/14/114 115/19/115
f 116/23/116 29/10/29 109/62/109
f 116/23/116 112/62/112 108/14/108
f 1/1/1 29/10/29 10/3/10
f 116/23/116 10/3/10 29/10/29
f 114/14/114 28/8/28 117/24/117
f 108/14/108 118/24/118 116/23/116
f 117/24/117 28/8/28 119/25/119
f 12/9/12 119/25/119 28/8/28
f 116/23/116 118/24/118 120/26/120
f 119/25/119 120/26/120 118/24/118
f 10/3/10 116/23/116 121/27/121
f 121/27/121 116/23/116 120/26/120
f 122/28/122 10/3/10 121/27/121
f 122/28/122 121/27/121 120/26/120
f 10/3/10 122/28/122 2/2/2
f 120/26/120 119/25/119 123/63/123
f 123/63/123 122/28/122 120/26/120
f 12/9/12 124/30/124 119/25/119
f 124/30/124 123/63/123 119/25/119
f 124/30/124 12/9/12 68/31/68
f 69/32/69 124/30/124 68/31/68
f 69/32/69 125/33/125 124/30/124
f 123/63/123 124/30/124 125/33/125
f 69/32/69 126/34/126 125/33/125
f 126/34/126 123/63/123 125/33/125
f 126/34/126 69/32/69 72/35/72
f 127/37/127 72/35/72 73/36/73
f 72/35/72 127/37/127 126/34/126
f 123/63/123 126/34/126 128/64/128
f 127/37/127 128/64/128 126/34/126
f 129/39/129 123/63/123 128/64/128
f 128/64/128 127/37/127 130/40/130
f 79/42/79 129/39/129 128/64/128
f 130/40/130 79/42/79 128/64/128
f 129/39/129 79/42/79 80/43/80
f 79/42/79 130/40/130 81/44/81
f 80/43/80 131/65/131 129/39/129
f 131/65/131 123/63/123 129/39/129
f 123/63/123 131/65/131 122/28/122
f 131/65/131 80/43/80 82/45/82
f 122/28/122 131/65/131 132/61/132
f 132/61/132 2/2/2 122/28/122
f 2/2/2 132/61/132 133/60/133
f 134/58/134 131/65/131 82/45/82
f 135/58/135 132/61/132 131/65/131
f 133/60/133 132/61/132 135/58/135
f 82/45/82 96/59/96 134/58/134
f 135/58/135 136/59/136 133/60/133
f 137/46/137 81/44/81 130/40/130
f 137/46/137 84/47/84 81/44/81
f 137/46/137 85/48/85 84/47/84
f 130/40/130 138/49/138 137/46/137
f 127/37/127 138/49/138 130/40/130
f 87/50/87 138/49/138 127/37/127
f 138/49/138 87/50/87 88/51/88
f 85/48/85 137/46/137 139/66/139
f 139/66/139 90/53/90 85/48/85
f 140/54/140 90/53/90 139/66/139
f 141/55/141 137/46/137 138/49/138
f 137/46/137 141/55/141 139/66/139
f 138/49/138 88/51/88 141/55/141
f 139/66/139 141/55/141 140/54/140
f 141/55/141 88/51/88 142/56/142
f 141/55/141 143/57/143 140/54/140
f 142/56/142 143/57/143 141/55/141
