# Blender 4.1.1
# www.blender.org
mtllib 27.mtl
o Object_7
v -0.122531 0.162636 -0.000519
v -0.170938 0.231168 0.000367
v -0.142010 0.187742 -0.040272
v 0.063611 -0.000455 -0.089104
v 0.054536 0.013889 -0.080709
v 0.090824 -0.005497 -0.064929
v -0.040038 0.003079 0.088721
v -0.014055 -0.006106 0.064413
v -0.046831 0.018652 0.080361
v -0.145769 0.187551 0.039315
v 0.016373 0.123254 -0.040973
v 0.066583 0.133349 -0.002217
v -0.058057 0.132821 -0.039744
v 0.009670 0.069971 -0.064106
v -0.048771 0.077403 -0.064030
v 0.026987 0.018856 -0.080573
v 0.054536 0.013889 -0.080709
v 0.012736 0.077690 -0.097019
v 0.011561 0.070217 -0.064062
v 0.010788 0.009736 -0.080721
v 0.054505 0.014217 -0.097997
v 0.089435 -0.004977 -0.113540
v 0.090824 -0.005497 -0.064929
v 0.010788 0.009736 -0.080721
v 0.063611 -0.000455 -0.089104
v 0.090824 -0.005497 -0.064929
v 0.033000 0.005207 -0.099325
v -0.014727 0.123943 0.038484
v -0.107144 0.142196 0.039295
v -0.080608 0.080485 0.063865
v -0.130618 0.094105 0.063776
v -0.073283 0.027816 0.080361
v -0.046831 0.018652 0.080361
v -0.080675 0.080943 0.063887
v -0.078190 0.088145 0.096832
v -0.090696 0.021307 0.080598
v -0.046722 0.018981 0.097649
v -0.015098 -0.005378 0.113029
v -0.014055 -0.006106 0.064413
v -0.040038 0.003079 0.088721
v -0.090696 0.021307 0.080598
v -0.014055 -0.006106 0.064413
v -0.069355 0.013402 0.099093
v 0.089435 -0.004977 -0.113540
v 0.033000 0.005207 -0.099325
v 0.054505 0.014217 -0.097997
v 0.089435 -0.004977 -0.113540
v 0.035238 0.017673 -0.099109
v 0.010788 0.009736 -0.080721
v 0.026987 0.018856 -0.080573
v 0.012736 0.077690 -0.097019
v 0.026987 0.018856 -0.080573
v -0.025135 0.084023 -0.099160
v 0.035238 0.017673 -0.099109
v -0.025364 0.083973 -0.099165
v -0.046818 0.077982 -0.063963
v 0.010470 0.077434 -0.097064
v 0.003851 0.069215 -0.064284
v -0.022584 0.142614 -0.098880
v 0.021580 0.136530 -0.096076
v 0.025440 0.136199 -0.095835
v 0.076002 0.155220 -0.085936
v -0.014764 0.187958 -0.096439
v -0.091348 0.190428 -0.091713
v -0.102315 0.239033 -0.088453
v 0.013365 0.238829 -0.111296
v 0.111969 0.194306 -0.077992
v 0.138441 0.170672 -0.002867
v 0.174721 0.241488 -0.001133
v 0.136170 0.241202 -0.083731
v 0.135184 0.310227 -0.057313
v 0.161167 0.295778 -0.000130
v 0.178321 0.375475 -0.000007
v 0.160290 0.378484 -0.023344
v 0.078221 0.329901 -0.067159
v 0.008636 0.318323 -0.074454
v 0.139293 0.402015 -0.023342
v -0.092164 0.315498 -0.081147
v 0.060691 0.350385 0.000081
v -0.012424 0.341146 0.001799
v 0.113118 0.411844 -0.000003
v -0.128469 0.328021 0.002626
v 0.156369 0.426379 -0.033423
v 0.143806 0.440462 -0.000013
v 0.176795 0.456040 -0.000016
v 0.186434 0.392686 -0.033425
v 0.178321 0.375475 -0.000007
v 0.210807 0.378608 -0.000018
v 0.189359 0.441958 -0.026155
v 0.194125 0.461192 -0.000017
v 0.220729 0.445492 -0.000019
v 0.219425 0.408265 -0.019845
v 0.246640 0.386414 -0.000021
v 0.234026 0.425532 -0.000020
v -0.154028 0.318597 -0.035366
v -0.211577 0.334037 0.003250
v -0.154157 0.318657 -0.035266
v -0.191936 0.265034 0.001390
v -0.211700 0.334026 0.003356
v -0.154332 0.269028 -0.042291
v -0.015098 -0.005378 0.113029
v -0.046722 0.018981 0.097649
v -0.069355 0.013402 0.099093
v -0.015098 -0.005378 0.113029
v -0.065219 0.025372 0.098856
v -0.090696 0.021307 0.080598
v -0.073283 0.027816 0.080361
v -0.078190 0.088145 0.096832
v -0.113482 0.099717 0.099123
v -0.073283 0.027816 0.080361
v -0.065219 0.025372 0.098856
v -0.113484 0.099668 0.099122
v -0.130861 0.095215 0.063814
v -0.078192 0.087721 0.096816
v -0.079931 0.078960 0.063757
v -0.083188 0.150531 0.098615
v -0.017767 0.135893 0.094091
v -0.019673 0.136092 0.094280
v 0.057802 0.150553 0.082228
v -0.034436 0.186091 0.095142
v -0.109446 0.191407 0.091006
v -0.107186 0.236301 0.089210
v 0.008661 0.233801 0.110792
v 0.107120 0.189802 0.074471
v 0.136899 0.237393 0.081747
v 0.135266 0.309804 0.057279
v 0.160294 0.378484 0.023332
v 0.078278 0.329349 0.067413
v 0.009256 0.315162 0.076706
v 0.139297 0.402015 0.023333
v -0.091316 0.311207 0.085167
v -0.153881 0.266675 0.044832
v -0.191936 0.265034 0.001390
v -0.153637 0.316602 0.040388
v -0.153765 0.316611 0.040495
v -0.211700 0.334026 0.003356
v 0.156374 0.426380 0.033411
v 0.186439 0.392687 0.033409
v 0.189363 0.441958 0.026137
v 0.220729 0.445492 -0.000019
v 0.219428 0.408265 0.019823
v 0.246640 0.386414 -0.000021
v 0.234026 0.425532 -0.000020
vn -0.9404 -0.2897 -0.1779
vn -0.9529 -0.3025 -0.0235
vn -0.9524 -0.0969 -0.2892
vn 0.7091 0.7050 -0.0099
vn 0.7979 0.5936 -0.1049
vn 0.5671 0.6528 -0.5023
vn 0.8096 0.5870 0.0057
vn 0.6637 0.5573 0.4989
vn 0.8805 0.4633 0.1004
vn -0.9642 0.0329 0.2633
vn -0.0207 -0.9811 -0.1922
vn 0.6505 -0.7595 0.0059
vn 0.8131 -0.5736 -0.0990
vn -0.1475 -0.8539 0.4990
vn -0.0054 -0.5753 0.8179
vn -0.0213 -0.1785 0.9837
vn -0.0543 0.3495 0.9354
vn 0.8127 0.5669 0.1346
vn 0.8070 0.5691 0.1578
vn -0.0246 0.2563 0.9663
vn 0.7940 0.5909 0.1429
vn 0.5770 0.6544 0.4887
vn -0.0541 0.5675 0.8216
vn -0.1875 -0.9822 0.0124
vn -0.1844 -0.9829 0.0017
vn -0.1883 -0.9821 0.0072
vn -0.1854 -0.9826 0.0110
vn 0.0428 -0.5579 -0.8288
vn 0.1189 -0.4899 0.8636
vn -0.3517 -0.7841 -0.5114
vn -0.1041 -0.6025 -0.7913
vn -0.0506 -0.1737 -0.9835
vn -0.0056 0.3493 -0.9370
vn 0.8844 0.4376 -0.1624
vn 0.8898 0.4345 -0.1392
vn 0.0103 0.2570 -0.9664
vn 0.8750 0.4612 -0.1474
vn 0.6687 0.5574 -0.4922
vn 0.0300 0.5691 -0.8218
vn -0.3340 -0.9426 -0.0000
vn -0.3370 -0.9414 -0.0107
vn -0.3378 -0.9412 -0.0054
vn -0.3350 -0.9422 -0.0093
vn -0.1794 -0.9837 -0.0076
vn -0.3336 0.1670 -0.9278
vn -0.0607 0.3032 -0.9510
vn -0.1382 0.4592 -0.8775
vn -0.1474 0.1534 -0.9771
vn -0.5878 0.6272 -0.5109
vn -0.4714 0.8416 -0.2636
vn -0.2163 0.4668 -0.8575
vn -0.7220 -0.6313 -0.2832
vn -0.7380 -0.5067 -0.4457
vn -0.7225 -0.6317 -0.2811
vn -0.1193 0.3589 -0.9257
vn -0.9097 -0.1589 -0.3837
vn 0.3111 0.7680 0.5598
vn 0.4006 0.5954 0.6964
vn -0.6603 0.6233 0.4190
vn 0.9874 -0.0897 0.1303
vn -0.2559 0.9332 -0.2522
vn 0.1113 -0.7001 -0.7053
vn 0.1755 0.6660 -0.7251
vn -0.5667 0.3500 -0.7459
vn -0.5415 0.1076 -0.8338
vn -0.1000 -0.0142 -0.9949
vn 0.6703 -0.3221 -0.6686
vn 0.7760 -0.6305 -0.0170
vn 0.8213 -0.5704 -0.0111
vn 0.5505 -0.3922 -0.7370
vn 0.2256 -0.5127 -0.8284
vn 0.3321 -0.9432 0.0097
vn 0.1099 -0.9939 -0.0005
vn 0.3497 -0.3952 -0.8494
vn -0.7596 -0.6503 -0.0038
vn -0.5344 0.1385 -0.8338
vn -0.3474 0.1773 -0.9208
vn -0.3052 0.6391 -0.7060
vn -0.5872 -0.7695 0.2512
vn -0.7519 0.6462 0.1305
vn -0.7711 0.6367 -0.0003
vn -0.1006 0.9946 0.0250
vn -0.2975 0.3563 -0.8858
vn -0.5661 0.8243 -0.0001
vn -0.3336 0.9427 -0.0001
vn 0.2116 -0.3897 -0.8963
vn 0.5847 -0.8112 -0.0000
vn 0.3334 -0.9428 -0.0002
vn 0.1552 0.5261 -0.8362
vn 0.1368 0.9906 -0.0001
vn 0.5253 0.4839 -0.7000
vn 0.5057 -0.0457 -0.8615
vn 0.4200 -0.2645 -0.8681
vn 0.6124 0.3148 -0.7252
vn -0.0285 0.9705 -0.2395
vn 0.0603 0.9979 0.0234
vn -0.6220 0.0351 -0.7822
vn -0.6806 -0.1987 -0.7052
vn -0.5776 -0.1426 -0.8038
vn -0.7157 -0.0562 -0.6961
vn -0.3292 -0.9442 0.0093
vn -0.0083 0.3090 0.9510
vn -0.2990 0.2166 0.9294
vn -0.0611 0.4750 0.8779
vn -0.1180 0.1745 0.9776
vn -0.4813 0.7105 0.5134
vn -0.3344 0.9043 0.2653
vn 0.0745 0.5309 0.8442
vn -0.9278 -0.1616 0.3362
vn -0.8202 -0.5010 0.2761
vn -0.8152 -0.5020 0.2889
vn 0.0498 0.4113 0.9101
vn -0.9525 0.2199 0.2108
vn 0.7966 0.2900 -0.5304
vn 0.7872 0.1296 -0.6029
vn -0.2374 0.8739 -0.4241
vn 0.9304 -0.3566 -0.0851
vn 0.1258 0.9596 0.2518
vn 0.6700 -0.3447 0.6574
vn -0.0592 0.7167 0.6949
vn -0.4221 0.5712 0.7040
vn -0.5213 0.1884 0.8323
vn -0.0319 -0.0237 0.9992
vn 0.6513 -0.3535 0.6714
vn 0.5808 -0.3998 0.7091
vn 0.0864 -0.3363 0.9378
vn 0.3261 -0.4092 0.8522
vn -0.8593 0.1606 -0.4856
vn -0.6898 0.6483 0.3223
vn -0.3510 0.1688 0.9210
vn -0.2862 0.6126 0.7367
vn -0.7229 -0.0617 0.6881
vn -0.6733 -0.2366 0.7005
vn -0.0263 0.9579 0.2860
vn -0.6095 -0.0063 0.7928
vn -0.5693 -0.1859 0.8009
vn -0.2974 0.3564 0.8858
vn 0.2118 -0.3897 0.8962
vn 0.1553 0.5262 0.8360
vn 0.5255 0.4841 0.6996
vn 0.5060 -0.0457 0.8613
vn 0.4204 -0.2646 0.8679
vn 0.6128 0.3149 0.7248
vt 0.720701 0.653630
vt 0.799110 0.513958
vt 0.755933 0.599506
vt 0.451605 0.930846
vt 0.462961 0.909486
vt 0.424431 0.931143
vt 0.451605 0.930846
vt 0.441665 0.719581
vt 0.388270 0.687645
vt 0.557982 0.719581
vt 0.491715 0.796377
vt 0.560897 0.796377
vt 0.490565 0.909486
vt 0.491728 0.786597
vt 0.504688 0.929750
vt 0.462966 0.908893
vt 0.425638 0.930550
vt 0.482252 0.930577
vt 0.491715 0.796377
vt 0.560897 0.796377
vt 0.482262 0.908921
vt 0.540088 0.786636
vt 0.522995 0.703204
vt 0.441686 0.703138
vt 0.388312 0.654386
vt 0.549342 0.599506
vt 0.681405 0.596716
vt 0.685950 0.509722
vt 0.485432 0.513958
vt 0.315774 0.592335
vt 0.278079 0.618557
vt 0.183565 0.502934
vt 0.268280 0.513958
vt 0.269814 0.385793
vt 0.156462 0.409926
vt 0.156267 0.291363
vt 0.226607 0.267834
vt 0.368049 0.351622
vt 0.485432 0.375300
vt 0.262866 0.227584
vt 0.658185 0.377549
vt 0.398522 0.313389
vt 0.557836 0.345086
vt 0.344827 0.181365
vt 0.764795 0.306485
vt 0.255710 0.132463
vt 0.316292 0.117749
vt 0.291898 0.055006
vt 0.203792 0.190095
vt 0.185918 0.188314
vt 0.134479 0.127174
vt 0.192391 0.037306
vt 0.236993 0.021594
vt 0.132597 0.010777
vt 0.117627 0.093966
vt 0.077042 0.125425
vt 0.112945 0.020945
vt 0.764990 0.367065
vt 0.895622 0.289304
vt 0.833484 0.454897
vt 0.768009 0.452170
vt 0.540088 0.786636
vt 0.485432 0.513958
vt 0.368049 0.351622
vt 0.658185 0.377549
vt 0.189960 0.038278
s 1
usemtl Chicken1_Mat
f 1/1/1 2/2/2 3/3/3
f 4/4/4 5/5/5 6/6/6
f 7/7/7 8/6/8 9/5/9
f 10/3/10 2/2/2 1/1/1
f 1/1/1 11/8/11 12/9/12
f 11/8/11 1/1/1 13/10/13
f 13/10/13 14/11/14 11/8/11
f 14/11/14 13/10/13 15/12/15
f 15/12/15 16/13/16 14/11/14
f 14/11/14 16/13/16 17/5/17
f 5/5/5 18/14/18 19/11/19
f 17/5/17 16/13/16 20/15/20
f 18/14/18 5/5/5 21/16/21
f 5/5/5 4/4/4 21/16/21
f 21/16/21 4/4/4 22/17/22
f 20/15/20 23/6/23 17/5/17
f 24/15/24 25/4/25 26/6/26
f 25/4/25 24/15/24 27/18/27
f 28/8/28 1/1/1 12/9/12
f 1/1/1 28/8/28 29/10/29
f 30/19/30 29/10/29 28/8/28
f 29/10/29 30/19/30 31/20/31
f 32/13/32 31/20/31 30/19/30
f 30/19/30 33/5/33 32/13/32
f 9/5/9 34/19/34 35/14/35
f 33/5/33 36/15/36 32/13/32
f 35/14/35 37/16/37 9/5/9
f 9/5/9 37/16/37 7/7/7
f 37/16/37 38/17/38 7/7/7
f 39/6/39 36/15/36 33/5/33
f 40/7/40 41/15/41 42/6/42
f 41/15/41 40/7/40 43/18/43
f 27/18/27 44/17/44 25/4/25
f 45/18/45 46/16/46 47/17/47
f 46/16/46 45/18/45 48/21/48
f 49/15/49 48/21/48 45/18/45
f 48/21/48 49/15/49 50/13/50
f 48/21/48 51/14/51 46/16/46
f 52/13/52 53/22/53 54/21/54
f 51/14/51 48/21/48 55/22/55
f 53/22/53 52/13/52 56/12/56
f 13/10/13 53/22/53 56/12/56
f 57/14/57 11/8/11 58/11/58
f 59/23/59 53/22/53 13/10/13
f 59/23/59 51/14/51 55/22/55
f 3/3/3 13/10/13 1/1/1
f 3/3/3 59/23/59 13/10/13
f 11/8/11 57/14/57 60/24/60
f 61/24/61 51/14/51 59/23/59
f 62/25/62 11/8/11 60/24/60
f 62/25/62 12/9/12 11/8/11
f 59/23/59 63/26/63 61/24/61
f 63/26/63 62/25/62 61/24/61
f 59/23/59 3/3/3 64/27/64
f 64/27/64 63/26/63 59/23/59
f 3/3/3 65/28/65 64/27/64
f 65/28/65 63/26/63 64/27/64
f 65/28/65 3/3/3 2/2/2
f 62/25/62 63/26/63 66/29/66
f 63/26/63 65/28/65 66/29/66
f 67/30/67 12/9/12 62/25/62
f 66/29/66 67/30/67 62/25/62
f 12/9/12 67/30/67 68/31/68
f 67/30/67 69/32/69 68/31/68
f 69/32/69 67/30/67 70/33/70
f 67/30/67 66/29/66 70/33/70
f 71/34/71 69/32/69 70/33/70
f 66/29/66 71/34/71 70/33/70
f 69/32/69 71/34/71 72/35/72
f 73/36/73 72/35/72 74/37/74
f 72/35/72 71/34/71 74/37/74
f 71/34/71 66/29/66 75/38/75
f 75/38/75 74/37/74 71/34/71
f 75/38/75 66/29/66 76/39/76
f 74/37/74 75/38/75 77/40/77
f 66/29/66 78/41/78 76/39/76
f 78/41/78 66/29/66 65/28/65
f 76/39/76 79/42/79 75/38/75
f 79/42/79 77/40/77 75/38/75
f 79/42/79 76/39/76 80/43/80
f 78/41/78 80/43/80 76/39/76
f 77/40/77 79/42/79 81/44/81
f 80/43/80 78/41/78 82/45/82
f 81/44/81 83/46/83 77/40/77
f 83/46/83 81/44/81 84/47/84
f 83/46/83 84/47/84 85/48/85
f 77/40/77 86/49/86 74/37/74
f 86/49/86 77/40/77 83/46/83
f 86/49/86 87/50/87 74/37/74
f 86/49/86 88/51/88 87/50/87
f 85/48/85 89/52/89 83/46/83
f 90/53/90 89/52/89 85/48/85
f 91/54/91 89/52/89 90/53/90
f 83/46/83 92/55/92 86/49/86
f 92/55/92 83/46/83 89/52/89
f 92/55/92 88/51/88 86/49/86
f 92/55/92 89/52/89 91/54/91
f 88/51/88 92/55/92 93/56/93
f 91/54/91 94/57/94 92/55/92
f 94/57/94 93/56/93 92/55/92
f 95/58/95 82/45/82 78/41/78
f 82/45/82 95/58/95 96/59/96
f 97/58/97 98/60/98 99/59/99
f 97/58/97 78/41/78 100/61/100
f 98/60/98 97/58/97 100/61/100
f 78/41/78 65/28/65 100/61/100
f 100/61/100 2/2/2 98/60/98
f 2/2/2 100/61/100 65/28/65
f 101/17/101 43/18/43 40/7/40
f 102/16/102 103/18/103 104/17/104
f 103/18/103 102/16/102 105/21/105
f 105/21/105 106/15/106 103/18/103
f 106/15/106 105/21/105 107/13/107
f 108/14/108 105/21/105 102/16/102
f 109/62/109 110/13/110 111/21/111
f 105/21/105 108/14/108 112/62/112
f 110/13/110 109/62/109 113/20/113
f 29/10/29 113/20/113 109/62/109
f 28/8/28 114/14/114 115/19/115
f 116/23/116 29/10/29 109/62/109
f 116/23/116 112/62/112 108/14/108
f 1/1/1 29/10/29 10/3/10
f 116/23/116 10/3/10 29/10/29
f 114/14/114 28/8/28 117/24/117
f 108/14/108 118/24/118 116/23/116
f 117/24/117 28/8/28 119/25/119
f 12/9/12 119/25/119 28/8/28
f 116/23/116 118/24/118 120/26/120
f 119/25/119 120/26/120 118/24/118
f 10/3/10 116/23/116 121/27/121
f 121/27/121 116/23/116 120/26/120
f 122/28/122 10/3/10 121/27/121
f 122/28/122 121/27/121 120/26/120
f 10/3/10 122/28/122 2/2/2
f 120/26/120 119/25/119 123/63/123
f 123/63/123 122/28/122 120/26/120
f 12/9/12 124/30/124 119/25/119
f 124/30/124 123/63/123 119/25/119
f 124/30/124 12/9/12 68/31/68
f 69/32/69 124/30/124 68/31/68
f 69/32/69 125/33/125 124/30/124
f 123/63/123 124/30/124 125/33/125
f 69/32/69 126/34/126 125/33/125
f 126/34/126 123/63/123 125/33/125
f 126/34/126 69/32/69 72/35/72
f 127/37/127 72/35/72 73/36/73
f 72/35/72 127/37/127 126/34/126
f 123/63/123 126/34/126 128/64/128
f 127/37/127 128/64/128 126/34/126
f 129/39/129 123/63/123 128/64/128
f 128/64/128 127/37/127 130/40/130
f 79/42/79 129/39/129 128/64/128
f 130/40/130 79/42/79 128/64/128
f 129/39/129 79/42/79 80/43/80
f 79/42/79 130/40/130 81/44/81
f 80/43/80 131/65/131 129/39/129
f 131/65/131 123/63/123 129/39/129
f 123/63/123 131/65/131 122/28/122
f 131/65/131 80/43/80 82/45/82
f 122/28/122 131/65/131 132/61/132
f 132/61/132 2/2/2 122/28/122
f 2/2/2 132/61/132 133/60/133
f 134/58/134 131/65/131 82/45/82
f 135/58/135 132/61/132 131/65/131
f 133/60/133 132/61/132 135/58/135
f 82/45/82 96/59/96 134/58/134
f 135/58/135 136/59/136 133/60/133
f 137/46/137 81/44/81 130/40/130
f 137/46/137 84/47/84 81/44/81
f 137/46/137 85/48/85 84/47/84
f 130/40/130 138/49/138 137/46/137
f 127/37/127 138/49/138 130/40/130
f 87/50/87 138/49/138 127/37/127
f 138/49/138 87/50/87 88/51/88
f 85/48/85 137/46/137 139/66/139
f 139/66/139 90/53/90 85/48/85
f 140/54/140 90/53/90 139/66/139
f 141/55/141 137/46/137 138/49/138
f 137/46/137 141/55/141 139/66/139
f 138/49/138 88/51/88 141/55/141
f 139/66/139 141/55/141 140/54/140
f 141/55/141 88/51/88 142/56/142
f 141/55/141 143/57/143 140/54/140
f 142/56/142 143/57/143 141/55/141
